<svg width="1109" height="712" viewBox="0 0 1109 712" fill="none" xmlns="http://www.w3.org/2000/svg">
<path d="M561.841 239.658C620.281 165.729 762.782 20.5171 893.118 160.921C893.118 160.921 1055.21 262.279 955.043 464.802C925.065 524.574 881.04 576.184 826.74 615.209C723.253 690.526 549.966 757.195 271.965 670.422C238.566 660.032 197.746 649.641 166.412 633.861C80.6724 590.685 -33.2707 491.166 9.16351 357.861C9.16351 357.861 34.5595 259.665 75.0576 370.543C97.4202 431.693 151.633 476.419 216.397 483.26C262.317 488.1 304.751 469.416 377.067 421.141L484.298 323.204C512.321 297.487 538.221 269.547 561.744 239.658" fill="#D11D17"/>
<path d="M30.7177 322.397C27.6268 324.849 25.2173 328.053 23.7199 331.703C22.2226 335.353 21.6877 339.327 22.1663 343.243C26.9744 388.194 70.8285 573.291 466.838 565.675C466.838 565.675 906.605 551.896 903.282 197.514C903.282 197.514 829.062 -34.5994 580.91 208.357C580.91 208.357 323.465 510.947 221.333 468.416C221.333 468.416 101.936 469.868 68.8923 354.247C68.8923 354.247 51.6282 306.327 30.7177 322.397Z" fill="#E04030"/>
<path d="M909.998 144.625C909.998 144.625 858.884 85.2494 743.811 100.545L811.286 142.495C811.286 142.495 846.621 145.722 787.504 167.343C787.504 167.343 693.923 187.898 699.57 213.036C699.57 213.036 820.871 232.753 847.202 211.81C847.202 211.81 825.582 269.185 846.363 307.037C846.363 307.037 904.964 280.511 906.642 228.816C906.642 228.816 935.685 290.579 941.622 328.109C942.279 332.568 944.602 336.613 948.123 339.428C951.645 342.243 956.102 343.617 960.597 343.275C979.765 341.436 1003.16 318.557 968.567 196.805C968.567 196.805 1074.6 119.358 1103.55 78.5696C1106.55 74.329 1108.11 69.2341 1108 64.0385C1107.88 58.843 1106.1 53.8229 1102.9 49.7208C1089.74 32.5858 1060.15 0.639111 1024.91 0.155071C1020.9 0.147108 1016.97 1.29255 1013.58 3.45506C1010.2 5.61757 1007.51 8.70605 1005.84 12.3529C990.22 45.5258 940.848 144.851 910.128 144.657" fill="#588D42"/>
</svg>
