<svg width="3412" height="775" viewBox="0 0 3412 775" fill="none" xmlns="http://www.w3.org/2000/svg">
<path d="M2341.49 127H1810C1796.13 127 1784.89 136.059 1784.89 147.235V232.236C1784.89 243.412 1796.13 252.471 1810 252.471H2341.49C2355.36 252.471 2366.6 243.412 2366.6 232.236V147.235C2366.6 136.059 2355.36 127 2341.49 127Z" fill="#713C3C"/>
<path d="M2317.9 141.739H1833.61C1819.74 141.739 1808.5 150.798 1808.5 161.973V217.517C1808.5 228.692 1819.74 237.751 1833.61 237.751H2317.9C2331.77 237.751 2343.01 228.692 2343.01 217.517V161.973C2343.01 150.798 2331.77 141.739 2317.9 141.739Z" fill="#FFCF4C"/>
<path d="M1890.47 252.47H1858.88V282.012H1890.47V252.47Z" fill="#12242A"/>
<path d="M2299.83 252.47H2268.23V282.012H2299.83V252.47Z" fill="#12242A"/>
<path d="M1890.45 252.067H1878.06V282.031H1890.45V252.067Z" fill="#69635C"/>
<path d="M2299.82 252.268H2287.44V282.232H2299.82V252.268Z" fill="#69635C"/>
<path d="M2356.48 301.708H1786.38V564.656H2356.48V301.708Z" fill="#713C3C"/>
<path d="M2391.14 301.708H2356.48V564.656H2408.86C2408.86 564.656 2476.07 492.486 2544.15 564.656H2579.5V476.855C2579.5 470.059 2577.72 463.331 2574.17 457.362C2567.03 445.39 2550.99 428.612 2516.36 424.7C2503.45 423.25 2491.72 417.079 2483.93 407.568L2401.1 306.261C2398.76 303.394 2395.08 301.708 2391.16 301.708H2391.14Z" fill="#713C3C"/>
<path d="M2180.08 371.635H1830.27V467.867H2180.08V371.635Z" fill="#FFCF4C"/>
<path d="M1818.26 355.28V405.933C1818.26 413.572 1825.93 419.76 1835.41 419.76C1844.89 419.76 1852.57 413.572 1852.57 405.933V355.28H1818.23H1818.26Z" fill="#EE7034"/>
<path d="M1852.58 355.28V405.933C1852.58 413.572 1860.26 419.76 1869.74 419.76C1879.22 419.76 1886.9 413.572 1886.9 405.933V355.28H1852.56H1852.58Z" fill="#F6A21C"/>
<path d="M1886.93 355.28V405.933C1886.93 413.572 1894.61 419.76 1904.08 419.76C1913.56 419.76 1921.24 413.572 1921.24 405.933V355.28H1886.91H1886.93Z" fill="#EE7034"/>
<path d="M1921.24 355.28V405.933C1921.24 413.572 1928.92 419.76 1938.4 419.76C1947.87 419.76 1955.55 413.572 1955.55 405.933V355.28H1921.22H1921.24Z" fill="#F6A21C"/>
<path d="M1955.59 355.28V405.933C1955.59 413.572 1963.27 419.76 1972.75 419.76C1982.22 419.76 1989.9 413.572 1989.9 405.933V355.28H1955.57H1955.59Z" fill="#EE7034"/>
<path d="M1989.91 355.28V405.933C1989.91 413.572 1997.59 419.76 2007.07 419.76C2016.55 419.76 2024.22 413.572 2024.22 405.933V355.28H1989.89H1989.91Z" fill="#F6A21C"/>
<path d="M2024.26 355.28V405.933C2024.26 413.572 2031.93 419.76 2041.41 419.76C2050.89 419.76 2058.57 413.572 2058.57 405.933V355.28H2024.23H2024.26Z" fill="#EE7034"/>
<path d="M2058.58 355.28V405.933C2058.58 413.572 2066.26 419.76 2075.74 419.76C2085.22 419.76 2092.9 413.572 2092.9 405.933V355.28H2058.56H2058.58Z" fill="#F6A21C"/>
<path d="M2092.9 355.28V405.933C2092.9 413.572 2100.57 419.76 2110.05 419.76C2119.53 419.76 2127.21 413.572 2127.21 405.933V355.28H2092.88H2092.9Z" fill="#EE7034"/>
<path d="M2127.24 355.28V405.933C2127.24 413.572 2134.92 419.76 2144.4 419.76C2153.87 419.76 2161.55 413.572 2161.55 405.933V355.28H2127.22H2127.24Z" fill="#F6A21C"/>
<path d="M2161.58 355.28V405.933C2161.58 413.572 2169.25 419.76 2178.73 419.76C2188.21 419.76 2195.89 413.572 2195.89 405.933V355.28H2161.55H2161.58Z" fill="#EE7034"/>
<path d="M2188.12 468.493H1826.07C1821.76 468.493 1818.27 471.309 1818.27 474.782V474.799C1818.27 478.273 1821.76 481.089 1826.07 481.089H2188.12C2192.43 481.089 2195.93 478.273 2195.93 474.799V474.782C2195.93 471.309 2192.43 468.493 2188.12 468.493Z" fill="#EE7034"/>
<path d="M2369.86 301.708H2225.12V570.035H2369.86V301.708Z" fill="#713C3C"/>
<path d="M2417.48 282.638H1784.61C1776.42 282.638 1769.78 287.987 1769.78 294.585C1769.78 301.183 1776.42 306.532 1784.61 306.532H2417.48C2425.67 306.532 2432.31 301.183 2432.31 294.585C2432.31 287.987 2425.67 282.638 2417.48 282.638Z" fill="#FFCF4C" stroke="#713C3C" stroke-width="6.33" stroke-miterlimit="10"/>
<path d="M2586 558.098H1783.19C1774.99 558.098 1768.35 563.447 1768.35 570.045C1768.35 576.643 1774.99 581.992 1783.19 581.992H2586C2594.19 581.992 2600.83 576.643 2600.83 570.045C2600.83 563.447 2594.19 558.098 2586 558.098Z" fill="#FFCF4C" stroke="#713C3C" stroke-width="6.33" stroke-miterlimit="10"/>
<path d="M2304.48 348.703H2270.96C2250.43 348.703 2233.78 362.118 2233.78 378.667V405.68C2233.78 422.229 2250.43 435.644 2270.96 435.644H2304.48C2325.01 435.644 2341.65 422.229 2341.65 405.68V378.667C2341.65 362.118 2325.01 348.703 2304.48 348.703Z" fill="#FFCF4C"/>
<path d="M2336.23 462.808H2336.21C2333.2 462.808 2330.77 464.77 2330.77 467.192V482.368C2330.77 484.789 2333.2 486.752 2336.21 486.752H2336.23C2339.23 486.752 2341.67 484.789 2341.67 482.368V467.192C2341.67 464.77 2339.23 462.808 2336.23 462.808Z" fill="#FFCF4C"/>
<path d="M2378.51 359.663V425.679C2378.51 431.193 2384.05 435.661 2390.89 435.661H2458.66C2466.67 435.661 2471.17 428.191 2466.19 423.132L2398.45 354.099C2391.88 347.405 2378.51 351.148 2378.51 359.68V359.663Z" fill="#FFCF4C"/>
<path d="M1922.22 646C1962.03 646 1994.3 619.992 1994.3 587.91C1994.3 555.828 1962.03 529.82 1922.22 529.82C1882.42 529.82 1850.15 555.828 1850.15 587.91C1850.15 619.992 1882.42 646 1922.22 646Z" fill="#373B33"/>
<path d="M1922.22 618.531C1943.2 618.531 1960.21 604.821 1960.21 587.909C1960.21 570.997 1943.2 557.287 1922.22 557.287C1901.24 557.287 1884.23 570.997 1884.23 587.909C1884.23 604.821 1901.24 618.531 1922.22 618.531Z" fill="white"/>
<path d="M2478.14 646C2517.94 646 2550.21 619.992 2550.21 587.91C2550.21 555.828 2517.94 529.82 2478.14 529.82C2438.33 529.82 2406.06 555.828 2406.06 587.91C2406.06 619.992 2438.33 646 2478.14 646Z" fill="#373B33"/>
<path d="M2478.16 618.531C2499.14 618.531 2516.15 604.821 2516.15 587.909C2516.15 570.997 2499.14 557.287 2478.16 557.287C2457.17 557.287 2440.16 570.997 2440.16 587.909C2440.16 604.821 2457.17 618.531 2478.16 618.531Z" fill="white"/>
<path d="M2567.58 497.409V497.392C2567.58 494.971 2565.14 493.008 2562.14 493.008H2543.31C2540.3 493.008 2537.87 494.971 2537.87 497.392V497.409C2537.87 499.831 2540.3 501.793 2543.31 501.793H2562.14C2565.14 501.793 2567.58 499.831 2567.58 497.409Z" fill="#FFCF4C"/>
<path d="M1913.84 167.248C1906.27 167.248 1902.48 173.133 1902.48 184.92V189.591C1902.48 195.189 1903.48 199.573 1905.49 202.743C1907.5 205.913 1910.45 207.498 1914.36 207.498C1919.74 207.498 1924.68 203.283 1929.18 194.851H1930.49L1929.97 208.038H1929.16C1928.86 207.599 1928.59 207.296 1928.36 207.127C1928.11 206.942 1927.75 206.857 1927.29 206.857C1926.83 206.857 1925.05 207.161 1921.98 207.768C1918.9 208.375 1915.77 208.678 1912.59 208.678C1904.61 208.678 1898.44 206.942 1894.07 203.485C1889.7 200.011 1887.5 194.801 1887.5 187.854C1887.5 180.907 1889.78 175.528 1894.36 171.75C1898.92 167.973 1905.07 166.085 1912.82 166.085C1915.79 166.085 1918.72 166.388 1921.58 166.995C1924.45 167.602 1926.12 167.906 1926.6 167.906C1927.08 167.906 1927.46 167.822 1927.71 167.636C1927.96 167.451 1928.23 167.147 1928.53 166.725H1929.34L1929.93 179.558H1928.61C1926.41 175.578 1924.15 172.526 1921.83 170.418C1919.51 168.311 1916.85 167.248 1913.88 167.248H1913.84Z" fill="#713C3C"/>
<path d="M1960.27 208.678C1952.11 208.678 1946 206.891 1941.96 203.333C1937.92 199.775 1935.91 194.599 1935.91 187.854C1935.91 181.109 1938.07 175.78 1942.4 171.902C1946.73 168.024 1952.86 166.085 1960.77 166.085C1968.68 166.085 1974.66 167.923 1978.7 171.615C1982.74 175.308 1984.75 180.536 1984.75 187.314C1984.75 194.093 1982.7 199.354 1978.62 203.097C1974.54 206.84 1968.41 208.712 1960.25 208.712L1960.27 208.678ZM1969.66 189.827V185.459C1969.66 178.242 1969.22 173.69 1968.34 171.801C1967.36 169.626 1965.98 168.294 1964.16 167.788C1963.13 167.467 1961.88 167.316 1960.41 167.316C1958.95 167.316 1957.69 167.467 1956.63 167.788C1955.58 168.108 1954.7 168.648 1954.03 169.44C1953.34 170.233 1952.8 171.059 1952.38 171.919C1951.96 172.779 1951.63 174.01 1951.4 175.578C1951.1 177.871 1950.96 181.227 1950.96 185.678V189.928C1950.96 194.733 1951.19 198.156 1951.65 200.18C1952.11 202.203 1952.69 203.654 1953.36 204.53C1954.87 206.469 1957.23 207.431 1960.41 207.431C1964.28 207.431 1966.77 206.115 1967.92 203.502C1969.08 200.888 1969.64 196.318 1969.64 189.827H1969.66Z" fill="#713C3C"/>
<path d="M2055.85 209.594C2047.69 209.594 2041.58 207.806 2037.54 204.248C2033.5 200.691 2031.49 195.514 2031.49 188.769C2031.49 182.024 2033.65 176.696 2037.98 172.817C2042.31 168.939 2048.44 167 2056.35 167C2064.26 167 2070.24 168.838 2074.28 172.531C2078.32 176.224 2080.32 181.451 2080.32 188.229C2080.32 195.008 2078.27 200.269 2074.19 204.012C2070.11 207.756 2063.98 209.627 2055.82 209.627L2055.85 209.594ZM2065.24 190.742V186.375C2065.24 179.158 2064.8 174.605 2063.92 172.716C2062.94 170.541 2061.56 169.209 2059.74 168.703C2058.71 168.383 2057.46 168.231 2055.99 168.231C2054.53 168.231 2053.27 168.383 2052.2 168.703C2051.16 169.023 2050.28 169.563 2049.61 170.356C2048.92 171.148 2048.38 171.974 2047.96 172.834C2047.54 173.694 2047.2 174.925 2046.97 176.493C2046.68 178.787 2046.53 182.142 2046.53 186.594V190.843C2046.53 195.649 2046.77 199.072 2047.23 201.095C2047.69 203.119 2048.27 204.569 2048.94 205.446C2050.45 207.385 2052.81 208.346 2055.99 208.346C2059.86 208.346 2062.35 207.031 2063.5 204.417C2064.65 201.803 2065.22 197.234 2065.22 190.742H2065.24Z" fill="#713C3C"/>
<path d="M1989.31 166.708H2015.71V168.006H2007.93V206.772H2010.57C2014.73 206.772 2018.04 205.744 2020.5 203.703C2022.97 201.663 2025.48 198.51 2028.02 194.244H2029.56L2028.16 208.071H1989.29V206.772H1993.62V168.006H1989.29V166.708H1989.31Z" fill="#713C3C"/>
<path d="M2120.26 166.708H2139.85V167.838H2135.81V206.958H2139.85V208.088H2117.48V206.958H2121.52V170.013H2121.23L2110.22 208.071H2101.06L2088.15 169.827H2087.86V206.941H2091.89V208.071H2081.91V206.941H2085.95V167.838H2081.91V166.708H2101.71L2111.46 197.144L2120.26 166.708Z" fill="#713C3C"/>
<path d="M2143.24 166.708H2165.17C2171.97 166.708 2177.05 167.45 2180.46 168.917C2183.85 170.401 2185.57 172.88 2185.57 176.387C2185.57 181.783 2181.53 185.02 2173.47 186.083V186.201C2183.24 187.179 2188.14 190.618 2188.14 196.487C2188.14 200.786 2186.13 203.788 2182.11 205.508C2178.1 207.228 2172.34 208.071 2164.81 208.071H2143.26V206.941H2148.03V167.838H2143.26V166.708H2143.24ZM2162.3 167.838V186.049H2164.21C2166.74 186.049 2168.52 185.425 2169.52 184.194C2170.52 182.946 2171.03 181.058 2171.03 178.495V175.712C2171.03 172.795 2170.59 170.755 2169.71 169.591C2168.83 168.428 2167.13 167.855 2164.65 167.855H2162.3V167.838ZM2162.3 187.162V206.958H2165.75C2168.45 206.958 2170.32 206.216 2171.4 204.715C2172.47 203.214 2173.01 201.006 2173.01 198.088V194.952C2173.01 192.355 2172.37 190.399 2171.03 189.101C2169.71 187.803 2167.37 187.145 2163.98 187.145H2162.28L2162.3 187.162Z" fill="#713C3C"/>
<path d="M2191.88 166.708H2214.24V167.838H2210.2V206.958H2214.24V208.088H2191.88V206.958H2195.91V167.838H2191.88V166.708Z" fill="#713C3C"/>
<path d="M2247.75 206.958L2242.4 194.194H2227.88L2222.23 206.958H2227.73V208.088H2216.52V206.958H2219.97L2238.67 166.354H2244.68L2263.15 206.958H2266.52V208.088H2242.54V206.958H2247.75ZM2235.43 177.399L2228.55 192.878H2241.81L2235.43 177.399Z" fill="#713C3C"/>
<path d="M1790.27 329.429H1734.26V348.702H1790.27V329.429Z" fill="#FFCF4C" stroke="#713C3C" stroke-width="4.87" stroke-miterlimit="10"/>
<path d="M1792.79 514.879H1736.78V534.152H1792.79V514.879Z" fill="#FFCF4C" stroke="#713C3C" stroke-width="4.87" stroke-miterlimit="10"/>
<path d="M929.09 435.668C929.09 385.408 929.09 335.083 929.09 284.823C929.582 284.114 930.468 283.792 931.453 283.534C944.745 279.668 958.332 276.446 972.214 273.611C984.324 271.098 996.631 269.165 1009.04 267.425C1020.36 265.814 1031.88 264.654 1043.4 263.752C1054.33 262.915 1065.35 262.335 1076.38 262.27C1086.92 262.206 1097.35 261.948 1107.89 262.077C1117.64 262.141 1127.28 262.141 1137.03 262.463C1146.68 262.786 1156.33 263.43 1165.98 264.139C1180.84 265.17 1195.61 266.523 1210.38 268.134C1223.87 269.551 1237.26 271.098 1250.65 272.838C1276.15 276.124 1301.55 279.732 1326.95 283.47C1351.67 287.078 1376.38 290.687 1401.19 293.973C1418.13 296.228 1435.16 298.29 1452.29 300.159C1466.37 301.705 1480.55 303.058 1494.73 304.154C1503.69 304.863 1512.55 305.442 1521.51 305.829C1528.3 306.087 1535.09 306.473 1541.89 306.602C1549.37 306.796 1556.85 307.053 1564.33 307.053C1576.84 307.053 1589.34 306.667 1601.85 306.087C1612.87 305.571 1623.8 304.798 1634.63 303.703C1654.03 301.77 1673.03 298.999 1691.84 295.197C1706.11 292.297 1720.09 288.947 1733.68 285.016C1735.85 284.372 1736.44 284.63 1736.44 286.112C1736.44 335.792 1736.44 385.472 1736.44 435.153C1736.44 435.346 1736.44 435.604 1736.44 435.797C1735.95 436.635 1734.76 436.893 1733.78 437.215C1719.31 441.339 1704.44 444.883 1689.28 447.911C1679.82 449.78 1670.27 451.326 1660.72 452.744C1649.6 454.355 1638.47 455.644 1627.25 456.61C1618.39 457.383 1609.53 458.028 1600.67 458.35C1594.36 458.608 1587.96 458.865 1581.56 458.994C1575.36 459.059 1569.06 459.252 1562.86 459.252C1553.7 459.188 1544.64 458.994 1535.49 458.672C1524.07 458.285 1512.64 457.706 1501.22 456.868C1488.82 455.966 1476.41 454.87 1464.01 453.646C1444.41 451.649 1424.92 449.393 1405.52 446.816C1385.64 444.174 1365.85 441.403 1346.06 438.504C1322.72 435.088 1299.29 431.673 1275.86 428.451C1260.99 426.389 1246.12 424.456 1231.25 422.717C1216.78 421.041 1202.31 419.43 1187.74 418.142C1177.1 417.24 1166.37 416.337 1155.74 415.693C1150.03 415.371 1144.22 415.049 1138.51 414.791C1129.45 414.469 1120.39 414.211 1111.43 414.018C1105.52 413.889 1099.62 413.76 1093.71 413.889C1085.73 414.082 1077.76 414.147 1069.78 414.533C1062.7 414.855 1055.71 415.178 1048.62 415.693C1039.16 416.337 1029.71 417.239 1020.36 418.335C1000.47 420.655 980.977 423.941 961.876 428.258C951.833 430.513 941.889 433.026 932.142 435.797C931.157 435.797 930.173 436.119 929.09 435.668Z" fill="#FACF15"/>
<path d="M929.098 435.669C953.811 428.517 979.312 423.04 1005.7 419.302C1028.84 416.016 1052.27 414.148 1076 413.439C1101.79 412.601 1127.59 413.245 1153.38 414.728C1186.76 416.661 1219.65 420.269 1252.53 424.457C1286.79 428.839 1320.86 433.994 1355.02 438.891C1381.02 442.628 1407.11 446.301 1433.4 449.394C1458.6 452.358 1483.9 454.936 1509.4 456.482C1534.61 458.029 1559.91 458.738 1585.22 458.093C1619.77 457.191 1653.84 453.905 1687.12 447.526C1703.96 444.304 1720.4 440.244 1736.45 435.734C1736.94 436.12 1736.74 436.571 1736.74 436.958C1736.74 461.637 1736.74 486.316 1736.74 510.995C1736.45 511.769 1735.46 512.026 1734.48 512.284C1727.19 514.411 1719.91 516.344 1712.42 518.148C1699.13 521.305 1685.64 524.012 1671.96 526.267C1657.98 528.522 1643.8 530.326 1629.42 531.615C1621.55 532.324 1613.57 532.904 1605.6 533.29C1598.9 533.613 1592.11 533.806 1585.41 534.064C1573.2 534.515 1561 534.321 1548.79 534.192C1540.62 534.128 1532.44 533.741 1524.27 533.29C1517.87 532.968 1511.47 532.646 1505.07 532.195C1496.7 531.679 1488.43 531.035 1480.06 530.326C1469.23 529.36 1458.4 528.264 1447.57 527.04C1437.14 525.88 1426.6 524.591 1416.17 523.303C1391.75 520.274 1367.43 516.73 1343.21 513.251C1325.29 510.673 1307.47 508.031 1289.55 505.518C1270.55 502.812 1251.55 500.299 1232.44 498.044C1218.56 496.368 1204.68 494.886 1190.7 493.598C1188.53 493.404 1186.27 493.147 1184.1 493.082C1183.81 493.082 1183.41 493.018 1183.12 492.889C1182.43 492.696 1181.74 492.567 1181.05 492.567C1180.66 492.567 1180.26 492.567 1179.87 492.502C1178.98 492.309 1178.1 492.244 1177.21 492.244C1177.01 492.244 1176.82 492.244 1176.62 492.18C1175.73 491.987 1174.85 491.922 1173.96 491.987C1173.67 491.987 1173.37 491.987 1173.08 491.922C1172.29 491.729 1171.6 491.664 1170.71 491.729C1170.42 491.729 1170.12 491.729 1169.83 491.665C1168.94 491.471 1168.05 491.407 1167.17 491.471C1166.77 491.471 1166.38 491.471 1165.99 491.407C1165.2 491.278 1164.41 491.149 1163.62 491.213C1163.23 491.213 1162.84 491.213 1162.44 491.149C1161.46 490.956 1160.47 490.891 1159.49 490.891C1159.29 490.891 1159.09 490.891 1158.9 490.827C1157.72 490.569 1156.53 490.633 1155.35 490.569C1155.16 490.569 1154.96 490.569 1154.76 490.505C1153.48 490.247 1152.1 490.376 1150.82 490.311C1150.63 490.311 1150.43 490.311 1150.23 490.247C1149.05 489.989 1147.77 490.054 1146.49 490.054C1146.2 490.054 1145.8 490.054 1145.51 489.989C1144.13 489.667 1142.75 489.796 1141.37 489.796C1140.98 489.796 1140.49 489.796 1140.09 489.731C1138.52 489.409 1136.84 489.538 1135.17 489.538C1134.87 489.538 1134.48 489.538 1134.18 489.474C1132.02 489.087 1129.75 489.345 1127.59 489.28C1127.39 489.28 1127.1 489.28 1126.9 489.216C1124.24 488.829 1121.48 489.152 1118.73 489.023C1118.53 489.023 1118.23 488.958 1118.04 488.958C1116.95 488.765 1115.77 488.829 1114.69 488.829C1105.14 488.829 1095.49 488.765 1085.94 488.894C1082.2 488.958 1078.36 489.023 1074.62 489.28C1074.42 489.345 1074.13 489.345 1073.93 489.345C1071.66 489.474 1069.4 489.216 1067.14 489.538C1066.94 489.538 1066.74 489.602 1066.45 489.602C1065.07 489.667 1063.59 489.538 1062.21 489.796C1061.92 489.86 1061.52 489.86 1061.23 489.86C1059.85 489.86 1058.47 489.796 1057.09 490.054C1056.8 490.118 1056.5 490.118 1056.11 490.118C1055.12 490.118 1054.04 490.118 1053.06 490.311C1052.76 490.376 1052.47 490.376 1052.17 490.376C1051.19 490.376 1050.1 490.376 1049.22 490.569C1049.02 490.569 1048.82 490.634 1048.63 490.634C1047.64 490.634 1046.66 490.633 1045.67 490.827C1045.47 490.827 1045.28 490.891 1045.08 490.891C1044.1 490.891 1043.11 490.891 1042.13 491.085C1041.83 491.149 1041.54 491.149 1041.24 491.149C1040.55 491.149 1039.96 491.213 1039.27 491.342C1038.98 491.342 1038.68 491.407 1038.39 491.407C1037.7 491.407 1037.11 491.471 1036.42 491.6C1036.12 491.6 1035.83 491.665 1035.53 491.665C1034.74 491.665 1034.05 491.664 1033.27 491.858C1033.07 491.858 1032.87 491.922 1032.68 491.922C1031.89 491.922 1031.2 491.987 1030.41 492.116C1030.21 492.116 1030.02 492.18 1029.82 492.18C1029.13 492.18 1028.44 492.309 1027.85 492.438C1026.87 492.631 1025.88 492.824 1024.8 492.953C1018.89 493.34 1013.08 494.242 1007.27 495.08C992.702 497.013 978.327 499.655 964.248 502.748C953.319 505.132 942.686 507.838 932.151 510.866C931.166 511.124 930.083 511.575 929 510.995C929.098 485.865 929.098 460.799 929.098 435.669Z" fill="#003791"/>
<path d="M929.09 510.995C929.878 510.995 930.567 510.672 931.256 510.479C959.316 502.425 988.361 496.69 1018.39 493.081C1020.56 492.824 1022.62 492.63 1024.79 492.437C1026.76 492.759 1028.53 492.179 1030.4 492.05C1035.13 491.728 1039.85 491.213 1044.58 490.826C1050.78 490.375 1056.99 489.988 1063.29 489.602C1067.82 489.344 1072.34 489.215 1076.78 489.086C1087.31 488.7 1097.94 488.764 1108.48 488.828C1117.04 488.893 1125.61 489.151 1134.18 489.537C1137.33 489.666 1140.48 489.795 1143.63 489.924C1147.37 490.053 1151.01 490.31 1154.75 490.568C1159.18 490.826 1163.61 491.148 1168.05 491.406C1172.08 491.664 1176.02 492.05 1180.06 492.308C1181.24 492.373 1182.52 492.566 1183.7 492.437C1193.15 493.081 1202.6 494.112 1211.96 495.143C1262.07 500.491 1311.5 508.159 1361.02 515.247C1393.91 519.951 1426.89 524.462 1460.17 527.877C1502.41 532.194 1544.94 534.707 1587.77 533.483C1630.01 532.259 1671.26 527.297 1711.04 517.825C1719.6 515.827 1727.87 513.508 1736.24 511.188C1736.73 511.639 1736.54 512.09 1736.54 512.541C1736.54 536.769 1736.54 560.997 1736.63 585.225C1736.63 586.643 1735.85 587.352 1733.98 587.867C1726.69 589.993 1719.31 591.862 1711.82 593.666C1699.71 596.566 1687.5 599.079 1675 601.141C1662.69 603.139 1650.29 604.878 1637.78 606.167C1627.35 607.262 1616.91 608.1 1606.38 608.616C1601.45 608.873 1596.53 608.938 1591.61 608.938C1589.64 608.938 1587.67 609.067 1585.7 609.067C1584.03 609.067 1582.35 609.067 1580.68 609.067C1579.89 609.067 1579 609.067 1578.22 609.067C1577.23 609.067 1576.35 609.067 1575.36 609.067C1574.48 609.067 1573.69 609.067 1572.8 609.067C1567.58 609.067 1562.27 609.067 1557.05 609.067C1555.67 609.067 1554.39 609.067 1553.01 609.067C1551.93 609.067 1550.85 609.067 1549.76 609.067C1548.09 609.067 1546.42 609.067 1544.74 609.067C1535.78 608.809 1526.72 608.938 1517.86 608.422C1506.15 607.778 1494.53 606.94 1482.91 605.974C1465.98 604.556 1449.04 602.687 1432.21 600.754C1407.89 597.919 1383.76 594.504 1359.74 591.089C1332.86 587.223 1305.98 583.228 1279.01 579.49C1257.84 576.591 1236.67 573.884 1215.4 571.565C1201.03 570.018 1186.65 568.601 1172.18 567.505C1164.3 566.925 1156.43 566.345 1148.55 565.959C1140.28 565.572 1131.91 565.121 1123.64 564.928C1113.5 564.67 1103.36 564.283 1093.12 564.477C1083.27 564.734 1073.33 564.863 1063.48 565.379C1052.46 565.959 1041.53 566.668 1030.7 567.763C1011.4 569.696 992.398 572.531 973.789 576.269C959.415 579.168 945.434 582.583 931.748 586.45C930.862 586.707 930.074 586.901 929.09 586.514C929.09 561.384 929.09 536.189 929.09 510.995Z" fill="#CC1125"/>
<path d="M1557.07 609.002C1562.49 609.002 1567.91 609.002 1573.32 609.002C1573.62 609.066 1573.62 609.131 1573.32 609.195C1567.91 609.195 1562.59 609.195 1557.17 609.195C1556.98 609.131 1556.98 609.131 1556.98 609.066C1556.98 609.066 1556.98 609.002 1557.07 609.002Z" fill="#DB5564"/>
<path d="M1544.85 609.26C1544.85 609.195 1544.85 609.066 1544.85 609.002C1546.53 609.002 1548.3 609.002 1549.97 609.066C1550.27 609.131 1550.27 609.195 1549.97 609.26C1548.3 609.26 1546.62 609.26 1544.85 609.26Z" fill="#F8E2E5"/>
<path d="M1585.9 609.002C1585.9 609.066 1585.9 609.195 1585.9 609.26C1584.23 609.26 1582.46 609.26 1580.78 609.26C1580.49 609.195 1580.49 609.131 1580.78 609.066C1582.46 609.002 1584.13 609.002 1585.9 609.002Z" fill="#F8DFE1"/>
<path d="M1557.06 609.002C1557.06 609.066 1557.06 609.131 1557.06 609.195C1555.78 609.195 1554.4 609.195 1553.12 609.195C1552.82 609.131 1552.82 609.066 1553.12 609.002C1554.4 609.002 1555.78 609.002 1557.06 609.002Z" fill="#E8939C"/>
<path d="M1553.1 609.002C1553.1 609.066 1553.1 609.131 1553.1 609.195C1552.02 609.195 1551.04 609.195 1549.95 609.195C1549.95 609.131 1549.95 609.066 1549.95 609.002C1551.04 609.002 1552.02 609.002 1553.1 609.002Z" fill="#F1BFC4"/>
<path d="M1575.67 609.002C1576.55 609.002 1577.54 609.002 1578.42 609.002C1578.72 609.066 1578.72 609.131 1578.42 609.195C1577.54 609.195 1576.55 609.195 1575.67 609.195C1575.37 609.131 1575.37 609.066 1575.67 609.002Z" fill="#E99AA3"/>
<path d="M1575.67 609.002C1575.67 609.066 1575.67 609.131 1575.67 609.195C1574.88 609.195 1574.09 609.195 1573.3 609.195C1573.3 609.131 1573.3 609.066 1573.3 609.002C1574.09 609.002 1574.88 609.002 1575.67 609.002Z" fill="#E06E7B"/>
<path d="M1578.33 609.26C1578.33 609.195 1578.33 609.131 1578.33 609.066C1579.12 609.066 1579.9 609.066 1580.69 609.066C1580.69 609.131 1580.69 609.195 1580.69 609.26C1580 609.26 1579.12 609.26 1578.33 609.26Z" fill="#F1BFC4"/>
<path d="M1183.8 492.437C1181.44 493.081 1179.08 492.501 1176.81 492.308C1169.63 491.728 1162.34 491.341 1155.15 490.826C1147.18 490.246 1139.2 490.117 1131.33 489.601C1128.67 489.408 1126.01 489.473 1123.25 489.344C1111.44 488.957 1099.62 488.828 1087.81 489.086C1079.24 489.279 1070.68 489.601 1062.11 489.988C1050.39 490.568 1038.68 491.535 1027.06 492.63C1026.37 492.694 1025.58 492.759 1024.99 492.437C1025.98 492.308 1026.96 492.243 1028.04 492.114C1028.73 491.857 1029.52 492.179 1030.11 491.857C1030.21 491.792 1030.31 491.792 1030.41 491.857C1031.19 491.599 1032.18 491.921 1032.87 491.599C1032.97 491.535 1033.07 491.535 1033.16 491.599C1033.95 491.341 1034.84 491.663 1035.63 491.341C1035.82 491.341 1036.02 491.341 1036.22 491.341C1036.91 491.083 1037.69 491.406 1038.38 491.083C1038.58 491.083 1038.78 491.083 1038.97 491.019C1039.66 490.761 1040.45 491.083 1041.14 490.826C1041.34 490.826 1041.63 490.826 1041.83 490.761C1042.91 490.439 1044.09 490.89 1045.08 490.504C1045.18 490.439 1045.18 490.439 1045.27 490.504C1046.36 490.181 1047.54 490.632 1048.62 490.246C1048.72 490.181 1048.82 490.181 1048.92 490.246C1050 489.924 1051.18 490.375 1052.17 489.988C1052.36 489.988 1052.56 489.988 1052.76 489.988C1053.84 489.666 1055.02 490.117 1056.1 489.73C1056.3 489.73 1056.5 489.73 1056.7 489.73C1058.17 489.408 1059.75 489.859 1061.22 489.473C1061.42 489.473 1061.62 489.473 1061.82 489.473C1063.29 489.15 1064.87 489.601 1066.34 489.215C1066.44 489.15 1066.54 489.15 1066.54 489.215C1068.31 488.957 1070.18 489.15 1071.96 489.086C1072.55 489.086 1073.24 489.215 1073.83 488.893C1073.93 488.893 1074.02 488.828 1074.22 488.828C1088.79 488.442 1103.36 488.57 1117.94 488.57C1118.13 488.57 1118.33 488.635 1118.53 488.699C1120.59 489.086 1122.66 488.764 1124.73 488.893C1125.62 488.957 1126.4 488.764 1127.29 489.022C1128.96 489.408 1130.74 489.086 1132.41 489.215C1133.1 489.279 1133.79 489.15 1134.48 489.344C1134.67 489.344 1134.87 489.344 1135.07 489.344C1136.84 489.73 1138.61 489.279 1140.38 489.601C1140.68 489.601 1141.07 489.601 1141.37 489.601C1142.85 489.988 1144.42 489.537 1145.9 489.859C1146.09 489.859 1146.29 489.859 1146.49 489.859C1147.87 490.246 1149.24 489.795 1150.62 490.117C1150.72 490.052 1150.82 490.052 1150.82 490.117C1152.2 490.504 1153.77 490.052 1155.25 490.375C1156.53 490.761 1158.01 490.31 1159.29 490.632C1159.39 490.568 1159.48 490.568 1159.58 490.632C1160.67 491.019 1161.85 490.568 1162.93 490.89C1163.23 490.89 1163.62 490.89 1163.92 490.955C1164.7 491.212 1165.69 490.955 1166.47 491.212C1166.77 491.212 1167.07 491.212 1167.46 491.212C1168.44 491.534 1169.43 491.148 1170.41 491.47C1170.61 491.47 1170.81 491.47 1171 491.47C1171.79 491.792 1172.78 491.47 1173.56 491.728C1173.76 491.728 1173.96 491.728 1174.15 491.728C1175.04 492.05 1176.12 491.663 1177.01 491.986C1177.11 491.921 1177.21 491.921 1177.31 491.986C1178.19 492.308 1179.27 491.921 1180.26 492.243C1180.65 492.243 1180.95 492.308 1181.34 492.308C1182.03 492.566 1182.72 492.243 1183.41 492.501C1183.31 492.372 1183.51 492.437 1183.8 492.437Z" fill="#CF1024"/>
<path d="M1118.43 488.762C1103.56 488.827 1088.69 488.634 1073.82 489.02C1075.99 488.698 1078.25 488.762 1080.52 488.698C1092.63 488.376 1104.84 488.44 1116.95 488.633C1117.34 488.633 1117.83 488.698 1118.43 488.762Z" fill="#CC1125"/>
<path d="M1127.1 489.021C1124.83 489.021 1122.57 489.021 1120.21 489.021C1119.52 489.021 1118.93 489.086 1118.34 488.699C1121.29 488.764 1124.14 488.699 1127.1 489.021Z" fill="#CC1125"/>
<path d="M1073.83 489.022C1071.47 489.667 1069 489.216 1066.54 489.28C1068.91 488.958 1071.37 489.022 1073.83 489.022Z" fill="#CC1125"/>
<path d="M1134.29 489.278C1131.83 489.15 1129.37 489.665 1127 489.021C1129.47 488.956 1131.93 488.956 1134.29 489.278Z" fill="#CC1125"/>
<path d="M1140.19 489.536C1138.42 489.471 1136.54 489.858 1134.87 489.278C1136.64 489.278 1138.51 489.278 1140.19 489.536Z" fill="#CC1125"/>
<path d="M1066.35 489.278C1064.88 489.858 1063.3 489.471 1061.82 489.536C1063.3 489.278 1064.78 489.278 1066.35 489.278Z" fill="#CC1125"/>
<path d="M1061.24 489.536C1059.76 490.052 1058.18 489.73 1056.71 489.794C1058.18 489.536 1059.66 489.536 1061.24 489.536Z" fill="#CC1125"/>
<path d="M1145.7 489.794C1144.22 489.73 1142.65 490.052 1141.17 489.536C1142.75 489.536 1144.22 489.536 1145.7 489.794Z" fill="#CC1125"/>
<path d="M1155.07 490.31C1153.59 490.246 1152.12 490.568 1150.64 490.053C1152.12 490.053 1153.59 490.053 1155.07 490.31Z" fill="#CC1125"/>
<path d="M1150.43 490.054C1149.05 489.989 1147.68 490.312 1146.3 489.796C1147.68 489.796 1149.05 489.796 1150.43 490.054Z" fill="#CC1125"/>
<path d="M1159.1 490.567C1157.72 490.503 1156.34 490.825 1155.06 490.31C1156.34 490.31 1157.72 490.31 1159.1 490.567Z" fill="#CC1125"/>
<path d="M1162.65 490.825C1161.57 490.761 1160.38 491.083 1159.3 490.568C1160.48 490.568 1161.57 490.568 1162.65 490.825Z" fill="#CC1125"/>
<path d="M1045.09 490.568C1044.1 491.083 1042.92 490.761 1041.84 490.825C1042.82 490.568 1043.9 490.568 1045.09 490.568Z" fill="#CC1125"/>
<path d="M1048.62 490.31C1047.54 490.761 1046.45 490.503 1045.27 490.567C1046.36 490.31 1047.44 490.31 1048.62 490.31Z" fill="#CC1125"/>
<path d="M1052.17 490.053C1051.19 490.504 1050 490.246 1048.92 490.31C1049.91 490.053 1050.99 490.053 1052.17 490.053Z" fill="#CC1125"/>
<path d="M1056.11 489.796C1055.02 490.312 1053.84 489.989 1052.76 490.054C1053.74 489.796 1054.92 489.796 1056.11 489.796Z" fill="#CC1125"/>
<path d="M1170.13 491.34C1169.14 491.276 1168.06 491.533 1167.17 491.082C1168.25 491.082 1169.24 491.082 1170.13 491.34Z" fill="#CC1125"/>
<path d="M1176.82 491.857C1175.84 491.857 1174.85 492.05 1173.96 491.599C1174.95 491.599 1175.84 491.599 1176.82 491.857Z" fill="#CC1125"/>
<path d="M1179.97 492.115C1178.98 492.115 1178 492.308 1177.02 491.857C1178.1 491.857 1179.08 491.857 1179.97 492.115Z" fill="#CC1125"/>
<path d="M1166.27 491.083C1165.38 491.019 1164.5 491.277 1163.71 490.826C1164.6 490.826 1165.38 490.826 1166.27 491.083Z" fill="#CC1125"/>
<path d="M1035.53 491.405C1034.74 491.792 1033.86 491.598 1033.07 491.663C1033.86 491.405 1034.74 491.341 1035.53 491.405Z" fill="#CC1125"/>
<path d="M1032.77 491.599C1031.98 491.985 1031.1 491.857 1030.31 491.857C1031.1 491.599 1031.98 491.599 1032.77 491.599Z" fill="#CC1125"/>
<path d="M1173.37 491.598C1172.49 491.598 1171.6 491.791 1170.81 491.34C1171.7 491.34 1172.49 491.34 1173.37 491.598Z" fill="#CC1125"/>
<path d="M1038.29 491.147C1037.6 491.533 1036.81 491.34 1036.12 491.405C1036.81 491.147 1037.6 491.082 1038.29 491.147Z" fill="#CC1125"/>
<path d="M1041.04 490.89C1040.36 491.212 1039.67 491.083 1038.88 491.083C1039.67 490.89 1040.36 490.825 1041.04 490.89Z" fill="#CC1125"/>
<path d="M1030.02 491.857C1029.43 492.244 1028.64 492.115 1027.95 492.115C1028.64 491.857 1029.33 491.857 1030.02 491.857Z" fill="#CC1125"/>
<path d="M1183.11 492.374C1182.43 492.374 1181.64 492.503 1181.05 492.18C1181.74 492.116 1182.43 492.18 1183.11 492.374Z" fill="#CC1125"/>
</svg>
