<svg width="2311" height="914" viewBox="0 0 2311 914" fill="none" xmlns="http://www.w3.org/2000/svg">
<path d="M1949.02 0H1215.63C1196.49 0 1180.98 15.9512 1180.98 35.6279V185.295C1180.98 204.972 1196.49 220.923 1215.63 220.923H1949.02C1968.15 220.923 1983.66 204.972 1983.66 185.295V35.6279C1983.66 15.9512 1968.15 0 1949.02 0Z" fill="#713C3C"/>
<path d="M1916.46 25.9492H1248.2C1229.06 25.9492 1213.55 41.9004 1213.55 61.5771V159.376C1213.55 179.053 1229.06 195.004 1248.2 195.004H1916.46C1935.59 195.004 1951.11 179.053 1951.11 159.376V61.5771C1951.11 41.9004 1935.59 25.9492 1916.46 25.9492Z" fill="#FFCF4C"/>
<path d="M1326.66 220.922H1283.07V272.939H1326.66V220.922Z" fill="#12242A"/>
<path d="M1891.51 220.922H1847.92V272.939H1891.51V220.922Z" fill="#12242A"/>
<path d="M1326.66 220.211H1309.57V272.97H1326.66V220.211Z" fill="#69635C"/>
<path d="M1891.52 220.566H1874.43V273.325H1891.52V220.566Z" fill="#69635C"/>
<path d="M1969.7 307.617H1183.04V770.602H1969.7V307.617Z" fill="#713C3C"/>
<path d="M2017.53 307.617H1969.7V770.602H2041.98C2041.98 770.602 2134.71 643.529 2228.65 770.602H2277.44V616.007C2277.44 604.041 2274.99 592.195 2270.08 581.685C2260.24 560.605 2238.09 531.064 2190.31 524.176C2172.5 521.622 2156.31 510.756 2145.57 494.011L2031.27 315.633C2028.04 310.586 2022.96 307.617 2017.56 307.617H2017.53Z" fill="#713C3C"/>
<path d="M1726.28 430.742H1243.59V600.183H1726.28V430.742Z" fill="#FFCF4C"/>
<path d="M1227.04 401.941V491.13C1227.04 504.579 1237.63 515.476 1250.71 515.476C1263.79 515.476 1274.38 504.579 1274.38 491.13V401.941H1227.01H1227.04Z" fill="#EE7034"/>
<path d="M1274.4 401.941V491.13C1274.4 504.579 1285 515.476 1298.08 515.476C1311.15 515.476 1321.75 504.579 1321.75 491.13V401.941H1274.38H1274.4Z" fill="#F6A21C"/>
<path d="M1321.79 401.941V491.13C1321.79 504.579 1332.38 515.476 1345.46 515.476C1358.54 515.476 1369.13 504.579 1369.13 491.13V401.941H1321.76H1321.79Z" fill="#EE7034"/>
<path d="M1369.15 401.941V491.13C1369.15 504.579 1379.75 515.476 1392.83 515.476C1405.9 515.476 1416.5 504.579 1416.5 491.13V401.941H1369.12H1369.15Z" fill="#F6A21C"/>
<path d="M1416.53 401.941V491.13C1416.53 504.579 1427.12 515.476 1440.2 515.476C1453.28 515.476 1463.87 504.579 1463.87 491.13V401.941H1416.5H1416.53Z" fill="#EE7034"/>
<path d="M1463.9 401.941V491.13C1463.9 504.579 1474.5 515.476 1487.58 515.476C1500.65 515.476 1511.25 504.579 1511.25 491.13V401.941H1463.88H1463.9Z" fill="#F6A21C"/>
<path d="M1511.28 401.941V491.13C1511.28 504.579 1521.87 515.476 1534.95 515.476C1548.03 515.476 1558.62 504.579 1558.62 491.13V401.941H1511.25H1511.28Z" fill="#EE7034"/>
<path d="M1558.63 401.941V491.13C1558.63 504.579 1569.23 515.476 1582.3 515.476C1595.38 515.476 1605.98 504.579 1605.98 491.13V401.941H1558.6H1558.63Z" fill="#F6A21C"/>
<path d="M1606.01 401.941V491.13C1606.01 504.579 1616.6 515.476 1629.68 515.476C1642.76 515.476 1653.35 504.579 1653.35 491.13V401.941H1605.98H1606.01Z" fill="#EE7034"/>
<path d="M1653.38 401.941V491.13C1653.38 504.579 1663.98 515.476 1677.05 515.476C1690.13 515.476 1700.73 504.579 1700.73 491.13V401.941H1653.35H1653.38Z" fill="#F6A21C"/>
<path d="M1700.75 401.941V491.13C1700.75 504.579 1711.34 515.476 1724.42 515.476C1737.5 515.476 1748.09 504.579 1748.09 491.13V401.941H1700.72H1700.75Z" fill="#EE7034"/>
<path d="M1737.39 601.281H1237.81C1231.86 601.281 1227.04 606.239 1227.04 612.356V612.385C1227.04 618.501 1231.86 623.46 1237.81 623.46H1737.39C1743.34 623.46 1748.16 618.501 1748.16 612.385V612.356C1748.16 606.239 1743.34 601.281 1737.39 601.281Z" fill="#EE7034"/>
<path d="M1988.16 307.617H1788.45V780.073H1988.16V307.617Z" fill="#713C3C"/>
<path d="M2053.87 274.037H1180.61C1169.3 274.037 1160.14 283.455 1160.14 295.072C1160.14 306.69 1169.3 316.108 1180.61 316.108H2053.87C2065.18 316.108 2074.34 306.69 2074.34 295.072C2074.34 283.455 2065.18 274.037 2053.87 274.037Z" fill="#FFCF4C" stroke="#713C3C" stroke-width="6.33" stroke-miterlimit="10"/>
<path d="M2286.42 759.053H1178.65C1167.34 759.053 1158.18 768.471 1158.18 780.088C1158.18 791.706 1167.34 801.123 1178.65 801.123H2286.42C2297.72 801.123 2306.89 791.706 2306.89 780.088C2306.89 768.471 2297.72 759.053 2286.42 759.053Z" fill="#FFCF4C" stroke="#713C3C" stroke-width="6.33" stroke-miterlimit="10"/>
<path d="M1897.96 390.363H1851.71C1823.37 390.363 1800.41 413.984 1800.41 443.122V490.686C1800.41 519.824 1823.37 543.445 1851.71 543.445H1897.96C1926.29 543.445 1949.26 519.824 1949.26 490.686V443.122C1949.26 413.984 1926.29 390.363 1897.96 390.363Z" fill="#FFCF4C"/>
<path d="M1941.75 591.273H1941.72C1937.57 591.273 1934.21 594.73 1934.21 598.993V625.714C1934.21 629.977 1937.57 633.433 1941.72 633.433H1941.75C1945.89 633.433 1949.25 629.977 1949.25 625.714V598.993C1949.25 594.73 1945.89 591.273 1941.75 591.273Z" fill="#FFCF4C"/>
<path d="M2000.09 409.662V525.898C2000.09 535.607 2007.74 543.474 2017.18 543.474H2110.69C2121.75 543.474 2127.96 530.322 2121.08 521.415L2027.61 399.864C2018.54 388.077 2000.09 394.668 2000.09 409.692V409.662Z" fill="#FFCF4C"/>
<path d="M1370.49 913.827C1425.41 913.827 1469.94 868.034 1469.94 811.545C1469.94 755.057 1425.41 709.264 1370.49 709.264C1315.56 709.264 1271.03 755.057 1271.03 811.545C1271.03 868.034 1315.56 913.827 1370.49 913.827Z" fill="#373B33"/>
<path d="M1370.49 865.463C1399.44 865.463 1422.92 841.323 1422.92 811.546C1422.92 781.768 1399.44 757.629 1370.49 757.629C1341.53 757.629 1318.06 781.768 1318.06 811.546C1318.06 841.323 1341.53 865.463 1370.49 865.463Z" fill="white"/>
<path d="M2137.59 913.827C2192.52 913.827 2237.05 868.034 2237.05 811.545C2237.05 755.057 2192.52 709.264 2137.59 709.264C2082.67 709.264 2038.14 755.057 2038.14 811.545C2038.14 868.034 2082.67 913.827 2137.59 913.827Z" fill="#373B33"/>
<path d="M2137.6 865.463C2166.55 865.463 2190.02 841.323 2190.02 811.546C2190.02 781.768 2166.55 757.629 2137.6 757.629C2108.64 757.629 2085.17 781.768 2085.17 811.546C2085.17 841.323 2108.64 865.463 2137.6 865.463Z" fill="white"/>
<path d="M2260.98 652.198V652.169C2260.98 647.905 2257.62 644.449 2253.48 644.449H2227.5C2223.35 644.449 2219.99 647.905 2219.99 652.169V652.198C2219.99 656.462 2223.35 659.918 2227.5 659.918H2253.48C2257.62 659.918 2260.98 656.462 2260.98 652.198Z" fill="#FFCF4C"/>
<path d="M1358.94 70.8689C1348.49 70.8689 1343.26 81.2307 1343.26 101.984V110.208C1343.26 120.065 1344.65 127.785 1347.42 133.366C1350.19 138.948 1354.26 141.739 1359.66 141.739C1367.08 141.739 1373.89 134.316 1380.1 119.471H1381.92L1381.2 142.689H1380.07C1379.67 141.917 1379.29 141.382 1378.98 141.086C1378.63 140.759 1378.14 140.611 1377.5 140.611C1376.87 140.611 1374.41 141.145 1370.17 142.214C1365.93 143.283 1361.6 143.817 1357.21 143.817C1346.21 143.817 1337.69 140.759 1331.66 134.673C1325.63 128.556 1322.59 119.382 1322.59 107.15C1322.59 94.9178 1325.74 85.4467 1332.06 78.7961C1338.36 72.1456 1346.84 68.8203 1357.53 68.8203C1361.62 68.8203 1365.67 69.3547 1369.62 70.4236C1373.58 71.4924 1375.89 72.0268 1376.55 72.0268C1377.21 72.0268 1377.73 71.8784 1378.08 71.5518C1378.43 71.2252 1378.8 70.6908 1379.21 69.9485H1380.33L1381.14 92.5426H1379.32C1376.29 85.5357 1373.17 80.1619 1369.97 76.4506C1366.76 72.7394 1363.1 70.8689 1359 70.8689H1358.94Z" fill="#713C3C"/>
<path d="M1423 143.817C1411.74 143.817 1403.31 140.67 1397.74 134.405C1392.17 128.141 1389.4 119.026 1389.4 107.15C1389.4 95.274 1392.37 85.892 1398.35 79.0633C1404.32 72.2347 1412.78 68.8203 1423.7 68.8203C1434.61 68.8203 1442.86 72.0565 1448.44 78.5586C1454.01 85.0607 1456.78 94.2646 1456.78 106.2C1456.78 118.135 1453.95 127.399 1448.32 133.99C1442.69 140.581 1434.23 143.876 1422.97 143.876L1423 143.817ZM1435.96 110.624V102.934C1435.96 90.2267 1435.36 82.2105 1434.15 78.8852C1432.79 75.0552 1430.88 72.7097 1428.37 71.819C1426.96 71.2549 1425.23 70.9877 1423.2 70.9877C1421.18 70.9877 1419.45 71.2549 1417.98 71.819C1416.54 72.3831 1415.32 73.3332 1414.4 74.7286C1413.45 76.124 1412.7 77.5788 1412.12 79.093C1411.54 80.6072 1411.08 82.7746 1410.76 85.5357C1410.36 89.5736 1410.16 95.4819 1410.16 103.32V110.802C1410.16 119.264 1410.47 125.291 1411.11 128.853C1411.74 132.416 1412.55 134.969 1413.48 136.513C1415.55 139.928 1418.82 141.62 1423.2 141.62C1428.55 141.62 1431.98 139.304 1433.57 134.702C1435.16 130.1 1435.94 122.054 1435.94 110.624H1435.96Z" fill="#713C3C"/>
<path d="M1463.08 69.918H1499.51V72.2041H1488.77V140.461H1492.41C1498.15 140.461 1502.71 138.65 1506.12 135.058C1509.53 131.465 1512.99 125.913 1516.48 118.402H1518.62L1516.69 142.747H1463.05V140.461H1469.02V72.2041H1463.05V69.918H1463.08Z" fill="#713C3C"/>
<path d="M1549.85 135.266C1551.99 138.68 1555.8 140.372 1561.34 140.372C1566.88 140.372 1571.13 138.591 1574.1 135.058C1577.07 131.525 1578.55 126.151 1578.55 118.936V71.9072H1571.96V69.918H1586.75V71.9072H1581.17V118.223C1581.17 126.834 1579.33 133.247 1575.6 137.463C1571.88 141.708 1565.32 143.816 1555.91 143.816C1546.5 143.816 1539.31 141.797 1534.35 137.789C1529.38 133.781 1526.9 126.863 1526.9 117.066V71.9072H1521.33V69.918H1553.2V71.9072H1546.62V120.599C1546.62 126.982 1547.69 131.881 1549.79 135.266H1549.85Z" fill="#713C3C"/>
<path d="M1643.78 69.918H1670.81V71.9072H1665.23V140.788H1670.81V142.777H1639.94V140.788H1645.52V75.7372H1645.11L1629.93 142.747H1617.28L1599.47 75.4106H1599.07V140.758H1604.64V142.747H1590.87V140.758H1596.44V71.9072H1590.87V69.918H1618.18L1631.63 123.508L1643.78 69.918Z" fill="#713C3C"/>
<path d="M1675.49 69.918H1705.75C1715.13 69.918 1722.14 71.2243 1726.85 73.8074C1731.53 76.4201 1733.89 80.7845 1733.89 86.96C1733.89 96.4608 1728.32 102.161 1717.21 104.032V104.24C1730.69 105.962 1737.45 112.018 1737.45 122.35C1737.45 129.921 1734.67 135.206 1729.13 138.235C1723.59 141.263 1715.65 142.747 1705.26 142.747H1675.52V140.758H1682.1V71.9072H1675.52V69.918H1675.49ZM1701.79 71.9072V103.972H1704.42C1707.91 103.972 1710.37 102.874 1711.75 100.706C1713.14 98.5094 1713.83 95.1841 1713.83 90.6712V85.7724C1713.83 80.636 1713.22 77.0436 1712.01 74.9949C1710.8 72.9463 1708.46 71.9369 1705.03 71.9369H1701.79V71.9072ZM1701.79 105.932V140.788H1706.56C1710.28 140.788 1712.85 139.481 1714.35 136.839C1715.82 134.197 1716.57 130.307 1716.57 125.171V119.649C1716.57 115.076 1715.68 111.632 1713.83 109.346C1712.01 107.06 1708.78 105.902 1704.1 105.902H1701.76L1701.79 105.932Z" fill="#713C3C"/>
<path d="M1742.59 69.918H1773.45V71.9072H1767.88V140.788H1773.45V142.777H1742.59V140.788H1748.16V71.9072H1742.59V69.918Z" fill="#713C3C"/>
<path d="M1819.69 140.788L1812.3 118.313H1792.26L1784.47 140.788H1792.06V142.777H1776.59V140.788H1781.35L1807.16 69.2949H1815.44L1840.94 140.788H1845.58V142.777H1812.5V140.788H1819.69ZM1802.68 88.7418L1793.19 115.997H1811.49L1802.68 88.7418Z" fill="#713C3C"/>
<path d="M1188.41 356.426H1111.12V390.361H1188.41V356.426Z" fill="#FFCF4C" stroke="#713C3C" stroke-width="4.87" stroke-miterlimit="10"/>
<path d="M1191.88 682.957H1114.59V716.893H1191.88V682.957Z" fill="#FFCF4C" stroke="#713C3C" stroke-width="4.87" stroke-miterlimit="10"/>
<path d="M0.132812 543.485C0.132812 454.989 0.132812 366.38 0.132812 277.884C0.812098 276.636 2.03481 276.069 3.39338 275.615C21.7341 268.808 40.4824 263.135 59.6382 258.143C76.3487 253.718 93.3308 250.314 110.449 247.251C126.072 244.415 141.968 242.372 157.863 240.784C172.943 239.309 188.159 238.288 203.375 238.175C217.912 238.061 232.313 237.607 246.849 237.834C260.299 237.948 273.613 237.948 287.063 238.515C300.377 239.082 313.691 240.217 327.005 241.465C347.52 243.28 367.898 245.663 388.277 248.499C406.889 250.995 425.366 253.718 443.842 256.781C479.029 262.568 514.08 268.921 549.132 275.502C583.232 281.855 617.332 288.209 651.568 293.995C674.935 297.966 698.439 301.596 722.078 304.887C741.505 307.61 761.069 309.992 780.632 311.921C792.995 313.169 805.222 314.19 817.585 314.871C826.959 315.325 836.334 316.005 845.708 316.232C856.033 316.573 866.358 317.027 876.683 317.027C893.937 317.027 911.191 316.346 928.445 315.325C943.661 314.417 958.741 313.055 973.685 311.127C1000.45 307.723 1026.67 302.845 1052.62 296.151C1072.32 291.045 1091.61 285.145 1110.36 278.224C1113.35 277.09 1114.16 277.544 1114.16 280.153C1114.16 367.628 1114.16 455.103 1114.16 542.577C1114.16 542.918 1114.16 543.371 1114.16 543.712C1113.48 545.187 1111.85 545.641 1110.49 546.208C1090.52 553.469 1070.01 559.709 1049.09 565.042C1036.04 568.332 1022.87 571.055 1009.69 573.551C994.335 576.387 978.984 578.656 963.496 580.358C951.269 581.72 939.042 582.854 926.814 583.421C918.12 583.875 909.289 584.329 900.458 584.556C891.899 584.669 883.204 585.01 874.645 585.01C862.011 584.896 849.512 584.556 836.877 583.989C821.118 583.308 805.358 582.287 789.599 580.812C772.481 579.224 755.363 577.295 738.245 575.139C711.209 571.622 684.309 567.651 657.546 563.113C630.102 558.461 602.795 553.582 575.488 548.477C543.29 542.464 510.956 536.451 478.622 530.778C458.107 527.147 437.593 523.744 417.078 520.68C397.107 517.73 377.136 514.894 357.03 512.625C342.357 511.036 327.549 509.448 312.876 508.313C304.996 507.746 296.981 507.179 289.101 506.725C276.602 506.158 264.103 505.704 251.74 505.364C243.589 505.137 235.437 504.91 227.286 505.137C216.282 505.477 205.277 505.59 194.273 506.271C184.491 506.838 174.845 507.406 165.063 508.313C152.021 509.448 138.979 511.036 126.072 512.965C98.6293 517.05 71.7295 522.836 45.3732 530.437C31.5158 534.408 17.7942 538.833 4.34438 543.712C2.98581 543.712 1.62724 544.279 0.132812 543.485Z" fill="#FACF15"/>
<path d="M0.135857 543.485C34.236 530.892 69.423 521.248 105.833 514.667C137.759 508.881 170.093 505.591 202.835 504.343C238.429 502.868 274.024 504.003 309.618 506.612C355.674 510.016 401.05 516.369 446.427 523.744C493.705 531.459 540.711 540.535 587.854 549.158C623.72 555.739 659.722 562.206 695.996 567.652C730.776 572.871 765.691 577.409 800.878 580.132C835.657 582.855 870.573 584.103 905.488 582.968C953.174 581.38 1000.18 575.593 1046.1 564.361C1069.33 558.688 1092.02 551.541 1114.16 543.599C1114.84 544.28 1114.57 545.074 1114.57 545.754C1114.57 589.208 1114.57 632.662 1114.57 676.116C1114.16 677.477 1112.81 677.931 1111.45 678.385C1101.39 682.129 1091.34 685.532 1081.02 688.709C1062.67 694.268 1044.06 699.034 1025.18 703.005C1005.89 706.976 986.323 710.152 966.488 712.421C955.619 713.669 944.615 714.691 933.61 715.371C924.372 715.939 914.998 716.279 905.76 716.733C888.913 717.527 872.067 717.187 855.221 716.96C843.944 716.846 832.668 716.166 821.392 715.371C812.562 714.804 803.731 714.237 794.9 713.443C783.352 712.535 771.94 711.4 760.392 710.152C745.448 708.451 730.504 706.522 715.56 704.366C701.159 702.324 686.622 700.055 672.221 697.786C638.529 692.453 604.972 686.213 571.551 680.087C546.825 675.548 522.235 670.897 497.509 666.472C471.288 661.707 445.068 657.282 418.712 653.311C399.556 650.361 380.4 647.752 361.108 645.482C358.119 645.142 354.995 644.688 352.006 644.575C351.598 644.575 351.055 644.461 350.647 644.234C349.696 643.894 348.745 643.667 347.794 643.667C347.251 643.667 346.707 643.667 346.164 643.554C344.941 643.213 343.719 643.1 342.496 643.1C342.224 643.1 341.952 643.1 341.681 642.986C340.458 642.646 339.235 642.533 338.013 642.646C337.605 642.646 337.197 642.646 336.79 642.533C335.703 642.192 334.752 642.079 333.529 642.192C333.122 642.192 332.714 642.192 332.307 642.079C331.084 641.738 329.861 641.625 328.638 641.738C328.095 641.738 327.552 641.738 327.008 641.625C325.921 641.398 324.834 641.171 323.748 641.284C323.204 641.284 322.661 641.284 322.117 641.171C320.759 640.831 319.4 640.717 318.042 640.717C317.77 640.717 317.498 640.717 317.226 640.604C315.596 640.15 313.966 640.263 312.336 640.15C312.064 640.15 311.792 640.15 311.52 640.036C309.754 639.583 307.852 639.81 306.086 639.696C305.814 639.696 305.543 639.696 305.271 639.583C303.641 639.129 301.875 639.242 300.108 639.242C299.701 639.242 299.157 639.242 298.75 639.129C296.848 638.562 294.946 638.788 293.044 638.788C292.5 638.788 291.821 638.788 291.278 638.675C289.104 638.108 286.794 638.335 284.485 638.335C284.077 638.335 283.534 638.335 283.126 638.221C280.137 637.54 277.013 637.994 274.024 637.881C273.752 637.881 273.345 637.881 273.073 637.767C269.405 637.087 265.601 637.654 261.797 637.427C261.525 637.427 261.117 637.313 260.846 637.313C259.351 636.973 257.721 637.087 256.227 637.087C243.048 637.087 229.734 636.973 216.556 637.2C211.394 637.314 206.095 637.427 200.933 637.881C200.661 637.994 200.253 637.994 199.982 637.994C196.857 638.221 193.732 637.767 190.608 638.335C190.336 638.335 190.064 638.448 189.657 638.448C187.755 638.561 185.717 638.335 183.815 638.788C183.407 638.902 182.864 638.902 182.456 638.902C180.554 638.902 178.652 638.788 176.75 639.242C176.343 639.356 175.935 639.356 175.392 639.356C174.033 639.356 172.539 639.356 171.18 639.696C170.772 639.81 170.365 639.81 169.957 639.81C168.599 639.81 167.104 639.81 165.882 640.15C165.61 640.15 165.338 640.263 165.066 640.263C163.708 640.263 162.349 640.263 160.991 640.604C160.719 640.604 160.447 640.717 160.176 640.717C158.817 640.717 157.458 640.717 156.1 641.058C155.692 641.171 155.285 641.171 154.877 641.171C153.926 641.171 153.111 641.285 152.16 641.511C151.752 641.511 151.345 641.625 150.937 641.625C149.986 641.625 149.171 641.738 148.22 641.965C147.813 641.965 147.405 642.079 146.997 642.079C145.911 642.079 144.96 642.079 143.873 642.419C143.601 642.419 143.329 642.533 143.058 642.533C141.971 642.533 141.02 642.646 139.933 642.873C139.661 642.873 139.389 642.986 139.118 642.986C138.167 642.986 137.216 643.213 136.401 643.44C135.042 643.781 133.683 644.121 132.189 644.348C124.038 645.029 116.022 646.617 108.006 648.092C87.8996 651.495 68.0644 656.147 48.6369 661.593C33.5567 665.791 18.8841 670.556 4.34743 675.889C2.98886 676.342 1.49443 677.137 0 676.116C0.135857 631.868 0.135857 587.733 0.135857 543.485Z" fill="#003791"/>
<path d="M0.132813 676.115C1.21967 676.115 2.17067 675.547 3.12167 675.207C41.841 661.025 81.9188 650.927 123.355 644.574C126.344 644.12 129.197 643.78 132.186 643.439C134.903 644.007 137.349 642.985 139.93 642.759C146.451 642.191 152.972 641.284 159.493 640.603C168.052 639.809 176.611 639.128 185.306 638.447C191.556 637.993 197.805 637.767 203.919 637.54C218.455 636.859 233.128 636.972 247.665 637.086C259.484 637.199 271.304 637.653 283.123 638.334C287.471 638.561 291.818 638.788 296.166 639.014C301.328 639.241 306.355 639.695 311.517 640.149C317.631 640.603 323.745 641.17 329.858 641.624C335.428 642.078 340.863 642.759 346.433 643.212C348.063 643.326 349.829 643.666 351.459 643.439C364.502 644.574 377.544 646.389 390.45 648.205C459.602 657.621 527.802 671.123 596.138 683.603C641.514 691.885 687.026 699.827 732.946 705.84C791.229 713.442 849.919 717.867 909.017 715.711C967.3 713.555 1024.22 704.819 1079.11 688.141C1090.93 684.624 1102.34 680.539 1113.89 676.455C1114.57 677.249 1114.3 678.043 1114.3 678.838C1114.3 721.497 1114.3 764.157 1114.43 806.816C1114.43 809.312 1113.35 810.56 1110.76 811.468C1100.71 815.212 1090.52 818.502 1080.2 821.679C1063.49 826.784 1046.64 831.209 1029.39 834.84C1012.4 838.357 995.286 841.42 978.032 843.689C963.632 845.618 949.231 847.093 934.694 848.001C927.901 848.454 921.108 848.568 914.315 848.568C911.598 848.568 908.881 848.795 906.164 848.795C903.854 848.795 901.545 848.795 899.235 848.795C898.148 848.795 896.926 848.795 895.839 848.795C894.48 848.795 893.258 848.795 891.899 848.795C890.676 848.795 889.589 848.795 888.367 848.795C881.166 848.795 873.83 848.795 866.63 848.795C864.728 848.795 862.962 848.795 861.06 848.795C859.565 848.795 858.071 848.795 856.576 848.795C854.267 848.795 851.957 848.795 849.648 848.795C837.284 848.341 824.786 848.568 812.559 847.66C796.392 846.526 780.36 845.051 764.329 843.349C740.962 840.853 717.594 837.563 694.363 834.159C660.806 829.167 627.521 823.154 594.372 817.14C557.283 810.333 520.194 803.299 482.969 796.718C453.76 791.613 424.551 786.848 395.205 782.763C375.37 780.04 355.535 777.544 335.564 775.616C324.696 774.594 313.827 773.573 302.958 772.893C291.546 772.212 279.999 771.418 268.587 771.077C254.593 770.624 240.6 769.943 226.471 770.283C212.885 770.737 199.164 770.964 185.578 771.872C170.362 772.893 155.282 774.141 140.337 776.069C113.709 779.473 87.489 784.465 61.812 791.046C41.9768 796.151 22.6851 802.164 3.80096 808.972C2.57824 809.426 1.49138 809.766 0.132813 809.085C0.132812 764.837 0.132813 720.476 0.132813 676.115Z" fill="#CC1125"/>
<path d="M866.636 848.682C874.108 848.682 881.58 848.682 889.052 848.682C889.46 848.795 889.46 848.909 889.052 849.022C881.58 849.022 874.244 849.022 866.772 849.022C866.5 848.909 866.5 848.909 866.5 848.795C866.5 848.795 866.5 848.682 866.636 848.682Z" fill="#DB5564"/>
<path d="M849.789 849.135C849.789 849.022 849.789 848.795 849.789 848.682C852.099 848.682 854.544 848.682 856.854 848.795C857.261 848.909 857.261 849.022 856.854 849.135C854.544 849.135 852.234 849.135 849.789 849.135Z" fill="#F8E2E5"/>
<path d="M906.441 848.682C906.441 848.795 906.441 849.022 906.441 849.135C904.131 849.135 901.686 849.135 899.376 849.135C898.968 849.022 898.968 848.909 899.376 848.795C901.686 848.682 903.995 848.682 906.441 848.682Z" fill="#F8DFE1"/>
<path d="M866.631 848.682C866.631 848.795 866.631 848.909 866.631 849.022C864.864 849.022 862.962 849.022 861.196 849.022C860.789 848.909 860.789 848.795 861.196 848.682C862.962 848.682 864.864 848.682 866.631 848.682Z" fill="#E8939C"/>
<path d="M861.199 848.682C861.199 848.795 861.199 848.909 861.199 849.022C859.705 849.022 858.346 849.022 856.852 849.022C856.852 848.909 856.852 848.795 856.852 848.682C858.346 848.682 859.705 848.682 861.199 848.682Z" fill="#F1BFC4"/>
<path d="M892.313 848.682C893.536 848.682 894.895 848.682 896.117 848.682C896.525 848.795 896.525 848.909 896.117 849.022C894.895 849.022 893.536 849.022 892.313 849.022C891.906 848.909 891.906 848.795 892.313 848.682Z" fill="#E99AA3"/>
<path d="M892.307 848.682C892.307 848.795 892.307 848.909 892.307 849.022C891.221 849.022 890.134 849.022 889.047 849.022C889.047 848.909 889.047 848.795 889.047 848.682C890.134 848.682 891.221 848.682 892.307 848.682Z" fill="#E06E7B"/>
<path d="M895.977 849.135C895.977 849.022 895.977 848.908 895.977 848.795C897.063 848.795 898.15 848.795 899.237 848.795C899.237 848.908 899.237 849.022 899.237 849.135C898.286 849.135 897.063 849.135 895.977 849.135Z" fill="#F1BFC4"/>
<path d="M351.599 643.439C348.338 644.574 345.077 643.553 341.953 643.213C332.035 642.191 321.982 641.511 312.064 640.603C301.06 639.582 290.055 639.355 279.187 638.447C275.519 638.107 271.85 638.22 268.046 637.994C251.744 637.313 235.441 637.086 219.138 637.54C207.318 637.88 195.499 638.447 183.679 639.128C167.512 640.149 151.345 641.851 135.314 643.78C134.363 643.893 133.276 644.007 132.461 643.439C133.82 643.212 135.178 643.099 136.673 642.872C137.624 642.418 138.71 642.986 139.526 642.418C139.661 642.305 139.797 642.305 139.933 642.418C141.02 641.964 142.379 642.532 143.33 641.965C143.465 641.851 143.601 641.851 143.737 641.965C144.824 641.511 146.047 642.078 147.134 641.511C147.405 641.511 147.677 641.511 147.949 641.511C148.9 641.057 149.987 641.624 150.938 641.057C151.209 641.057 151.481 641.057 151.753 640.943C152.704 640.49 153.791 641.057 154.742 640.603C155.013 640.603 155.421 640.603 155.693 640.49C157.187 639.922 158.817 640.716 160.176 640.036C160.312 639.922 160.312 639.922 160.448 640.036C161.942 639.468 163.572 640.263 165.067 639.582C165.203 639.468 165.338 639.468 165.474 639.582C166.969 639.015 168.599 639.809 169.958 639.128C170.229 639.128 170.501 639.128 170.773 639.128C172.267 638.561 173.897 639.355 175.392 638.674C175.664 638.674 175.935 638.674 176.207 638.674C178.245 638.107 180.419 638.901 182.456 638.22C182.728 638.22 183 638.22 183.272 638.22C185.309 637.653 187.483 638.447 189.521 637.767C189.657 637.653 189.793 637.653 189.793 637.767C192.238 637.313 194.819 637.653 197.265 637.54C198.08 637.54 199.031 637.767 199.846 637.199C199.982 637.199 200.118 637.086 200.39 637.086C220.496 636.405 240.603 636.632 260.71 636.632C260.982 636.632 261.254 636.746 261.525 636.859C264.378 637.54 267.231 636.972 270.084 637.199C271.307 637.313 272.394 636.972 273.617 637.426C275.926 638.107 278.372 637.54 280.681 637.767C281.632 637.88 282.583 637.653 283.534 637.994C283.806 637.994 284.078 637.994 284.349 637.994C286.795 638.674 289.24 637.88 291.686 638.447C292.093 638.447 292.637 638.447 293.044 638.447C295.082 639.128 297.256 638.334 299.294 638.901C299.565 638.901 299.837 638.901 300.109 638.901C302.011 639.582 303.913 638.788 305.815 639.355C305.951 639.242 306.086 639.242 306.086 639.355C307.988 640.036 310.162 639.242 312.2 639.809C313.966 640.49 316.004 639.695 317.77 640.263C317.906 640.149 318.042 640.149 318.178 640.263C319.672 640.943 321.302 640.149 322.797 640.716C323.204 640.716 323.748 640.717 324.155 640.83C325.242 641.284 326.601 640.83 327.688 641.284C328.095 641.284 328.503 641.284 329.046 641.284C330.405 641.851 331.763 641.17 333.122 641.738C333.394 641.738 333.665 641.738 333.937 641.738C335.024 642.305 336.383 641.738 337.469 642.191C337.741 642.191 338.013 642.191 338.285 642.191C339.507 642.759 341.002 642.078 342.224 642.645C342.36 642.532 342.496 642.532 342.632 642.645C343.855 643.213 345.349 642.532 346.708 643.099C347.251 643.099 347.659 643.213 348.202 643.213C349.153 643.666 350.104 643.099 351.055 643.553C350.919 643.326 351.191 643.439 351.599 643.439Z" fill="#CF1024"/>
<path d="M261.387 636.972C240.873 637.085 220.358 636.745 199.844 637.425C202.833 636.858 205.957 636.972 209.082 636.858C225.792 636.291 242.639 636.404 259.349 636.745C259.893 636.745 260.572 636.858 261.387 636.972Z" fill="#CC1125"/>
<path d="M273.349 637.427C270.224 637.427 267.1 637.427 263.839 637.427C262.888 637.427 262.073 637.54 261.258 636.859C265.334 636.973 269.273 636.859 273.349 637.427Z" fill="#CC1125"/>
<path d="M199.85 637.427C196.59 638.562 193.193 637.768 189.797 637.881C193.057 637.314 196.454 637.427 199.85 637.427Z" fill="#CC1125"/>
<path d="M283.257 637.88C279.86 637.653 276.464 638.561 273.203 637.426C276.6 637.313 279.996 637.313 283.257 637.88Z" fill="#CC1125"/>
<path d="M291.407 638.333C288.961 638.219 286.38 638.9 284.07 637.879C286.516 637.879 289.097 637.879 291.407 638.333Z" fill="#CC1125"/>
<path d="M189.523 637.879C187.485 638.9 185.311 638.219 183.273 638.333C185.311 637.879 187.349 637.879 189.523 637.879Z" fill="#CC1125"/>
<path d="M182.46 638.334C180.422 639.242 178.249 638.674 176.211 638.788C178.249 638.334 180.287 638.334 182.46 638.334Z" fill="#CC1125"/>
<path d="M299.023 638.788C296.985 638.674 294.811 639.242 292.773 638.334C294.947 638.334 296.985 638.334 299.023 638.788Z" fill="#CC1125"/>
<path d="M311.934 639.696C309.896 639.583 307.858 640.15 305.82 639.242C307.858 639.242 309.896 639.242 311.934 639.696Z" fill="#CC1125"/>
<path d="M305.542 639.243C303.64 639.129 301.738 639.697 299.836 638.789C301.738 638.789 303.64 638.789 305.542 639.243Z" fill="#CC1125"/>
<path d="M317.5 640.149C315.598 640.036 313.696 640.603 311.93 639.695C313.696 639.695 315.598 639.695 317.5 640.149Z" fill="#CC1125"/>
<path d="M322.393 640.602C320.898 640.489 319.268 641.056 317.773 640.148C319.404 640.148 320.898 640.148 322.393 640.602Z" fill="#CC1125"/>
<path d="M160.179 640.148C158.82 641.056 157.19 640.489 155.695 640.602C157.054 640.148 158.548 640.148 160.179 640.148Z" fill="#CC1125"/>
<path d="M165.064 639.695C163.57 640.49 162.076 640.036 160.445 640.149C161.94 639.695 163.434 639.695 165.064 639.695Z" fill="#CC1125"/>
<path d="M169.96 639.242C168.601 640.036 166.971 639.583 165.477 639.696C166.835 639.242 168.33 639.242 169.96 639.242Z" fill="#CC1125"/>
<path d="M175.393 638.789C173.898 639.697 172.268 639.129 170.773 639.243C172.132 638.789 173.762 638.789 175.393 638.789Z" fill="#CC1125"/>
<path d="M332.709 641.51C331.35 641.397 329.856 641.851 328.633 641.057C330.127 641.057 331.486 641.057 332.709 641.51Z" fill="#CC1125"/>
<path d="M341.955 642.419C340.597 642.419 339.238 642.759 338.016 641.965C339.374 641.965 340.597 641.965 341.955 642.419Z" fill="#CC1125"/>
<path d="M346.294 642.872C344.936 642.872 343.577 643.212 342.219 642.418C343.713 642.418 345.072 642.418 346.294 642.872Z" fill="#CC1125"/>
<path d="M327.415 641.057C326.192 640.944 324.97 641.398 323.883 640.604C325.106 640.604 326.192 640.604 327.415 641.057Z" fill="#CC1125"/>
<path d="M146.998 641.623C145.911 642.304 144.688 641.963 143.602 642.077C144.688 641.623 145.911 641.509 146.998 641.623Z" fill="#CC1125"/>
<path d="M143.193 641.965C142.106 642.646 140.884 642.419 139.797 642.419C140.884 641.965 142.106 641.965 143.193 641.965Z" fill="#CC1125"/>
<path d="M337.196 641.966C335.974 641.966 334.751 642.306 333.664 641.512C334.887 641.512 335.974 641.512 337.196 641.966Z" fill="#CC1125"/>
<path d="M150.801 641.17C149.85 641.851 148.763 641.51 147.812 641.624C148.763 641.17 149.85 641.056 150.801 641.17Z" fill="#CC1125"/>
<path d="M154.606 640.716C153.655 641.284 152.704 641.057 151.617 641.057C152.704 640.716 153.655 640.603 154.606 640.716Z" fill="#CC1125"/>
<path d="M139.392 642.418C138.577 643.099 137.49 642.872 136.539 642.872C137.49 642.418 138.441 642.418 139.392 642.418Z" fill="#CC1125"/>
<path d="M350.65 643.326C349.699 643.326 348.612 643.553 347.797 642.986C348.748 642.872 349.699 642.986 350.65 643.326Z" fill="#CC1125"/>
</svg>
