<svg width="3412" height="1188" viewBox="0 0 3412 1188" fill="none" xmlns="http://www.w3.org/2000/svg">
<path d="M2502.02 144H1768.63C1749.49 144 1733.98 159.951 1733.98 179.628V329.295C1733.98 348.972 1749.49 364.923 1768.63 364.923H2502.02C2521.15 364.923 2536.66 348.972 2536.66 329.295V179.628C2536.66 159.951 2521.15 144 2502.02 144Z" fill="#713C3C"/>
<path d="M2469.46 169.95H1801.2C1782.06 169.95 1766.55 185.901 1766.55 205.578V303.377C1766.55 323.054 1782.06 339.005 1801.2 339.005H2469.46C2488.59 339.005 2504.11 323.054 2504.11 303.377V205.578C2504.11 185.901 2488.59 169.95 2469.46 169.95Z" fill="#FFCF4C"/>
<path d="M1879.66 364.923H1836.07V416.94H1879.66V364.923Z" fill="#12242A"/>
<path d="M2444.51 364.923H2400.92V416.94H2444.51V364.923Z" fill="#12242A"/>
<path d="M1879.66 364.21H1862.57V416.969H1879.66V364.21Z" fill="#69635C"/>
<path d="M2444.52 364.567H2427.43V417.326H2444.52V364.567Z" fill="#69635C"/>
<path d="M2522.7 451.617H1736.04V914.602H2522.7V451.617Z" fill="#713C3C"/>
<path d="M2570.53 451.617H2522.7V914.602H2594.98C2594.98 914.602 2687.71 787.529 2781.65 914.602H2830.44V760.006C2830.44 748.041 2827.99 736.195 2823.08 725.685C2813.24 704.605 2791.09 675.064 2743.31 668.176C2725.5 665.622 2709.31 654.756 2698.57 638.011L2584.27 459.633C2581.04 454.586 2575.96 451.617 2570.56 451.617H2570.53Z" fill="#713C3C"/>
<path d="M2279.28 574.741H1796.59V744.182H2279.28V574.741Z" fill="#FFCF4C"/>
<path d="M1780.04 545.941V635.13C1780.04 648.579 1790.63 659.476 1803.71 659.476C1816.79 659.476 1827.38 648.579 1827.38 635.13V545.941H1780.01H1780.04Z" fill="#EE7034"/>
<path d="M1827.4 545.941V635.13C1827.4 648.579 1838 659.476 1851.08 659.476C1864.15 659.476 1874.75 648.579 1874.75 635.13V545.941H1827.38H1827.4Z" fill="#F6A21C"/>
<path d="M1874.79 545.941V635.13C1874.79 648.579 1885.38 659.476 1898.46 659.476C1911.54 659.476 1922.13 648.579 1922.13 635.13V545.941H1874.76H1874.79Z" fill="#EE7034"/>
<path d="M1922.15 545.941V635.13C1922.15 648.579 1932.75 659.476 1945.83 659.476C1958.9 659.476 1969.5 648.579 1969.5 635.13V545.941H1922.12H1922.15Z" fill="#F6A21C"/>
<path d="M1969.53 545.941V635.13C1969.53 648.579 1980.12 659.476 1993.2 659.476C2006.28 659.476 2016.87 648.579 2016.87 635.13V545.941H1969.5H1969.53Z" fill="#EE7034"/>
<path d="M2016.9 545.941V635.13C2016.9 648.579 2027.5 659.476 2040.58 659.476C2053.65 659.476 2064.25 648.579 2064.25 635.13V545.941H2016.88H2016.9Z" fill="#F6A21C"/>
<path d="M2064.28 545.941V635.13C2064.28 648.579 2074.87 659.476 2087.95 659.476C2101.03 659.476 2111.62 648.579 2111.62 635.13V545.941H2064.25H2064.28Z" fill="#EE7034"/>
<path d="M2111.63 545.941V635.13C2111.63 648.579 2122.23 659.476 2135.3 659.476C2148.38 659.476 2158.98 648.579 2158.98 635.13V545.941H2111.6H2111.63Z" fill="#F6A21C"/>
<path d="M2159.01 545.941V635.13C2159.01 648.579 2169.6 659.476 2182.68 659.476C2195.76 659.476 2206.35 648.579 2206.35 635.13V545.941H2158.98H2159.01Z" fill="#EE7034"/>
<path d="M2206.38 545.941V635.13C2206.38 648.579 2216.98 659.476 2230.05 659.476C2243.13 659.476 2253.73 648.579 2253.73 635.13V545.941H2206.35H2206.38Z" fill="#F6A21C"/>
<path d="M2253.75 545.941V635.13C2253.75 648.579 2264.34 659.476 2277.42 659.476C2290.5 659.476 2301.09 648.579 2301.09 635.13V545.941H2253.72H2253.75Z" fill="#EE7034"/>
<path d="M2290.39 745.281H1790.81C1784.86 745.281 1780.04 750.239 1780.04 756.356V756.385C1780.04 762.501 1784.86 767.46 1790.81 767.46H2290.39C2296.34 767.46 2301.16 762.501 2301.16 756.385V756.356C2301.16 750.239 2296.34 745.281 2290.39 745.281Z" fill="#EE7034"/>
<path d="M2541.16 451.617H2341.45V924.073H2541.16V451.617Z" fill="#713C3C"/>
<path d="M2606.87 418.037H1733.61C1722.3 418.037 1713.14 427.455 1713.14 439.072C1713.14 450.69 1722.3 460.108 1733.61 460.108H2606.87C2618.18 460.108 2627.34 450.69 2627.34 439.072C2627.34 427.455 2618.18 418.037 2606.87 418.037Z" fill="#FFCF4C" stroke="#713C3C" stroke-width="6.33" stroke-miterlimit="10"/>
<path d="M2839.42 903.053H1731.65C1720.34 903.053 1711.18 912.471 1711.18 924.088C1711.18 935.706 1720.34 945.123 1731.65 945.123H2839.42C2850.72 945.123 2859.89 935.706 2859.89 924.088C2859.89 912.471 2850.72 903.053 2839.42 903.053Z" fill="#FFCF4C" stroke="#713C3C" stroke-width="6.33" stroke-miterlimit="10"/>
<path d="M2450.96 534.363H2404.71C2376.37 534.363 2353.41 557.984 2353.41 587.122V634.686C2353.41 663.824 2376.37 687.445 2404.71 687.445H2450.96C2479.29 687.445 2502.26 663.824 2502.26 634.686V587.122C2502.26 557.984 2479.29 534.363 2450.96 534.363Z" fill="#FFCF4C"/>
<path d="M2494.75 735.274H2494.72C2490.57 735.274 2487.21 738.731 2487.21 742.994V769.715C2487.21 773.978 2490.57 777.434 2494.72 777.434H2494.75C2498.89 777.434 2502.25 773.978 2502.25 769.715V742.994C2502.25 738.731 2498.89 735.274 2494.75 735.274Z" fill="#FFCF4C"/>
<path d="M2553.09 553.662V669.898C2553.09 679.607 2560.74 687.474 2570.18 687.474H2663.69C2674.75 687.474 2680.96 674.322 2674.08 665.415L2580.61 543.864C2571.54 532.077 2553.09 538.668 2553.09 553.692V553.662Z" fill="#FFCF4C"/>
<path d="M1923.49 1057.83C1978.41 1057.83 2022.94 1012.03 2022.94 955.545C2022.94 899.057 1978.41 853.264 1923.49 853.264C1868.56 853.264 1824.03 899.057 1824.03 955.545C1824.03 1012.03 1868.56 1057.83 1923.49 1057.83Z" fill="#373B33"/>
<path d="M1923.49 1009.46C1952.44 1009.46 1975.92 985.322 1975.92 955.545C1975.92 925.767 1952.44 901.628 1923.49 901.628C1894.53 901.628 1871.06 925.767 1871.06 955.545C1871.06 985.322 1894.53 1009.46 1923.49 1009.46Z" fill="white"/>
<path d="M2690.59 1057.83C2745.52 1057.83 2790.05 1012.03 2790.05 955.545C2790.05 899.057 2745.52 853.264 2690.59 853.264C2635.67 853.264 2591.14 899.057 2591.14 955.545C2591.14 1012.03 2635.67 1057.83 2690.59 1057.83Z" fill="#373B33"/>
<path d="M2690.6 1009.46C2719.55 1009.46 2743.02 985.322 2743.02 955.545C2743.02 925.767 2719.55 901.628 2690.6 901.628C2661.64 901.628 2638.17 925.767 2638.17 955.545C2638.17 985.322 2661.64 1009.46 2690.6 1009.46Z" fill="white"/>
<path d="M2813.98 796.198V796.169C2813.98 791.905 2810.62 788.449 2806.48 788.449H2780.5C2776.35 788.449 2772.99 791.905 2772.99 796.169V796.198C2772.99 800.462 2776.35 803.918 2780.5 803.918H2806.48C2810.62 803.918 2813.98 800.462 2813.98 796.198Z" fill="#FFCF4C"/>
<path d="M1911.94 214.87C1901.49 214.87 1896.26 225.232 1896.26 245.985V254.209C1896.26 264.066 1897.65 271.785 1900.42 277.367C1903.19 282.949 1907.26 285.74 1912.66 285.74C1920.08 285.74 1926.89 278.317 1933.1 263.472H1934.92L1934.2 286.69H1933.07C1932.67 285.918 1932.29 285.383 1931.98 285.087C1931.63 284.76 1931.14 284.612 1930.5 284.612C1929.87 284.612 1927.41 285.146 1923.17 286.215C1918.93 287.284 1914.6 287.818 1910.21 287.818C1899.21 287.818 1890.69 284.76 1884.66 278.674C1878.63 272.557 1875.59 263.383 1875.59 251.151C1875.59 238.919 1878.74 229.448 1885.06 222.797C1891.36 216.147 1899.84 212.821 1910.53 212.821C1914.62 212.821 1918.67 213.356 1922.62 214.425C1926.58 215.493 1928.89 216.028 1929.55 216.028C1930.21 216.028 1930.73 215.879 1931.08 215.553C1931.43 215.226 1931.8 214.692 1932.21 213.95H1933.33L1934.14 236.544H1932.32C1929.29 229.537 1926.17 224.163 1922.97 220.452C1919.76 216.74 1916.1 214.87 1912 214.87H1911.94Z" fill="#713C3C"/>
<path d="M1976 287.818C1964.74 287.818 1956.31 284.671 1950.74 278.406C1945.17 272.142 1942.4 263.027 1942.4 251.151C1942.4 239.275 1945.37 229.893 1951.35 223.064C1957.32 216.236 1965.78 212.821 1976.7 212.821C1987.61 212.821 1995.86 216.057 2001.44 222.56C2007.01 229.062 2009.78 238.266 2009.78 250.201C2009.78 262.136 2006.95 271.4 2001.32 277.991C1995.69 284.582 1987.23 287.877 1975.97 287.877L1976 287.818ZM1988.96 254.625V246.935C1988.96 234.228 1988.36 226.211 1987.15 222.886C1985.79 219.056 1983.88 216.711 1981.37 215.82C1979.96 215.256 1978.23 214.989 1976.2 214.989C1974.18 214.989 1972.45 215.256 1970.98 215.82C1969.54 216.384 1968.32 217.334 1967.4 218.73C1966.45 220.125 1965.7 221.58 1965.12 223.094C1964.54 224.608 1964.08 226.776 1963.76 229.537C1963.36 233.575 1963.16 239.483 1963.16 247.321V254.803C1963.16 263.264 1963.47 269.292 1964.11 272.854C1964.74 276.417 1965.55 278.97 1966.48 280.514C1968.55 283.929 1971.82 285.621 1976.2 285.621C1981.55 285.621 1984.98 283.305 1986.57 278.703C1988.16 274.101 1988.94 266.055 1988.94 254.625H1988.96Z" fill="#713C3C"/>
<path d="M2016.08 213.92H2052.51V216.206H2041.77V284.463H2045.41C2051.15 284.463 2055.71 282.652 2059.12 279.06C2062.53 275.467 2065.99 269.915 2069.48 262.404H2071.62L2069.69 286.749H2016.05V284.463H2022.02V216.206H2016.05V213.92H2016.08Z" fill="#713C3C"/>
<path d="M2102.85 279.267C2104.99 282.682 2108.8 284.374 2114.34 284.374C2119.88 284.374 2124.13 282.593 2127.1 279.06C2130.07 275.527 2131.55 270.153 2131.55 262.938V215.909H2124.96V213.92H2139.75V215.909H2134.17V262.225C2134.17 270.836 2132.33 277.249 2128.6 281.465C2124.88 285.71 2118.32 287.818 2108.91 287.818C2099.5 287.818 2092.31 285.799 2087.35 281.791C2082.38 277.783 2079.9 270.865 2079.9 261.068V215.909H2074.33V213.92H2106.2V215.909H2099.62V264.601C2099.62 270.984 2100.69 275.883 2102.79 279.267H2102.85Z" fill="#713C3C"/>
<path d="M2196.78 213.92H2223.81V215.909H2218.23V284.79H2223.81V286.779H2192.94V284.79H2198.52V219.739H2198.11L2182.93 286.749H2170.28L2152.47 219.413H2152.07V284.76H2157.64V286.749H2143.87V284.76H2149.44V215.909H2143.87V213.92H2171.18L2184.63 267.51L2196.78 213.92Z" fill="#713C3C"/>
<path d="M2228.49 213.92H2258.75C2268.13 213.92 2275.14 215.226 2279.85 217.809C2284.53 220.422 2286.89 224.786 2286.89 230.962C2286.89 240.463 2281.32 246.163 2270.21 248.034V248.241C2283.69 249.964 2290.45 256.02 2290.45 266.352C2290.45 273.923 2287.67 279.208 2282.13 282.236C2276.59 285.265 2268.65 286.749 2258.26 286.749H2228.52V284.76H2235.1V215.909H2228.52V213.92H2228.49ZM2254.79 215.909V247.974H2257.42C2260.91 247.974 2263.37 246.876 2264.75 244.708C2266.14 242.511 2266.83 239.186 2266.83 234.673V229.774C2266.83 224.638 2266.22 221.046 2265.01 218.997C2263.8 216.948 2261.46 215.939 2258.03 215.939H2254.79V215.909ZM2254.79 249.934V284.79H2259.56C2263.28 284.79 2265.85 283.483 2267.35 280.841C2268.82 278.199 2269.57 274.309 2269.57 269.173V263.651C2269.57 259.078 2268.68 255.634 2266.83 253.348C2265.01 251.062 2261.78 249.904 2257.1 249.904H2254.76L2254.79 249.934Z" fill="#713C3C"/>
<path d="M2295.59 213.92H2326.45V215.909H2320.88V284.79H2326.45V286.779H2295.59V284.79H2301.16V215.909H2295.59V213.92Z" fill="#713C3C"/>
<path d="M2372.69 284.789L2365.3 262.314H2345.26L2337.47 284.789H2345.06V286.778H2329.59V284.789H2334.35L2360.16 213.296H2368.44L2393.94 284.789H2398.58V286.778H2365.5V284.789H2372.69ZM2355.68 232.743L2346.19 259.998H2364.49L2355.68 232.743Z" fill="#713C3C"/>
<path d="M1741.41 500.427H1664.12V534.362H1741.41V500.427Z" fill="#FFCF4C" stroke="#713C3C" stroke-width="4.87" stroke-miterlimit="10"/>
<path d="M1744.88 826.956H1667.59V860.892H1744.88V826.956Z" fill="#FFCF4C" stroke="#713C3C" stroke-width="4.87" stroke-miterlimit="10"/>
<path d="M553.133 687.486C553.133 598.99 553.133 510.381 553.133 421.885C553.812 420.637 555.035 420.07 556.393 419.616C574.734 412.809 593.482 407.136 612.638 402.144C629.349 397.719 646.331 394.315 663.449 391.252C679.072 388.416 694.968 386.373 710.863 384.785C725.943 383.31 741.159 382.289 756.375 382.176C770.912 382.062 785.313 381.608 799.849 381.835C813.299 381.949 826.613 381.949 840.063 382.516C853.377 383.083 866.691 384.218 880.005 385.466C900.52 387.281 920.898 389.664 941.277 392.5C959.889 394.996 978.366 397.719 996.842 400.782C1032.03 406.569 1067.08 412.922 1102.13 419.503C1136.23 425.856 1170.33 432.21 1204.57 437.996C1227.94 441.967 1251.44 445.597 1275.08 448.888C1294.51 451.611 1314.07 453.993 1333.63 455.922C1346 457.17 1358.22 458.191 1370.59 458.872C1379.96 459.326 1389.33 460.006 1398.71 460.233C1409.03 460.574 1419.36 461.028 1429.68 461.028C1446.94 461.028 1464.19 460.347 1481.44 459.326C1496.66 458.418 1511.74 457.056 1526.69 455.128C1553.45 451.724 1579.67 446.845 1605.62 440.152C1625.32 435.046 1644.61 429.146 1663.36 422.225C1666.35 421.091 1667.16 421.545 1667.16 424.154C1667.16 511.629 1667.16 599.104 1667.16 686.578C1667.16 686.919 1667.16 687.372 1667.16 687.713C1666.48 689.188 1664.85 689.642 1663.49 690.209C1643.52 697.47 1623.01 703.71 1602.09 709.042C1589.04 712.333 1575.87 715.056 1562.69 717.552C1547.34 720.388 1531.98 722.657 1516.5 724.359C1504.27 725.721 1492.04 726.855 1479.81 727.422C1471.12 727.876 1462.29 728.33 1453.46 728.557C1444.9 728.67 1436.2 729.011 1427.65 729.011C1415.01 728.897 1402.51 728.557 1389.88 727.99C1374.12 727.309 1358.36 726.288 1342.6 724.813C1325.48 723.225 1308.36 721.296 1291.24 719.14C1264.21 715.623 1237.31 711.652 1210.55 707.114C1183.1 702.462 1155.8 697.583 1128.49 692.478C1096.29 686.465 1063.96 680.452 1031.62 674.779C1011.11 671.148 990.593 667.744 970.078 664.681C950.107 661.731 930.136 658.895 910.03 656.626C895.357 655.037 880.549 653.449 865.876 652.314C857.996 651.747 849.981 651.18 842.101 650.726C829.602 650.159 817.103 649.705 804.74 649.365C796.589 649.138 788.437 648.911 780.286 649.138C769.282 649.478 758.277 649.591 747.273 650.272C737.491 650.839 727.845 651.407 718.063 652.314C705.021 653.449 691.979 655.037 679.072 656.966C651.629 661.051 624.73 666.837 598.373 674.438C584.516 678.409 570.794 682.834 557.344 687.713C555.986 687.713 554.627 688.28 553.133 687.486Z" fill="#FACF15"/>
<path d="M553.136 687.485C587.236 674.892 622.423 665.248 658.833 658.667C690.759 652.881 723.093 649.591 755.835 648.343C791.429 646.868 827.024 648.003 862.618 650.612C908.674 654.016 954.05 660.369 999.427 667.744C1046.7 675.459 1093.71 684.535 1140.85 693.158C1176.72 699.739 1212.72 706.206 1249 711.652C1283.78 716.871 1318.69 721.409 1353.88 724.132C1388.66 726.855 1423.57 728.103 1458.49 726.968C1506.17 725.38 1553.18 719.593 1599.1 708.361C1622.33 702.688 1645.02 695.541 1667.16 687.599C1667.84 688.28 1667.57 689.074 1667.57 689.754C1667.57 733.208 1667.57 776.662 1667.57 820.116C1667.16 821.477 1665.81 821.931 1664.45 822.385C1654.39 826.129 1644.34 829.532 1634.02 832.709C1615.67 838.268 1597.06 843.034 1578.18 847.005C1558.89 850.976 1539.32 854.152 1519.49 856.421C1508.62 857.669 1497.61 858.691 1486.61 859.371C1477.37 859.939 1468 860.279 1458.76 860.733C1441.91 861.527 1425.07 861.187 1408.22 860.96C1396.94 860.846 1385.67 860.166 1374.39 859.371C1365.56 858.804 1356.73 858.237 1347.9 857.443C1336.35 856.535 1324.94 855.4 1313.39 854.152C1298.45 852.451 1283.5 850.522 1268.56 848.366C1254.16 846.324 1239.62 844.055 1225.22 841.786C1191.53 836.453 1157.97 830.213 1124.55 824.086C1099.82 819.548 1075.23 814.897 1050.51 810.472C1024.29 805.707 998.068 801.282 971.712 797.311C952.556 794.361 933.4 791.752 914.108 789.482C911.119 789.142 907.995 788.688 905.006 788.575C904.598 788.575 904.055 788.461 903.647 788.234C902.696 787.894 901.745 787.667 900.794 787.667C900.251 787.667 899.707 787.667 899.164 787.554C897.941 787.213 896.719 787.1 895.496 787.1C895.224 787.1 894.952 787.1 894.681 786.986C893.458 786.646 892.235 786.533 891.013 786.646C890.605 786.646 890.197 786.646 889.79 786.533C888.703 786.192 887.752 786.079 886.529 786.192C886.122 786.192 885.714 786.192 885.307 786.079C884.084 785.738 882.861 785.625 881.638 785.738C881.095 785.738 880.552 785.738 880.008 785.625C878.921 785.398 877.834 785.171 876.748 785.284C876.204 785.284 875.661 785.284 875.117 785.171C873.759 784.831 872.4 784.717 871.042 784.717C870.77 784.717 870.498 784.717 870.226 784.604C868.596 784.15 866.966 784.263 865.336 784.15C865.064 784.15 864.792 784.15 864.52 784.036C862.754 783.583 860.852 783.81 859.086 783.696C858.814 783.696 858.543 783.696 858.271 783.583C856.641 783.129 854.875 783.242 853.108 783.242C852.701 783.242 852.157 783.242 851.75 783.129C849.848 782.562 847.946 782.788 846.044 782.788C845.5 782.788 844.821 782.788 844.278 782.675C842.104 782.108 839.794 782.335 837.485 782.335C837.077 782.335 836.534 782.335 836.126 782.221C833.137 781.54 830.013 781.994 827.024 781.881C826.752 781.881 826.345 781.881 826.073 781.767C822.405 781.087 818.601 781.654 814.797 781.427C814.525 781.427 814.117 781.313 813.846 781.313C812.351 780.973 810.721 781.087 809.227 781.087C796.048 781.087 782.734 780.973 769.556 781.2C764.394 781.314 759.095 781.427 753.933 781.881C753.661 781.994 753.253 781.994 752.982 781.994C749.857 782.221 746.732 781.767 743.608 782.335C743.336 782.335 743.064 782.448 742.657 782.448C740.755 782.561 738.717 782.335 736.815 782.788C736.407 782.902 735.864 782.902 735.456 782.902C733.554 782.902 731.652 782.788 729.75 783.242C729.343 783.356 728.935 783.356 728.392 783.356C727.033 783.356 725.539 783.356 724.18 783.696C723.772 783.81 723.365 783.81 722.957 783.81C721.599 783.81 720.104 783.81 718.882 784.15C718.61 784.15 718.338 784.263 718.066 784.263C716.708 784.263 715.349 784.263 713.991 784.604C713.719 784.604 713.447 784.717 713.176 784.717C711.817 784.717 710.458 784.717 709.1 785.058C708.692 785.171 708.285 785.171 707.877 785.171C706.926 785.171 706.111 785.285 705.16 785.511C704.752 785.511 704.345 785.625 703.937 785.625C702.986 785.625 702.171 785.738 701.22 785.965C700.813 785.965 700.405 786.079 699.997 786.079C698.911 786.079 697.96 786.079 696.873 786.419C696.601 786.419 696.329 786.533 696.058 786.533C694.971 786.533 694.02 786.646 692.933 786.873C692.661 786.873 692.389 786.986 692.118 786.986C691.167 786.986 690.216 787.213 689.401 787.44C688.042 787.78 686.683 788.121 685.189 788.348C677.038 789.029 669.022 790.617 661.006 792.092C640.9 795.495 621.064 800.147 601.637 805.593C586.557 809.791 571.884 814.556 557.347 819.889C555.989 820.342 554.494 821.137 553 820.116C553.136 775.868 553.136 731.733 553.136 687.485Z" fill="#003791"/>
<path d="M553.133 820.117C554.22 820.117 555.171 819.549 556.122 819.209C594.841 805.027 634.919 794.929 676.355 788.576C679.344 788.122 682.197 787.782 685.186 787.441C687.903 788.009 690.349 786.987 692.93 786.761C699.451 786.193 705.972 785.286 712.493 784.605C721.052 783.811 729.611 783.13 738.306 782.449C744.556 781.995 750.805 781.768 756.919 781.542C771.455 780.861 786.128 780.974 800.665 781.088C812.484 781.201 824.304 781.655 836.123 782.336C840.471 782.563 844.818 782.789 849.166 783.016C854.328 783.243 859.355 783.697 864.517 784.151C870.631 784.605 876.745 785.172 882.858 785.626C888.428 786.08 893.863 786.761 899.433 787.214C901.063 787.328 902.829 787.668 904.459 787.441C917.502 788.576 930.544 790.391 943.45 792.206C1012.6 801.623 1080.8 815.125 1149.14 827.605C1194.51 835.887 1240.03 843.829 1285.95 849.842C1344.23 857.444 1402.92 861.868 1462.02 859.713C1520.3 857.557 1577.22 848.821 1632.11 832.143C1643.93 828.626 1655.34 824.541 1666.89 820.457C1667.57 821.251 1667.3 822.045 1667.3 822.84C1667.3 865.499 1667.3 908.158 1667.43 950.818C1667.43 953.314 1666.35 954.562 1663.76 955.47C1653.71 959.214 1643.52 962.504 1633.2 965.681C1616.49 970.786 1599.64 975.211 1582.39 978.842C1565.4 982.359 1548.29 985.422 1531.03 987.691C1516.63 989.62 1502.23 991.095 1487.69 992.003C1480.9 992.456 1474.11 992.57 1467.32 992.57C1464.6 992.57 1461.88 992.797 1459.16 992.797C1456.85 992.797 1454.54 992.797 1452.24 992.797C1451.15 992.797 1449.93 992.797 1448.84 992.797C1447.48 992.797 1446.26 992.797 1444.9 992.797C1443.68 992.797 1442.59 992.797 1441.37 992.797C1434.17 992.797 1426.83 992.797 1419.63 992.797C1417.73 992.797 1415.96 992.797 1414.06 992.797C1412.57 992.797 1411.07 992.797 1409.58 992.797C1407.27 992.797 1404.96 992.797 1402.65 992.797C1390.28 992.343 1377.79 992.57 1365.56 991.662C1349.39 990.528 1333.36 989.053 1317.33 987.351C1293.96 984.855 1270.59 981.565 1247.36 978.161C1213.81 973.169 1180.52 967.156 1147.37 961.142C1110.28 954.335 1073.19 947.301 1035.97 940.72C1006.76 935.615 977.551 930.85 948.205 926.765C928.37 924.042 908.535 921.546 888.564 919.618C877.696 918.596 866.827 917.575 855.958 916.895C844.546 916.214 832.999 915.42 821.587 915.079C807.593 914.625 793.6 913.945 779.471 914.285C765.885 914.739 752.164 914.966 738.578 915.874C723.362 916.895 708.282 918.143 693.337 920.071C666.709 923.475 640.489 928.467 614.812 935.048C594.977 940.153 575.685 946.166 556.801 952.974C555.578 953.427 554.491 953.768 553.133 953.087C553.133 908.839 553.133 864.478 553.133 820.117Z" fill="#CC1125"/>
<path d="M1419.64 992.683C1427.11 992.683 1434.58 992.683 1442.05 992.683C1442.46 992.796 1442.46 992.91 1442.05 993.023C1434.58 993.023 1427.24 993.023 1419.77 993.023C1419.5 992.91 1419.5 992.91 1419.5 992.796C1419.5 992.796 1419.5 992.683 1419.64 992.683Z" fill="#DB5564"/>
<path d="M1402.79 993.136C1402.79 993.023 1402.79 992.796 1402.79 992.683C1405.1 992.683 1407.54 992.683 1409.85 992.796C1410.26 992.91 1410.26 993.023 1409.85 993.136C1407.54 993.136 1405.23 993.136 1402.79 993.136Z" fill="#F8E2E5"/>
<path d="M1459.44 992.683C1459.44 992.796 1459.44 993.023 1459.44 993.136C1457.13 993.136 1454.69 993.136 1452.38 993.136C1451.97 993.023 1451.97 992.91 1452.38 992.796C1454.69 992.683 1457 992.683 1459.44 992.683Z" fill="#F8DFE1"/>
<path d="M1419.63 992.683C1419.63 992.796 1419.63 992.91 1419.63 993.023C1417.86 993.023 1415.96 993.023 1414.2 993.023C1413.79 992.91 1413.79 992.796 1414.2 992.683C1415.96 992.683 1417.86 992.683 1419.63 992.683Z" fill="#E8939C"/>
<path d="M1414.2 992.683C1414.2 992.796 1414.2 992.91 1414.2 993.023C1412.7 993.023 1411.35 993.023 1409.85 993.023C1409.85 992.91 1409.85 992.796 1409.85 992.683C1411.35 992.683 1412.7 992.683 1414.2 992.683Z" fill="#F1BFC4"/>
<path d="M1445.31 992.683C1446.54 992.683 1447.89 992.683 1449.12 992.683C1449.53 992.796 1449.53 992.91 1449.12 993.023C1447.89 993.023 1446.54 993.023 1445.31 993.023C1444.91 992.91 1444.91 992.796 1445.31 992.683Z" fill="#E99AA3"/>
<path d="M1445.31 992.683C1445.31 992.796 1445.31 992.91 1445.31 993.023C1444.22 993.023 1443.13 993.023 1442.05 993.023C1442.05 992.91 1442.05 992.796 1442.05 992.683C1443.13 992.683 1444.22 992.683 1445.31 992.683Z" fill="#E06E7B"/>
<path d="M1448.98 993.136C1448.98 993.023 1448.98 992.909 1448.98 992.796C1450.06 992.796 1451.15 992.796 1452.24 992.796C1452.24 992.909 1452.24 993.023 1452.24 993.136C1451.29 993.136 1450.06 993.136 1448.98 993.136Z" fill="#F1BFC4"/>
<path d="M904.599 787.44C901.338 788.575 898.077 787.554 894.953 787.213C885.035 786.192 874.982 785.512 865.064 784.604C854.06 783.583 843.055 783.356 832.187 782.448C828.519 782.108 824.85 782.221 821.046 781.995C804.744 781.314 788.441 781.087 772.138 781.541C760.318 781.881 748.499 782.448 736.679 783.129C720.512 784.15 704.345 785.852 688.314 787.781C687.363 787.894 686.276 788.008 685.461 787.44C686.82 787.213 688.178 787.1 689.673 786.873C690.624 786.419 691.71 786.986 692.526 786.419C692.661 786.306 692.797 786.306 692.933 786.419C694.02 785.965 695.379 786.533 696.33 785.965C696.465 785.852 696.601 785.852 696.737 785.965C697.824 785.512 699.047 786.079 700.134 785.512C700.405 785.512 700.677 785.512 700.949 785.512C701.9 785.058 702.987 785.625 703.938 785.058C704.209 785.058 704.481 785.058 704.753 784.944C705.704 784.491 706.791 785.058 707.742 784.604C708.013 784.604 708.421 784.604 708.693 784.491C710.187 783.923 711.817 784.717 713.176 784.037C713.312 783.923 713.312 783.923 713.448 784.037C714.942 783.469 716.572 784.264 718.067 783.583C718.203 783.469 718.338 783.469 718.474 783.583C719.969 783.016 721.599 783.81 722.958 783.129C723.229 783.129 723.501 783.129 723.773 783.129C725.267 782.562 726.897 783.356 728.392 782.675C728.664 782.675 728.935 782.675 729.207 782.675C731.245 782.108 733.419 782.902 735.456 782.221C735.728 782.221 736 782.221 736.272 782.221C738.309 781.654 740.483 782.448 742.521 781.768C742.657 781.654 742.793 781.654 742.793 781.768C745.238 781.314 747.819 781.654 750.265 781.541C751.08 781.541 752.031 781.768 752.846 781.2C752.982 781.2 753.118 781.087 753.39 781.087C773.496 780.406 793.603 780.633 813.71 780.633C813.982 780.633 814.254 780.747 814.525 780.86C817.378 781.541 820.231 780.973 823.084 781.2C824.307 781.314 825.394 780.973 826.617 781.427C828.926 782.108 831.372 781.541 833.681 781.768C834.632 781.881 835.583 781.654 836.534 781.995C836.806 781.995 837.078 781.995 837.349 781.995C839.795 782.675 842.24 781.881 844.686 782.448C845.093 782.448 845.637 782.448 846.044 782.448C848.082 783.129 850.256 782.335 852.294 782.902C852.565 782.902 852.837 782.902 853.109 782.902C855.011 783.583 856.913 782.789 858.815 783.356C858.951 783.242 859.086 783.242 859.086 783.356C860.988 784.037 863.162 783.243 865.2 783.81C866.966 784.491 869.004 783.696 870.77 784.264C870.906 784.15 871.042 784.15 871.178 784.264C872.672 784.944 874.302 784.15 875.797 784.717C876.204 784.717 876.748 784.717 877.155 784.831C878.242 785.285 879.601 784.831 880.688 785.285C881.095 785.285 881.503 785.285 882.046 785.285C883.405 785.852 884.763 785.171 886.122 785.739C886.394 785.739 886.665 785.739 886.937 785.739C888.024 786.306 889.383 785.739 890.469 786.192C890.741 786.192 891.013 786.192 891.285 786.192C892.507 786.76 894.002 786.079 895.224 786.646C895.36 786.533 895.496 786.533 895.632 786.646C896.855 787.213 898.349 786.533 899.708 787.1C900.251 787.1 900.659 787.213 901.202 787.213C902.153 787.667 903.104 787.1 904.055 787.554C903.919 787.327 904.191 787.44 904.599 787.44Z" fill="#CF1024"/>
<path d="M814.387 780.973C793.873 781.087 773.358 780.747 752.844 781.427C755.833 780.86 758.957 780.973 762.082 780.86C778.792 780.293 795.639 780.406 812.349 780.746C812.893 780.746 813.572 780.86 814.387 780.973Z" fill="#CC1125"/>
<path d="M826.349 781.428C823.224 781.428 820.1 781.428 816.839 781.428C815.888 781.428 815.073 781.541 814.258 780.86C818.334 780.974 822.273 780.86 826.349 781.428Z" fill="#CC1125"/>
<path d="M752.85 781.427C749.59 782.562 746.193 781.768 742.797 781.881C746.057 781.314 749.454 781.427 752.85 781.427Z" fill="#CC1125"/>
<path d="M836.257 781.881C832.86 781.654 829.464 782.562 826.203 781.427C829.6 781.314 832.996 781.314 836.257 781.881Z" fill="#CC1125"/>
<path d="M844.407 782.335C841.961 782.221 839.38 782.902 837.07 781.881C839.516 781.881 842.097 781.881 844.407 782.335Z" fill="#CC1125"/>
<path d="M742.523 781.881C740.485 782.902 738.311 782.221 736.273 782.335C738.311 781.881 740.349 781.881 742.523 781.881Z" fill="#CC1125"/>
<path d="M735.46 782.335C733.422 783.243 731.249 782.675 729.211 782.789C731.249 782.335 733.287 782.335 735.46 782.335Z" fill="#CC1125"/>
<path d="M852.023 782.789C849.985 782.675 847.811 783.243 845.773 782.335C847.947 782.335 849.985 782.335 852.023 782.789Z" fill="#CC1125"/>
<path d="M864.934 783.697C862.896 783.584 860.858 784.151 858.82 783.243C860.858 783.243 862.896 783.243 864.934 783.697Z" fill="#CC1125"/>
<path d="M858.542 783.243C856.64 783.129 854.738 783.697 852.836 782.789C854.738 782.789 856.64 782.789 858.542 783.243Z" fill="#CC1125"/>
<path d="M870.5 784.151C868.598 784.038 866.696 784.605 864.93 783.697C866.696 783.697 868.598 783.697 870.5 784.151Z" fill="#CC1125"/>
<path d="M875.393 784.604C873.898 784.491 872.268 785.058 870.773 784.15C872.404 784.15 873.898 784.15 875.393 784.604Z" fill="#CC1125"/>
<path d="M713.179 784.15C711.82 785.058 710.19 784.491 708.695 784.604C710.054 784.15 711.548 784.15 713.179 784.15Z" fill="#CC1125"/>
<path d="M718.064 783.697C716.57 784.491 715.076 784.038 713.445 784.151C714.94 783.697 716.434 783.697 718.064 783.697Z" fill="#CC1125"/>
<path d="M722.96 783.243C721.601 784.037 719.971 783.584 718.477 783.697C719.835 783.243 721.33 783.243 722.96 783.243Z" fill="#CC1125"/>
<path d="M728.393 782.789C726.898 783.697 725.268 783.129 723.773 783.243C725.132 782.789 726.762 782.789 728.393 782.789Z" fill="#CC1125"/>
<path d="M885.709 785.511C884.35 785.398 882.856 785.852 881.633 785.058C883.127 785.058 884.486 785.058 885.709 785.511Z" fill="#CC1125"/>
<path d="M894.955 786.42C893.597 786.42 892.238 786.76 891.016 785.966C892.374 785.966 893.597 785.966 894.955 786.42Z" fill="#CC1125"/>
<path d="M899.294 786.873C897.936 786.873 896.577 787.213 895.219 786.419C896.713 786.419 898.072 786.419 899.294 786.873Z" fill="#CC1125"/>
<path d="M880.415 785.058C879.192 784.945 877.97 785.399 876.883 784.604C878.106 784.604 879.192 784.605 880.415 785.058Z" fill="#CC1125"/>
<path d="M699.998 785.625C698.911 786.306 697.688 785.965 696.602 786.079C697.688 785.625 698.911 785.511 699.998 785.625Z" fill="#CC1125"/>
<path d="M696.193 785.966C695.106 786.647 693.884 786.42 692.797 786.42C693.884 785.966 695.106 785.966 696.193 785.966Z" fill="#CC1125"/>
<path d="M890.196 785.966C888.974 785.966 887.751 786.306 886.664 785.512C887.887 785.512 888.974 785.512 890.196 785.966Z" fill="#CC1125"/>
<path d="M703.801 785.172C702.85 785.853 701.763 785.512 700.812 785.626C701.763 785.172 702.85 785.058 703.801 785.172Z" fill="#CC1125"/>
<path d="M707.606 784.717C706.655 785.285 705.704 785.058 704.617 785.058C705.704 784.717 706.655 784.604 707.606 784.717Z" fill="#CC1125"/>
<path d="M692.392 786.419C691.577 787.1 690.49 786.873 689.539 786.873C690.49 786.419 691.441 786.419 692.392 786.419Z" fill="#CC1125"/>
<path d="M903.65 787.327C902.699 787.327 901.612 787.554 900.797 786.987C901.748 786.873 902.699 786.987 903.65 787.327Z" fill="#CC1125"/>
</svg>
