<svg width="10806" height="16933" viewBox="0 0 10806 16933" fill="none" xmlns="http://www.w3.org/2000/svg">
<g clip-path="url(#clip0_465_653)">
<rect width="10806" height="16933" fill="white"/>
<rect y="4656" width="10806" height="12277" fill="#007956"/>
<path d="M0 0V8439.9C0 8439.9 211.494 8252.44 532.679 8316.95C729.355 8356.35 872.724 8473.59 903.707 8613.68C924.299 8706.88 927.57 8837.22 872.339 9004.33C872.339 9004.33 675.279 9495.44 1221.24 9479.85C1221.24 9479.85 1716.58 9491.51 1587.07 8996.48C1587.07 8996.48 1305.72 8254.7 1904.98 8227.44C1918.65 8226.84 1932.12 8225.89 1945.59 8224.46C2028.53 8216.01 2362.22 8201.25 2391.86 8501.32C2391.86 8501.32 2397.83 8591.07 2529.84 8579.4C2529.84 8579.4 2667.63 8579.4 2729.4 8489.66C2729.4 8489.66 2768.85 8072.58 3055.79 8099.84C3055.79 8099.84 3562.29 8095.91 3213.4 8622.14C3213.4 8622.14 3005.17 8933.99 3331.55 9019.69C3331.55 9019.69 3798.61 9008.02 3691.81 8633.8C3691.81 8633.8 3534.2 8138.76 3978.93 8127.1C3978.93 8127.1 4609.37 8166.02 4372.86 8688.43C4372.86 8688.43 3945.06 9401.77 4496.6 9432.95C4496.6 9432.95 5082.01 9487.47 4811.82 8700.1C4811.82 8700.1 4827.6 8265.29 5150.32 8258.86C5173.99 8258.39 5197.47 8257.08 5220.76 8255.05C5320.25 8246.36 5598.14 8244.94 5824.83 8458.47C5824.83 8458.47 6117.54 8719.62 6460.85 8489.66C6460.85 8489.66 6911.17 8138.88 7299.52 8501.32C7299.52 8501.32 7603.38 8789.73 7946.7 8493.59C7946.7 8493.59 8080.44 8330.4 8278.28 8287.31C8422.22 8256.01 8600.23 8288.26 8785.17 8493.59C8785.17 8493.59 8920.26 8762.59 8830.2 8910.66C8830.2 8910.66 8650.07 9261.43 9010.32 9265.36C9010.32 9265.36 9471.8 9261.43 9325.54 8887.21C9325.54 8887.21 9058.63 8415.5 9334.4 8264.46C9390.2 8233.99 9461.99 8221.84 9532.61 8227.68C9634.8 8236.13 9796.26 8276.36 9801.84 8445.14C9803.57 8499.18 9858.03 8546.67 9934.43 8557.98C9983.12 8565.24 10036.6 8557.15 10080.1 8510.25C10090.3 8499.18 10098.4 8487.28 10104.7 8474.9C10123.2 8438.83 10168.6 8341.11 10175.8 8236.01C10179.8 8177.69 10224.8 8123.53 10298.9 8095.44C10343.8 8078.3 10399.6 8070.08 10464.2 8086.63C10557.2 8110.32 10615.9 8174.11 10613 8242.67C10608.6 8344.8 10626.8 8514.53 10806.4 8476.8V0H0Z" fill="url(#paint0_radial_465_653)"/>
</g>
<defs>
<radialGradient id="paint0_radial_465_653" cx="0" cy="0" r="1" gradientUnits="userSpaceOnUse" gradientTransform="translate(5403 4740.16) scale(6630.39 4100.98)">
<stop stop-color="white"/>
<stop offset="0.68" stop-color="#FF9008"/>
<stop offset="1" stop-color="#FF8C00"/>
</radialGradient>
<clipPath id="clip0_465_653">
<rect width="10806" height="16933" fill="white"/>
</clipPath>
</defs>
</svg>
