<svg width="3412" height="8605" viewBox="0 0 3412 8605" fill="none" xmlns="http://www.w3.org/2000/svg">
<g clip-path="url(#clip0_416_1130)">
<path d="M3412 0H0V8605H3412V0Z" fill="#FE9B5A"/>
<path d="M3414 0H0V3618.95C0 3618.95 66.8382 3538.57 168.315 3566.2C230.436 3583.11 275.754 3633.36 285.526 3693.46C292.023 3733.4 293.074 3789.31 275.594 3860.93C275.594 3860.93 213.366 4071.53 385.846 4064.84C385.846 4064.84 542.324 4069.86 501.42 3857.59C501.42 3857.59 412.564 3539.55 601.864 3527.85C606.154 3527.59 610.444 3527.18 614.716 3526.59C640.935 3522.99 746.363 3516.62 755.708 3645.32C755.708 3645.32 757.595 3683.82 799.317 3678.78C799.317 3678.78 842.838 3678.75 862.382 3640.3C862.382 3640.3 874.824 3461.46 965.514 3473.17C965.514 3473.17 1125.55 3471.5 1015.3 3697.13C1015.3 3697.13 949.512 3830.85 1052.64 3867.61C1052.64 3867.61 1200.22 3862.59 1166.44 3702.15C1166.44 3702.15 1116.65 3489.88 1257.13 3484.86C1257.13 3484.86 1456.27 3501.57 1381.6 3725.54C1381.6 3725.54 1246.47 4031.41 1420.73 4044.78C1420.73 4044.78 1605.65 4068.18 1520.3 3730.56C1520.3 3730.56 1525.3 3544.13 1627.27 3541.36C1634.72 3541.16 1642.16 3540.6 1649.54 3539.72C1680.98 3536.01 1768.75 3535.38 1840.36 3626.94C1840.36 3626.94 1932.83 3738.92 2041.28 3640.32C2041.28 3640.32 2183.54 3489.89 2306.21 3645.33C2306.21 3645.33 2402.22 3769.02 2510.7 3641.99C2510.7 3641.99 2636.95 3433.06 2775.63 3641.99C2775.63 3641.99 2818.29 3757.31 2789.85 3820.83C2789.85 3820.83 2732.94 3971.26 2846.76 3972.93C2846.76 3972.93 2992.55 3971.26 2946.33 3810.8C2946.33 3810.8 2861.97 3608.55 2949.14 3543.78C2966.74 3530.69 2989.46 3525.5 3011.74 3528.01C3044.03 3531.66 3095.03 3548.9 3096.77 3621.27C3097.34 3644.45 3114.52 3664.79 3138.66 3669.64C3154.03 3672.75 3170.96 3669.28 3184.67 3649.16C3187.91 3644.42 3190.42 3639.28 3192.43 3633.97C3198.28 3618.48 3212.58 3576.6 3214.84 3531.55C3216.08 3506.52 3230.36 3483.34 3253.73 3471.28C3267.92 3463.96 3285.56 3460.43 3305.94 3467.48C3335.31 3477.67 3353.87 3504.99 3352.91 3534.39C3351.49 3578.2 3357.31 3650.96 3413.98 3634.76V0H3414Z" fill="#713B3B"/>
<ellipse cx="1706" cy="1888.5" rx="78" ry="84.5" fill="#D9D9D9"/>
</g>
<defs>
<clipPath id="clip0_416_1130">
<rect width="3412" height="8605" fill="white"/>
</clipPath>
</defs>
</svg>
