<svg width="3412" height="6975" viewBox="0 0 3412 6975" fill="none" xmlns="http://www.w3.org/2000/svg">
<g clip-path="url(#clip0_507_668)">
<path d="M3412 0H0V8605H3412V0Z" fill="#FE9B5A"/>
<path d="M3414 0H0V5687.93C0 5687.93 66.8382 5561.61 168.315 5605.03C230.436 5631.61 275.754 5710.59 285.526 5805.04C292.023 5867.82 293.074 5955.7 275.594 6068.27C275.594 6068.27 213.366 6399.27 385.846 6388.76C385.846 6388.76 542.324 6396.64 501.42 6063.01C501.42 6063.01 412.564 5563.14 601.864 5544.76C606.154 5544.35 610.444 5543.71 614.716 5542.77C640.935 5537.12 746.363 5527.1 755.708 5729.39C755.708 5729.39 757.595 5789.89 799.317 5781.97C799.317 5781.97 842.838 5781.93 862.382 5721.5C862.382 5721.5 874.824 5440.42 965.514 5458.81C965.514 5458.81 1125.55 5456.19 1015.3 5810.82C1015.3 5810.82 949.512 6020.98 1052.64 6078.76C1052.64 6078.76 1200.22 6070.88 1166.44 5818.7C1166.44 5818.7 1116.65 5485.07 1257.13 5477.19C1257.13 5477.19 1456.27 5503.45 1381.6 5855.47C1381.6 5855.47 1246.47 6336.21 1420.73 6357.22C1420.73 6357.22 1605.65 6393.99 1520.3 5863.36C1520.3 5863.36 1525.3 5570.35 1627.27 5565.99C1634.72 5565.67 1642.16 5564.79 1649.54 5563.42C1680.98 5557.59 1768.75 5556.59 1840.36 5700.5C1840.36 5700.5 1932.83 5876.5 2041.28 5721.52C2041.28 5721.52 2183.54 5485.09 2306.21 5729.41C2306.21 5729.41 2402.22 5923.8 2510.7 5724.15C2510.7 5724.15 2636.95 5395.78 2775.63 5724.15C2775.63 5724.15 2818.29 5905.41 2789.85 6005.23C2789.85 6005.23 2732.94 6241.66 2846.76 6244.29C2846.76 6244.29 2992.55 6241.66 2946.33 5989.47C2946.33 5989.47 2861.97 5671.59 2949.14 5569.79C2966.74 5549.22 2989.46 5541.06 3011.74 5545C3044.03 5550.74 3095.03 5577.83 3096.77 5691.58C3097.34 5728.01 3114.52 5759.99 3138.66 5767.61C3154.03 5772.49 3170.96 5767.04 3184.67 5735.42C3187.91 5727.97 3190.42 5719.89 3192.43 5711.55C3198.28 5687.2 3212.58 5621.38 3214.84 5550.58C3216.08 5511.24 3230.36 5474.8 3253.73 5455.85C3267.92 5444.34 3285.56 5438.78 3305.94 5449.87C3335.31 5465.88 3353.87 5508.83 3352.91 5555.04C3351.49 5623.89 3357.31 5738.25 3413.98 5712.78V0H3414Z" fill="#713B3B"/>
</g>
<defs>
<clipPath id="clip0_507_668">
<rect width="3412" height="6975" fill="white"/>
</clipPath>
</defs>
</svg>
