<svg width="2324" height="5362" viewBox="0 0 2324 5362" fill="none" xmlns="http://www.w3.org/2000/svg">
<g clip-path="url(#clip0_368_1089)">
<rect width="2324" height="5362" fill="white"/>
<rect width="2324" height="5362" fill="#007956"/>
<path d="M0 0V2672.58C0 2672.58 45.485 2613.21 114.561 2633.64C156.859 2646.12 187.693 2683.24 194.356 2727.61C198.785 2757.12 199.489 2798.39 187.61 2851.31C187.61 2851.31 145.229 3006.82 262.646 3001.89C262.646 3001.89 369.178 3005.58 341.324 2848.82C341.324 2848.82 280.815 2613.93 409.696 2605.3C412.635 2605.11 415.532 2604.81 418.429 2604.36C436.267 2601.68 508.034 2597.01 514.407 2692.03C514.407 2692.03 515.69 2720.45 544.082 2716.75C544.082 2716.75 573.716 2716.75 587.001 2688.33C587.001 2688.33 595.486 2556.26 657.195 2564.89C657.195 2564.89 766.127 2563.65 691.091 2730.28C691.091 2730.28 646.31 2829.03 716.503 2856.17C716.503 2856.17 816.951 2852.48 793.981 2733.98C793.981 2733.98 760.084 2577.22 855.731 2573.53C855.731 2573.53 991.317 2585.85 940.452 2751.28C940.452 2751.28 848.447 2977.16 967.064 2987.04C967.064 2987.04 1092.97 3004.3 1034.86 2754.97C1034.86 2754.97 1038.25 2617.28 1107.66 2615.25C1112.75 2615.1 1117.8 2614.68 1122.81 2614.04C1144.2 2611.29 1203.97 2610.84 1252.72 2678.46C1252.72 2678.46 1315.67 2761.15 1389.51 2688.33C1389.51 2688.33 1486.35 2577.26 1569.88 2692.03C1569.88 2692.03 1635.23 2783.35 1709.06 2689.58C1709.06 2689.58 1737.83 2637.9 1780.37 2624.26C1811.33 2614.35 1849.61 2624.56 1889.39 2689.58C1889.39 2689.58 1918.44 2774.76 1899.07 2821.65C1899.07 2821.65 1860.33 2932.72 1937.81 2933.97C1937.81 2933.97 2037.06 2932.72 2005.6 2814.22C2005.6 2814.22 1948.2 2664.85 2007.51 2617.02C2019.51 2607.37 2034.95 2603.53 2050.14 2605.37C2072.11 2608.05 2106.84 2620.79 2108.04 2674.24C2108.41 2691.35 2120.12 2706.39 2136.55 2709.97C2147.03 2712.27 2158.53 2709.7 2167.89 2694.85C2170.08 2691.35 2171.82 2687.58 2173.18 2683.66C2177.16 2672.24 2186.92 2641.29 2188.46 2608.01C2189.32 2589.54 2199.01 2572.39 2214.94 2563.5C2224.59 2558.07 2236.59 2555.47 2250.5 2560.71C2270.49 2568.21 2283.11 2588.41 2282.49 2610.12C2281.54 2642.46 2285.47 2696.21 2324.08 2684.26V0H0Z" fill="url(#paint0_radial_368_1089)"/>
</g>
<defs>
<radialGradient id="paint0_radial_368_1089" cx="0" cy="0" r="1" gradientUnits="userSpaceOnUse" gradientTransform="translate(1162 1501.02) scale(1425.97 1298.62)">
<stop stop-color="white"/>
<stop offset="0.68" stop-color="#FF9008"/>
<stop offset="1" stop-color="#FF8C00"/>
</radialGradient>
<clipPath id="clip0_368_1089">
<rect width="2324" height="5362" fill="white"/>
</clipPath>
</defs>
</svg>
