<svg width="3412" height="6389" viewBox="0 0 3412 6389" fill="none" xmlns="http://www.w3.org/2000/svg">
<g clip-path="url(#clip0_507_668)">
<path d="M3412 0H0V8605H3412V0Z" fill="#FE9B5A"/>
<path d="M3414 0H0V5427.09C0 5427.09 66.8382 5306.55 168.315 5347.98C230.436 5373.34 275.754 5448.7 285.526 5538.82C292.023 5598.72 293.074 5682.57 275.594 5789.98C275.594 5789.98 213.366 6105.8 385.846 6095.77C385.846 6095.77 542.324 6103.29 501.42 5784.96C501.42 5784.96 412.564 5308.01 601.864 5290.48C606.154 5290.08 610.444 5289.47 614.716 5288.58C640.935 5283.19 746.363 5273.63 755.708 5466.64C755.708 5466.64 757.595 5524.37 799.317 5516.81C799.317 5516.81 842.838 5516.77 862.382 5459.11C862.382 5459.11 874.824 5190.92 965.514 5208.47C965.514 5208.47 1125.55 5205.96 1015.3 5544.33C1015.3 5544.33 949.512 5744.86 1052.64 5799.99C1052.64 5799.99 1200.22 5792.47 1166.44 5551.86C1166.44 5551.86 1116.65 5233.53 1257.13 5226.01C1257.13 5226.01 1456.27 5251.06 1381.6 5586.94C1381.6 5586.94 1246.47 6045.63 1420.73 6065.68C1420.73 6065.68 1605.65 6100.76 1520.3 5594.46C1520.3 5594.46 1525.3 5314.89 1627.27 5310.73C1634.72 5310.43 1642.16 5309.59 1649.54 5308.28C1680.98 5302.71 1768.75 5301.76 1840.36 5439.07C1840.36 5439.07 1932.83 5607 2041.28 5459.13C2041.28 5459.13 2183.54 5233.55 2306.21 5466.66C2306.21 5466.66 2402.22 5652.14 2510.7 5461.64C2510.7 5461.64 2636.95 5148.33 2775.63 5461.64C2775.63 5461.64 2818.29 5634.59 2789.85 5729.83C2789.85 5729.83 2732.94 5955.42 2846.76 5957.93C2846.76 5957.93 2992.55 5955.42 2946.33 5714.79C2946.33 5714.79 2861.97 5411.49 2949.14 5314.36C2966.74 5294.74 2989.46 5286.95 3011.74 5290.71C3044.03 5296.18 3095.03 5322.03 3096.77 5430.56C3097.34 5465.33 3114.52 5495.83 3138.66 5503.11C3154.03 5507.76 3170.96 5502.56 3184.67 5472.39C3187.91 5465.29 3190.42 5457.57 3192.43 5449.62C3198.28 5426.38 3212.58 5363.58 3214.84 5296.03C3216.08 5258.49 3230.36 5223.73 3253.73 5205.64C3267.92 5194.66 3285.56 5189.36 3305.94 5199.94C3335.31 5215.22 3353.87 5256.19 3352.91 5300.28C3351.49 5365.97 3357.31 5475.09 3413.98 5450.79V0H3414Z" fill="#713B3B"/>
<ellipse cx="1707" cy="2508.5" rx="78" ry="84.5" fill="black"/>
</g>
<defs>
<clipPath id="clip0_507_668">
<rect width="3412" height="6389" fill="white"/>
</clipPath>
</defs>
</svg>
