<svg width="202" height="183" viewBox="0 0 202 183" fill="none" xmlns="http://www.w3.org/2000/svg">
<path d="M190.67 0.433594H11.348C5.20578 0.433594 0.226562 4.93317 0.226562 10.4837V172.532C0.226562 178.082 5.20578 182.582 11.348 182.582H190.67C196.812 182.582 201.791 178.082 201.791 172.532V10.4837C201.791 4.93317 196.812 0.433594 190.67 0.433594Z" fill="#3D5A98"/>
<path d="M139.285 182.566V112.031H165.479L169.396 84.5435H139.285V66.9982C139.285 59.0413 141.738 53.6084 154.358 53.6084H170.469V28.9834C162.667 28.2486 154.827 27.8992 146.983 27.9368C123.787 27.9368 107.811 40.711 107.811 64.2741V84.5435H81.6172V112.031H107.811V182.566H139.285Z" fill="white"/>
</svg>
