<svg width="3412" height="1051" viewBox="0 0 3412 1051" fill="none" xmlns="http://www.w3.org/2000/svg">
<rect width="3412" height="1051" fill="#713B3B"/>
<g clip-path="url(#clip0_471_661)">
<path d="M1316.05 334.396C1316.38 349.866 1308.06 370.122 1289.44 367.944C1271.49 365.845 1262.65 347.179 1262.57 330.866C1262.51 315.253 1271.49 297.017 1289.44 297.525C1291.29 297.573 1293.44 298.018 1295.3 298.448C1282.96 286.094 1270.52 274.408 1251.66 274.869C1203.47 276.045 1186.48 332.123 1185.96 371.664C1185.34 417.709 1209.57 477.237 1257.79 489.67C1282.88 496.141 1309.8 481.879 1317.37 456.043C1319.61 456.329 1320.72 456.472 1322.95 456.758C1313.46 493.724 1285.21 525.571 1244.21 511.738C1188.22 492.85 1147.73 423.528 1146.84 366.704C1146.06 315.221 1189.76 268.08 1242.09 268C1279.74 267.937 1315.19 295.331 1316.05 334.396Z" fill="white"/>
<path d="M1426.97 513.551C1419.1 528.258 1402.57 535.126 1386.54 534.761C1356.42 534.077 1335.46 509.258 1335.73 479.78C1336.16 430.81 1386.19 424.816 1424.86 423.703C1425.72 423.703 1426.13 423.703 1426.99 423.703V421.604C1427.29 399.154 1423.41 357.339 1392.4 356.782C1376.84 356.496 1367.14 365.129 1362.88 373.254C1363.94 372.952 1365.28 373.016 1366.33 373.063C1375.9 373.509 1382.29 382.508 1382.29 395.784C1382.29 409.06 1375.9 416.898 1366.33 416.342C1356.48 415.769 1350.44 406.532 1350.09 392.286C1349.41 364.017 1379.13 347.02 1404.36 347.767C1445.17 348.992 1466.87 385.449 1465.82 423.465V508.988C1465.82 516.794 1470.34 521.278 1476.73 520.578C1476.84 520.578 1476.89 520.562 1477 520.546C1477 523.106 1477 524.378 1477 526.906C1461.67 528.687 1454.02 529.387 1438.69 530.372C1431.78 530.817 1426.99 525.38 1426.99 517.398V513.567L1426.97 513.551ZM1426.97 431.033C1420.38 431.033 1417.08 431.033 1410.48 430.921C1383.96 429.745 1374.02 456.837 1374.56 478.826C1374.99 496.109 1379.92 524.649 1401.17 524.951C1417.89 525.173 1427.36 506.444 1426.97 490.862V431.049V431.033Z" fill="white"/>
<path d="M1585.53 361.409C1588.72 360.932 1591.9 361.107 1594.3 362.029C1590.04 349.326 1580.98 347.783 1575.41 348.753C1544.79 354.048 1540.8 407.152 1540.3 432.209V498.685C1540.3 505.712 1544.56 509.56 1550.94 507.986C1551.05 507.954 1551.1 507.954 1551.21 507.922V513.901C1531.14 519.147 1510.84 522.518 1490.29 525.253V518.988C1490.4 518.988 1490.45 518.973 1490.56 518.957C1496.96 518.162 1501.47 512.501 1501.47 505.251C1501.47 461.448 1501.47 417.645 1501.47 373.843C1501.47 365.241 1496.96 359.151 1490.56 359.263C1490.45 359.263 1490.4 359.263 1490.29 359.263V351.917C1506.86 351.663 1523.86 351.917 1540.3 349.564V387.659C1544.85 368.945 1554.63 344.603 1575.16 341.614C1593.95 338.88 1605.47 359.104 1605.23 376.243C1604.99 393.399 1596.97 406.468 1585.02 408.964C1573.84 411.302 1565.86 403.304 1565.86 388.438C1565.86 373.572 1573.57 363.222 1585.54 361.409H1585.53Z" fill="white"/>
<path d="M1678.09 471.513V477.221C1657.84 483.628 1637.54 489.908 1617.17 495.902V490.035C1617.28 490.004 1617.33 489.988 1617.44 489.956C1623.83 488.096 1628.35 482.006 1628.35 475.249C1628.35 436.009 1628.35 396.769 1628.35 357.514C1628.35 350.073 1623.83 345.398 1617.44 346.321C1617.33 346.321 1617.28 346.336 1617.17 346.352V339.961C1633.85 337.751 1650.51 335.493 1667.18 333.172V359.406C1676.37 339.69 1697.23 326.351 1717.73 323.187C1742.25 319.403 1762.19 334.825 1761.36 360.344V434.594C1761.36 440.779 1765.88 443.784 1772.27 441.797C1772.38 441.765 1772.43 441.749 1772.54 441.717V447.139C1752.2 453.499 1731.91 459.986 1711.62 466.488V460.892C1711.73 460.86 1711.78 460.844 1711.89 460.812C1718.27 458.793 1722.53 452.926 1722.53 446.566V381.267C1723.26 364.366 1717.22 335.89 1696.2 339.372C1676.5 342.648 1667.57 366.099 1667.19 385.306V463.627C1667.19 470.225 1671.45 473.548 1677.83 471.56C1677.94 471.529 1677.99 471.513 1678.1 471.481L1678.09 471.513Z" fill="white"/>
<path d="M1877.06 403.67C1868.09 417.757 1851.47 425.786 1836.62 430.524C1816.08 437.091 1786.02 432.496 1785.82 405.896C1785.47 363.89 1843.43 350.979 1874.93 343.888C1875.79 343.713 1876.2 343.634 1877.06 343.475V342.235C1879.39 320.373 1862.27 309.243 1842.47 311.962C1826.83 314.124 1817.21 320.707 1812.94 326.431C1814.01 326.033 1815.34 325.826 1816.39 325.651C1825.97 324.093 1832.36 328.084 1832.36 336.034C1832.36 343.984 1825.97 350.439 1816.39 352.474C1806.55 354.573 1799.62 349.755 1800.16 340.994C1801.62 317.765 1834.16 307.129 1854.43 305.523C1877.17 303.726 1916.67 303.774 1915.87 337.417C1915.87 356.147 1915.87 374.876 1915.87 393.622C1915.87 399.504 1920.39 402.684 1926.78 401.762C1926.89 401.762 1926.94 401.746 1927.05 401.73V406.754C1911.72 409.076 1904.07 410.554 1888.74 414.259C1881.83 415.928 1877.04 412.669 1877.04 406.58V403.67H1877.06ZM1877.06 347.847C1870.46 349.183 1867.17 349.866 1860.57 351.25C1839.23 354.223 1825.43 371.808 1824.66 392.35C1824.09 407.39 1834.03 423.878 1851.27 418.711C1865.66 414.402 1877.07 401.269 1877.07 387.055V347.847H1877.06Z" fill="white"/>
<path d="M2015.67 363.747C2027.93 345.574 2040.54 327.782 2054.24 310.674C2056.9 307.097 2054.77 304.553 2048.12 304.346C2048.01 304.346 2047.96 304.346 2047.85 304.346V301.103C2059.13 301.421 2064.77 301.628 2076.05 302.12V305.443C2075.93 305.443 2075.89 305.443 2075.77 305.443C2069.4 305.141 2063.01 307.351 2060.35 310.945C2038.22 339.182 2018.32 368.23 1999.96 399.059C1997.3 399.202 1995.97 399.298 1993.31 399.473C1975.34 368.978 1956.6 339.246 1936.11 310.372C1933.46 306.652 1927.34 304.283 1920.69 304.458C1920.58 304.458 1920.53 304.458 1920.42 304.458V301.087C1942.05 300.562 1963.69 300.26 1985.33 300.26V303.488C1985.22 303.488 1985.17 303.488 1985.06 303.488C1978.67 303.488 1976.28 305.952 1978.94 309.625C1991.93 327.194 2003.89 345.383 2015.65 363.778L2015.67 363.747Z" fill="white"/>
<path d="M2163.3 401.714C2156.38 408.503 2142.16 409.791 2122.86 407.025C2102.89 404.163 2072.45 391.984 2072.06 369.359C2071.42 334.348 2140.1 343.506 2161.17 346.289C2162.02 346.432 2162.44 346.511 2163.3 346.654V345.462C2165.03 323.727 2149.26 309.338 2128.71 307.717C2113.03 306.477 2103.44 310.213 2099.18 313.917C2100.25 313.822 2101.58 313.917 2102.63 313.997C2112.21 314.697 2118.6 319.498 2118.6 326.24C2118.6 332.981 2112.21 336.542 2102.63 335.636C2092.79 334.714 2085.7 329.022 2086.41 322.646C2088.53 303.392 2125.45 303.615 2140.68 304.203C2169.05 305.3 2202.33 320.961 2202.14 354.556C2202.14 373.493 2202.14 392.429 2202.14 411.365C2202.14 416.93 2206.66 422.065 2213.05 424.45C2213.16 424.482 2213.21 424.514 2213.32 424.546V429.347C2197.99 423.512 2190.34 420.984 2175.02 416.628C2168.1 414.656 2163.31 409.584 2163.31 404.274V401.73L2163.3 401.714ZM2163.3 350.836C2156.7 349.659 2153.41 349.103 2146.81 348.085C2130.36 344.333 2110.52 351.408 2110.9 370.837C2111.2 386.403 2121.75 400.251 2137.5 403.193C2152.29 405.943 2163.31 399.727 2163.31 387.007V350.852L2163.3 350.836Z" fill="white"/>
<path d="M2286.99 459.239V464.819C2267.07 453.594 2247.03 443.546 2226.07 434.404V429.491C2226.19 429.539 2226.23 429.554 2226.34 429.602C2232.74 432.194 2237.25 430.143 2237.25 424.435V284.186C2237.25 278.78 2232.74 274.853 2226.34 274.71C2226.23 274.71 2226.19 274.71 2226.07 274.71V270.163C2242.74 270.274 2259.42 270.417 2276.08 270.56C2276.08 327.893 2276.08 385.211 2276.08 442.544C2276.08 448.761 2280.35 455.439 2286.72 459.096C2286.83 459.159 2286.88 459.191 2286.99 459.255V459.239Z" fill="white"/>
<path d="M1357.55 723.996C1338.66 723.948 1319.77 723.885 1300.89 723.821V720.339C1301 720.339 1301.05 720.339 1301.16 720.339C1307.56 720.418 1312.07 717.716 1312.07 713.741C1312.07 676.345 1312.07 638.95 1312.07 601.554C1312.07 596.641 1307.56 592.38 1301.16 591.204C1301.05 591.188 1301 591.172 1300.89 591.156V586.752C1319.62 590.266 1338.55 592.682 1357.55 594.05C1400.35 597.277 1458.62 614.703 1458.9 665.915C1459.17 714.854 1395.47 723.837 1357.55 724.012V723.996ZM1350.9 597.882C1350.9 638.87 1350.9 679.859 1350.9 720.832C1352.29 720.832 1352.98 720.848 1354.35 720.864C1387.44 721.436 1420.44 703.978 1420.06 667.203C1419.67 630.03 1391.35 600.807 1354.35 598.168C1352.97 598.056 1352.29 598.009 1350.9 597.882Z" fill="white"/>
<path d="M1605.48 692.865C1595.73 717.27 1568.54 725.856 1544.56 725.459C1520 725.061 1474.71 718.511 1475.14 684.661C1475.58 649.189 1514.97 633.258 1543.24 626.087C1576 617.788 1609.03 634.037 1608.42 671.401V675.836C1577.75 680.32 1545.87 686.934 1514.78 687.316C1519.17 708.828 1540.52 717.986 1560.53 717.143C1576.24 716.491 1593.87 709.591 1599.9 693.437C1602.14 693.215 1603.25 693.087 1605.48 692.865ZM1569.3 677.315C1572.04 659.492 1566.68 625.388 1542.7 631.016C1523.41 635.547 1514.14 657.902 1513.97 677.14C1513.95 679.287 1513.97 681.592 1514.24 683.691C1532.89 682.403 1550.81 679.97 1569.3 677.315Z" fill="white"/>
<path d="M1682.62 717.97V723.042C1662.31 723.185 1642.01 723.328 1621.7 723.471V719.29C1621.81 719.29 1621.86 719.29 1621.97 719.29C1628.36 719.163 1632.88 715.538 1632.88 710.482C1632.88 663.896 1632.88 617.295 1632.88 570.71C1632.88 564.684 1628.36 561.727 1621.97 563.603C1621.86 563.634 1621.81 563.65 1621.7 563.682V558.372C1638.4 553.348 1655.06 548.244 1671.71 543.029V708.574C1671.71 714.234 1675.97 718.113 1682.35 717.986C1682.46 717.986 1682.51 717.986 1682.62 717.986V717.97Z" fill="white"/>
<path d="M1913.79 648.744C1913.73 690.384 1881.84 725.331 1839.58 725.458C1809.38 725.554 1763.84 709.495 1763.76 672.672C1763.73 656.264 1774.48 640.714 1790.89 637.773C1806.12 635.038 1817.16 645.691 1817.22 664.357C1817.29 680.447 1807.71 698.286 1790.35 699.511C1788.52 699.638 1786.63 699.399 1784.5 699.208C1795.74 710.815 1816.55 718.638 1832.12 718.51C1856.5 718.336 1880.46 698.302 1880.54 672.831C1880.73 610.044 1769.96 624.624 1769.34 560.661C1768.99 524.044 1805.57 498.017 1837.72 488.684C1866.02 480.464 1908.42 485.695 1908.21 523.822C1908.11 540.469 1899.08 558.037 1881.61 561.758C1865.74 565.129 1854.78 555.207 1854.73 536.907C1854.68 520.213 1865.13 504.663 1881.61 500.561C1883.72 500.036 1885.6 499.893 1887.46 499.734C1876.79 489.813 1856.62 488.827 1843.82 492.595C1825.84 497.906 1802.86 513.726 1802.59 533.775C1802.26 558.181 1839.64 566.75 1858.18 575.304C1888.9 589.455 1913.84 612.795 1913.77 648.744H1913.79Z" fill="white"/>
<path d="M2005.83 526.859C2056.66 526.159 2080.59 580.678 2080.58 624.322C2080.58 667.775 2057.84 726.174 2005.83 725.459C1953.86 724.743 1930.22 667.728 1930.8 622.891C1931.38 578.977 1955.56 527.542 2005.83 526.859ZM2004.76 717.541C2039.81 717.509 2041.76 643.64 2041.73 619.409C2041.7 596.196 2041.4 533.95 2006.62 533.934C1970.89 533.902 1969.95 597.961 1969.65 622.478C1969.35 646.295 1971.29 717.572 2004.76 717.541Z" fill="white"/>
<path d="M2155.31 714.409V721.897C2135.01 721.802 2114.7 721.722 2094.39 721.675V713.709C2094.51 713.709 2094.55 713.709 2094.66 713.709C2101.06 713.773 2105.57 707.429 2105.57 698.509C2105.57 627.804 2105.57 557.1 2105.57 486.395C2105.57 478.525 2101.06 472.403 2094.66 471.704C2094.55 471.704 2094.51 471.688 2094.39 471.672V464.851C2111.09 466.552 2128.01 469.239 2144.4 472.817C2144.4 548.387 2144.4 623.941 2144.4 699.511C2144.4 708.112 2148.67 714.313 2155.04 714.393C2155.15 714.393 2155.2 714.393 2155.31 714.393V714.409Z" fill="white"/>
<path d="M1092.09 545.795C1043.75 549.134 1041.05 551.837 1037.71 600.171C1034.37 551.837 1031.67 549.134 983.33 545.795C1031.67 542.456 1034.37 539.753 1037.71 491.419C1041.05 539.753 1043.75 542.456 1092.09 545.795Z" fill="#F79E5C"/>
<path d="M1137.41 600.457C1112.94 602.142 1111.57 603.51 1109.89 627.979C1108.2 603.51 1106.84 602.142 1082.36 600.457C1106.84 598.772 1108.2 597.404 1109.89 572.935C1111.57 597.404 1112.94 598.772 1137.41 600.457Z" fill="#F79E5C"/>
<path d="M2378.73 501.118C2354.25 502.803 2352.89 504.17 2351.2 528.64C2349.52 504.17 2348.15 502.803 2323.68 501.118C2348.15 499.432 2349.52 498.065 2351.2 473.596C2352.89 498.065 2354.25 499.432 2378.73 501.118Z" fill="#F79E5C"/>
<path d="M2464.37 547.385C2416.03 550.724 2413.33 553.427 2409.99 601.761C2406.65 553.427 2403.95 550.724 2355.61 547.385C2403.95 544.046 2406.65 541.343 2409.99 493.009C2413.33 541.343 2416.03 544.046 2464.37 547.385Z" fill="#F79E5C"/>
<path d="M2488.54 472.657C2488.54 472.657 2591.2 290.498 2723.32 319.291C2723.32 319.291 2796.51 353.523 2706.96 390.489C2706.96 390.489 2534.16 430.142 2488.54 472.657Z" fill="#F79E5C"/>
<path d="M2642.83 466.012C2642.83 466.012 2889.22 438.458 2906.07 548.307C2906.07 548.307 2888.88 582.38 2774.22 508.193C2774.22 508.193 2697.04 467.554 2642.84 466.012H2642.83Z" fill="#FF2BA9"/>
<path d="M2589.46 508.304C2589.46 508.304 2994.39 618.487 2939.98 875.629C2939.98 875.629 2912.24 932.135 2824.93 743.393C2807.82 706.395 2785.88 671.846 2759.77 640.54C2716.72 588.946 2650.4 521.358 2589.48 508.304H2589.46Z" fill="#F79E5C"/>
<path d="M922.46 478.095C922.46 478.095 819.802 295.935 687.679 324.729C687.679 324.729 614.486 358.961 704.041 395.927C704.041 395.927 876.84 435.58 922.46 478.095Z" fill="#F79E5C"/>
<path d="M768.17 471.449C768.17 471.449 521.781 443.895 504.926 553.76C504.926 553.76 522.115 587.833 636.779 513.646C636.779 513.646 713.963 473.007 768.155 471.465L768.17 471.449Z" fill="#FF2BA9"/>
<path d="M821.536 513.742C821.536 513.742 416.611 623.925 471.025 881.082C471.025 881.082 498.757 937.589 586.07 748.847C603.18 711.849 625.124 677.299 651.234 645.993C694.278 594.4 760.602 526.811 821.52 513.758L821.536 513.742Z" fill="#F79E5C"/>
</g>
<defs>
<clipPath id="clip0_471_661">
<rect width="2479" height="621" fill="white" transform="translate(466 268)"/>
</clipPath>
</defs>
</svg>
