<svg width="3412" height="1051" viewBox="0 0 3412 1051" fill="none" xmlns="http://www.w3.org/2000/svg">
<rect width="3412" height="1051" fill="#713B3B"/>
<g clip-path="url(#clip0_471_661)">
<path d="M1237.53 231.868C1237.93 250.477 1227.92 274.843 1205.53 272.222C1183.93 269.698 1173.3 247.245 1173.2 227.622C1173.12 208.841 1183.93 186.904 1205.53 187.516C1207.74 187.573 1210.33 188.109 1212.56 188.625C1197.72 173.765 1182.76 159.708 1160.08 160.262C1102.1 161.678 1081.67 229.133 1081.04 276.698C1080.3 332.085 1109.45 403.69 1167.44 418.647C1197.63 426.431 1230.01 409.275 1239.11 378.196C1241.81 378.541 1243.15 378.713 1245.83 379.057C1234.41 423.523 1200.44 461.832 1151.11 445.193C1083.76 422.472 1035.06 339.085 1033.99 270.731C1033.05 208.803 1085.61 152.096 1148.56 152C1193.86 151.924 1236.49 184.877 1237.53 231.868Z" fill="white"/>
<path d="M1370.96 447.373C1361.49 465.064 1341.6 473.326 1322.32 472.886C1286.09 472.064 1260.88 442.209 1261.21 406.751C1261.72 347.844 1321.9 340.634 1368.42 339.295C1369.45 339.295 1369.95 339.295 1370.98 339.295V336.771C1371.34 309.766 1366.68 259.466 1329.38 258.796C1310.65 258.452 1298.98 268.837 1293.86 278.61C1295.14 278.247 1296.75 278.323 1298.01 278.381C1309.52 278.916 1317.21 289.741 1317.21 305.711C1317.21 321.681 1309.52 331.11 1298.01 330.44C1286.17 329.752 1278.9 318.64 1278.48 301.503C1277.66 267.498 1313.41 247.053 1343.76 247.952C1392.84 249.425 1418.95 293.28 1417.69 339.008V441.884C1417.69 451.274 1423.12 456.668 1430.81 455.826C1430.94 455.826 1431 455.807 1431.14 455.788C1431.14 458.867 1431.14 460.397 1431.14 463.438C1412.7 465.58 1403.5 466.422 1385.06 467.608C1376.74 468.143 1370.98 461.602 1370.98 452.001V447.392L1370.96 447.373ZM1370.96 348.112C1363.02 348.112 1359.06 348.112 1351.13 347.978C1319.22 346.563 1307.27 379.153 1307.92 405.603C1308.43 426.392 1314.36 460.722 1339.92 461.086C1360.04 461.354 1371.42 438.824 1370.96 420.081V348.131V348.112Z" fill="white"/>
<path d="M1561.68 264.362C1565.53 263.788 1569.35 263.999 1572.24 265.108C1567.11 249.827 1556.21 247.972 1549.52 249.138C1512.68 255.507 1507.87 319.386 1507.28 349.527V429.491C1507.28 437.944 1512.41 442.572 1520.08 440.679C1520.21 440.641 1520.27 440.641 1520.4 440.603V447.794C1496.26 454.105 1471.84 458.16 1447.12 461.449V453.914C1447.26 453.914 1447.32 453.895 1447.45 453.876C1455.14 452.919 1460.57 446.111 1460.57 437.39C1460.57 384.699 1460.57 332.009 1460.57 279.318C1460.57 268.971 1455.14 261.646 1447.45 261.78C1447.32 261.78 1447.26 261.78 1447.12 261.78V252.944C1467.06 252.638 1487.5 252.944 1507.28 250.114V295.938C1512.75 273.427 1524.52 244.146 1549.21 240.551C1571.82 237.261 1585.67 261.589 1585.38 282.206C1585.09 302.842 1575.45 318.563 1561.07 321.566C1547.62 324.378 1538.02 314.757 1538.02 296.875C1538.02 278.993 1547.3 266.542 1561.7 264.362H1561.68Z" fill="white"/>
<path d="M1673.02 396.806V403.672C1648.67 411.379 1624.25 418.934 1599.75 426.144V419.087C1599.88 419.048 1599.94 419.029 1600.07 418.991C1607.76 416.753 1613.19 409.428 1613.19 401.3C1613.19 354.099 1613.19 306.897 1613.19 259.676C1613.19 250.726 1607.76 245.103 1600.07 246.212C1599.94 246.212 1599.88 246.231 1599.75 246.25V238.562C1619.81 235.904 1639.86 233.188 1659.9 230.395V261.952C1670.96 238.237 1696.05 222.191 1720.71 218.385C1750.2 213.833 1774.19 232.384 1773.2 263.081V352.396C1773.2 359.836 1778.63 363.451 1786.32 361.06C1786.45 361.022 1786.51 361.003 1786.64 360.965V367.486C1762.18 375.136 1737.77 382.94 1713.36 390.762V384.03C1713.5 383.992 1713.56 383.972 1713.69 383.934C1721.36 381.505 1726.49 374.448 1726.49 366.798V288.25C1727.37 267.919 1720.1 233.666 1694.81 237.854C1671.11 241.794 1660.38 270.004 1659.92 293.108V387.319C1659.92 395.256 1665.05 399.254 1672.72 396.863C1672.85 396.825 1672.91 396.806 1673.04 396.767L1673.02 396.806Z" fill="white"/>
<path d="M1912.37 315.197C1901.58 332.142 1881.59 341.801 1863.73 347.5C1839.02 355.399 1802.86 349.872 1802.62 317.875C1802.19 267.346 1871.91 251.816 1909.81 243.286C1910.84 243.075 1911.34 242.98 1912.37 242.789V241.297C1915.18 214.999 1894.58 201.612 1870.77 204.882C1851.95 207.483 1840.37 215.401 1835.25 222.286C1836.53 221.808 1838.14 221.559 1839.4 221.349C1850.91 219.475 1858.6 224.275 1858.6 233.838C1858.6 243.401 1850.91 251.165 1839.4 253.613C1827.56 256.138 1819.22 250.343 1819.87 239.805C1821.63 211.863 1860.76 199.068 1885.15 197.136C1912.5 194.975 1960.02 195.032 1959.06 235.502C1959.06 258.031 1959.06 280.561 1959.06 303.11C1959.06 310.186 1964.49 314.012 1972.18 312.902C1972.32 312.902 1972.37 312.883 1972.51 312.864V318.908C1954.07 321.7 1944.87 323.479 1926.43 327.935C1918.11 329.943 1912.35 326.022 1912.35 318.697V315.197H1912.37ZM1912.37 248.048C1904.43 249.655 1900.47 250.477 1892.53 252.141C1866.86 255.717 1850.26 276.87 1849.34 301.58C1848.66 319.673 1860.61 339.506 1881.34 333.29C1898.66 328.107 1912.39 312.309 1912.39 295.211V248.048H1912.37Z" fill="white"/>
<path d="M2079.11 267.173C2093.85 245.313 2109.02 223.912 2125.51 203.333C2128.7 199.03 2126.14 195.97 2118.15 195.721C2118.01 195.721 2117.95 195.721 2117.82 195.721V191.819C2131.38 192.202 2138.17 192.45 2151.73 193.043V197.041C2151.6 197.041 2151.54 197.041 2151.41 197.041C2143.74 196.677 2136.05 199.336 2132.85 203.658C2106.23 237.625 2082.3 272.567 2060.21 309.651C2057.01 309.823 2055.41 309.938 2052.21 310.148C2030.6 273.466 2008.05 237.701 1983.41 202.969C1980.22 198.494 1972.85 195.644 1964.86 195.855C1964.72 195.855 1964.67 195.855 1964.53 195.855V191.8C1990.54 191.169 2016.58 190.806 2042.61 190.806V194.688C2042.48 194.688 2042.42 194.688 2042.29 194.688C2034.6 194.688 2031.73 197.653 2034.92 202.071C2050.55 223.204 2064.93 245.084 2079.09 267.212L2079.11 267.173Z" fill="white"/>
<path d="M2256.69 312.845C2248.36 321.011 2231.26 322.561 2208.04 319.233C2184.02 315.79 2147.41 301.14 2146.93 273.925C2146.17 231.81 2228.78 242.827 2254.12 246.174C2255.16 246.346 2255.65 246.441 2256.69 246.614V245.179C2258.77 219.035 2239.8 201.726 2215.08 199.775C2196.22 198.284 2184.69 202.778 2179.56 207.234C2180.84 207.12 2182.45 207.234 2183.71 207.33C2195.23 208.171 2202.92 213.947 2202.92 222.057C2202.92 230.166 2195.23 234.45 2183.71 233.36C2171.87 232.25 2163.34 225.403 2164.2 217.734C2166.75 194.573 2211.16 194.841 2229.49 195.549C2263.61 196.868 2303.64 215.707 2303.41 256.119C2303.41 278.897 2303.41 301.676 2303.41 324.454C2303.41 331.148 2308.85 337.325 2316.54 340.194C2316.67 340.232 2316.73 340.271 2316.86 340.309V346.085C2298.42 339.066 2289.22 336.025 2270.78 330.784C2262.46 328.413 2256.7 322.312 2256.7 315.924V312.864L2256.69 312.845ZM2256.69 251.644C2248.75 250.228 2244.79 249.559 2236.85 248.335C2217.07 243.821 2193.2 252.332 2193.66 275.703C2194.02 294.427 2206.71 311.085 2225.66 314.623C2243.45 317.932 2256.7 310.454 2256.7 295.154V251.663L2256.69 251.644Z" fill="white"/>
<path d="M2405.48 382.04V388.753C2381.51 375.251 2357.41 363.164 2332.2 352.167V346.257C2332.34 346.314 2332.39 346.333 2332.53 346.391C2340.22 349.508 2345.65 347.041 2345.65 340.175V171.47C2345.65 164.967 2340.22 160.243 2332.53 160.071C2332.39 160.071 2332.34 160.071 2332.2 160.071V154.601C2352.25 154.735 2372.31 154.907 2392.36 155.079C2392.36 224.045 2392.36 292.992 2392.36 361.959C2392.36 369.437 2397.49 377.469 2405.16 381.868C2405.29 381.945 2405.35 381.983 2405.48 382.06V382.04Z" fill="white"/>
<path d="M1287.45 700.517C1264.73 700.459 1242 700.383 1219.3 700.306V696.118C1219.43 696.118 1219.49 696.118 1219.62 696.118C1227.31 696.214 1232.74 692.962 1232.74 688.181C1232.74 643.198 1232.74 598.215 1232.74 553.232C1232.74 547.322 1227.31 542.197 1219.62 540.781C1219.49 540.762 1219.43 540.743 1219.3 540.724V535.426C1241.83 539.653 1264.59 542.56 1287.45 544.205C1338.94 548.087 1409.02 569.049 1409.37 630.652C1409.69 689.52 1333.07 700.325 1287.45 700.536V700.517ZM1279.45 548.814C1279.45 598.119 1279.45 647.425 1279.45 696.711C1281.12 696.711 1281.96 696.73 1283.6 696.749C1323.41 697.438 1363.1 676.438 1362.64 632.201C1362.18 587.486 1328.11 552.333 1283.6 549.158C1281.94 549.024 1281.12 548.967 1279.45 548.814Z" fill="white"/>
<path d="M1585.69 663.069C1573.96 692.427 1541.25 702.755 1512.41 702.276C1482.86 701.798 1428.38 693.919 1428.9 653.201C1429.43 610.532 1476.81 591.368 1510.82 582.743C1550.22 572.759 1589.95 592.305 1589.23 637.25V642.586C1552.33 647.979 1513.98 655.936 1476.58 656.395C1481.86 682.271 1507.55 693.287 1531.61 692.274C1550.51 691.49 1571.72 683.189 1578.97 663.758C1581.67 663.49 1583.01 663.337 1585.69 663.069ZM1542.17 644.365C1545.46 622.925 1539.02 581.901 1510.17 588.672C1486.97 594.122 1475.82 621.013 1475.61 644.154C1475.59 646.736 1475.61 649.509 1475.93 652.034C1498.37 650.485 1519.93 647.559 1542.17 644.365Z" fill="white"/>
<path d="M1678.47 693.268V699.369C1654.05 699.542 1629.62 699.714 1605.2 699.886V694.856C1605.33 694.856 1605.39 694.856 1605.52 694.856C1613.21 694.703 1618.64 690.342 1618.64 684.26C1618.64 628.223 1618.64 572.166 1618.64 516.129C1618.64 508.88 1613.21 505.323 1605.52 507.58C1605.39 507.618 1605.33 507.637 1605.2 507.675V501.288C1625.28 495.244 1645.33 489.105 1665.35 482.832V681.965C1665.35 688.774 1670.48 693.44 1678.15 693.287C1678.28 693.287 1678.34 693.287 1678.47 693.287V693.268Z" fill="white"/>
<path d="M1956.55 609.996C1956.47 660.086 1918.12 702.123 1867.28 702.276C1830.96 702.391 1776.18 683.075 1776.08 638.78C1776.04 619.043 1788.97 600.338 1808.71 596.8C1827.04 593.51 1840.31 606.324 1840.39 628.777C1840.47 648.132 1828.95 669.591 1808.06 671.064C1805.86 671.217 1803.59 670.93 1801.02 670.7C1814.55 684.662 1839.59 694.072 1858.31 693.919C1887.63 693.708 1916.46 669.61 1916.56 638.971C1916.79 563.445 1783.54 580.983 1782.8 504.042C1782.38 459.996 1826.37 428.688 1865.04 417.461C1899.09 407.573 1950.09 413.865 1949.84 459.728C1949.72 479.752 1938.86 500.886 1917.84 505.361C1898.75 509.416 1885.57 497.482 1885.51 475.468C1885.45 455.387 1898.02 436.682 1917.84 431.748C1920.38 431.116 1922.64 430.944 1924.88 430.753C1912.04 418.819 1887.79 417.633 1872.39 422.166C1850.76 428.554 1823.12 447.583 1822.79 471.701C1822.39 501.058 1867.36 511.367 1889.66 521.656C1926.62 538.678 1956.61 566.754 1956.53 609.996H1956.55Z" fill="white"/>
<path d="M2067.26 463.381C2128.42 462.54 2157.2 528.121 2157.18 580.62C2157.18 632.89 2129.83 703.137 2067.26 702.276C2004.76 701.416 1976.31 632.832 1977.02 578.899C1977.71 526.074 2006.8 464.203 2067.26 463.381ZM2065.98 692.752C2108.14 692.714 2110.49 603.857 2110.46 574.71C2110.42 546.787 2110.05 471.911 2068.22 471.892C2025.24 471.854 2024.11 548.91 2023.75 578.401C2023.39 607.051 2025.72 692.79 2065.98 692.752Z" fill="white"/>
<path d="M2247.08 688.984V697.992C2222.66 697.878 2198.23 697.782 2173.8 697.725V688.143C2173.94 688.143 2174 688.143 2174.13 688.143C2181.82 688.219 2187.25 680.588 2187.25 669.859C2187.25 584.808 2187.25 499.758 2187.25 414.707C2187.25 405.24 2181.82 397.877 2174.13 397.035C2174 397.035 2173.94 397.016 2173.8 396.997V388.792C2193.89 390.838 2214.24 394.071 2233.96 398.374C2233.96 489.277 2233.96 580.161 2233.96 671.064C2233.96 681.411 2239.09 688.87 2246.76 688.965C2246.89 688.965 2246.95 688.965 2247.08 688.965V688.984Z" fill="white"/>
<path d="M968.13 486.159C909.982 490.175 906.73 493.427 902.713 551.568C898.697 493.427 895.445 490.175 837.297 486.159C895.445 482.143 898.697 478.891 902.713 420.75C906.73 478.891 909.982 482.143 968.13 486.159Z" fill="#F79E5C"/>
<path d="M1022.65 551.912C993.208 553.94 991.563 555.584 989.536 585.018C987.508 555.584 985.863 553.94 956.426 551.912C985.863 549.885 987.508 548.24 989.536 518.806C991.563 548.24 993.208 549.885 1022.65 551.912Z" fill="#F79E5C"/>
<path d="M2515.83 432.417C2486.39 434.444 2484.74 436.089 2482.72 465.523C2480.69 436.089 2479.04 434.444 2449.61 432.417C2479.04 430.389 2480.69 428.745 2482.72 399.311C2484.74 428.745 2486.39 430.389 2515.83 432.417Z" fill="#F79E5C"/>
<path d="M2618.85 488.071C2560.7 492.088 2557.45 495.339 2553.43 553.48C2549.42 495.339 2546.16 492.088 2488.02 488.071C2546.16 484.055 2549.42 480.804 2553.43 422.663C2557.45 480.804 2560.7 484.055 2618.85 488.071Z" fill="#F79E5C"/>
<path d="M2647.92 398.182C2647.92 398.182 2771.41 179.062 2930.34 213.698C2930.34 213.698 3018.39 254.875 2910.66 299.342C2910.66 299.342 2702.8 347.041 2647.92 398.182Z" fill="#F79E5C"/>
<path d="M2833.52 390.188C2833.52 390.188 3129.9 357.044 3150.17 489.181C3150.17 489.181 3129.5 530.167 2991.57 440.928C2991.57 440.928 2898.72 392.043 2833.53 390.188H2833.52Z" fill="#FF2BA9"/>
<path d="M2769.32 441.062C2769.32 441.062 3256.41 573.601 3190.95 882.916C3190.95 882.916 3157.6 950.887 3052.57 723.85C3031.98 679.345 3005.59 637.785 2974.18 600.127C2922.4 538.066 2842.62 456.763 2769.34 441.062H2769.32Z" fill="#F79E5C"/>
<path d="M764.077 404.723C764.077 404.723 640.589 185.603 481.657 220.239C481.657 220.239 393.613 261.416 501.34 305.883C501.34 305.883 709.2 353.582 764.077 404.723Z" fill="#F79E5C"/>
<path d="M578.482 396.729C578.482 396.729 282.1 363.584 261.824 495.741C261.824 495.741 282.501 536.727 420.431 447.487C420.431 447.487 513.276 398.603 578.463 396.748L578.482 396.729Z" fill="#FF2BA9"/>
<path d="M642.675 447.602C642.675 447.602 155.589 580.141 221.044 889.475C221.044 889.475 254.403 957.447 359.433 730.409C380.014 685.905 406.41 644.345 437.818 606.687C489.596 544.625 569.378 463.323 642.656 447.621L642.675 447.602Z" fill="#F79E5C"/>
</g>
<defs>
<clipPath id="clip0_471_661">
<rect width="2982" height="747" fill="white" transform="translate(215 152)"/>
</clipPath>
</defs>
</svg>
