<svg width="2559" height="960" viewBox="0 0 2559 960" fill="none" xmlns="http://www.w3.org/2000/svg">
<path d="M571.178 128.554C571.741 158.507 557.783 197.726 526.357 193.509C496.137 189.445 481.214 153.305 481.214 121.72C481.214 91.4904 496.244 56.181 526.491 57.0737C529.819 57.3071 533.121 57.905 536.35 58.8592C515.426 35.0323 494.61 12.3136 462.702 13.2987C381.499 15.546 352.859 124.121 352.002 200.712C350.957 289.986 391.787 405.119 473.016 429.192C493.833 435.387 515.929 432.064 534.657 419.921C553.384 407.778 567.283 387.762 573.429 364.084L582.832 365.438C566.945 437.134 519.258 498.702 450.164 471.889C355.833 435.318 287.624 301.099 286.123 191.077C284.784 91.4288 358.459 0.215489 446.574 0C510.015 0 569.812 52.8871 571.178 128.554Z" fill="white"/>
<path d="M758.071 475.43C744.675 503.905 716.974 517.204 689.942 516.496C639.2 515.203 603.916 467.242 604.345 410.045C605.068 315.23 689.352 303.624 754.374 301.469H757.964V297.406C758.473 253.939 751.936 173.007 699.693 171.899C673.572 171.345 657.23 188.061 649.996 203.791C651.916 203.331 653.885 203.206 655.837 203.422C671.911 204.284 682.628 221.708 682.628 247.412C682.628 272.409 671.911 288.294 655.837 287.216C639.28 286.293 629.126 268.253 628.564 240.64C627.412 185.906 677.484 152.997 720.001 154.444C788.746 156.815 825.316 227.403 823.548 301.007V466.595C823.548 481.71 831.156 490.36 841.926 489.037H842.355V501.35C816.555 504.767 803.642 506.153 777.816 508.031C766.162 508.893 758.097 498.364 758.097 482.942L758.071 475.43ZM758.071 315.661C746.953 315.661 741.407 315.661 730.289 315.476C685.601 313.167 668.857 365.623 669.768 408.198C670.491 441.691 678.797 496.948 714.589 497.472C742.8 497.933 758.714 461.639 758.071 431.47V315.661Z" fill="white"/>
<path d="M1025.2 180.858C1030.14 179.83 1035.23 180.243 1039.99 182.058C1032.81 157.431 1017.54 154.352 1008.16 156.353C956.564 166.605 949.84 269.423 949.009 317.939V446.647C949.009 460.223 956.162 467.704 966.932 464.656H967.388V476.231C933.594 485.984 899.308 493.325 864.725 498.211V486.082H865.181C875.897 484.543 883.559 473.584 883.559 459.546V204.931C883.559 188.277 875.95 176.455 865.181 176.702H864.752V162.51C892.641 161.987 921.281 162.51 949.009 157.954V231.836C956.644 195.572 973.121 148.473 1007.71 142.562C1039.37 137.236 1058.77 176.425 1058.37 209.579C1057.97 242.734 1044.47 268.069 1024.29 272.964C1005.54 277.458 992.142 262.004 992.142 233.191C992.142 205.054 1005.14 184.367 1025.31 180.858" fill="white"/>
<path d="M1181.15 394.038V405.089C1147.04 417.403 1112.82 429.46 1078.51 441.261V429.901L1078.97 429.747C1084.28 427.884 1088.93 424.112 1092.24 418.987C1095.55 413.862 1097.34 407.653 1097.35 401.272V173.47C1097.35 159.063 1089.71 150.043 1078.97 151.921H1078.51V139.607C1106.63 135.174 1134.71 130.711 1162.77 126.216V177.041C1178.26 138.868 1213.4 113.01 1247.94 106.914C1289.25 99.5878 1322.95 129.448 1321.45 178.857V322.649C1321.45 334.624 1329.06 340.412 1339.83 336.595H1340.26V347.092C1305.99 359.406 1271.81 371.966 1237.62 384.556V373.689H1238.08C1243.24 371.854 1247.76 368.18 1250.98 363.2C1254.2 358.219 1255.96 352.19 1256 345.984V219.369C1257.23 186.645 1247.05 131.511 1211.64 138.253C1178.44 144.594 1163.41 190.032 1162.77 227.219V378.83C1162.77 391.637 1169.95 398.07 1180.72 394.222L1181.15 394.069" fill="white"/>
<path d="M1516.38 262.681C1501.27 289.956 1473.3 305.502 1448.28 314.676C1413.67 327.39 1363.03 318.524 1362.55 266.991C1361.99 185.66 1459.64 160.663 1512.58 146.933L1516.14 146.133V143.732C1520.08 101.403 1491.25 79.8238 1457.9 85.2418C1431.54 89.4285 1415.3 102.173 1408.15 113.255C1410.05 112.563 1411.99 112.058 1413.96 111.747C1430.04 108.669 1440.75 116.457 1440.75 131.849C1440.75 147.241 1430.04 159.739 1413.96 163.71C1397.38 167.774 1385.7 158.416 1386.64 141.454C1389.07 96.5088 1443.89 75.9142 1478.07 72.805C1516.36 69.3264 1582.91 69.4188 1581.59 134.558V243.195C1581.59 254.616 1589.2 260.742 1599.97 258.957H1600.43V268.684C1578.78 272.212 1557.32 277.062 1536.13 283.214C1524.47 286.478 1516.38 280.136 1516.38 268.346V262.681ZM1516.38 154.629C1505.29 157.215 1499.72 158.508 1488.6 161.217C1452.68 166.943 1429.39 201.021 1428.11 240.794C1427.14 269.916 1443.89 301.808 1472.93 291.803C1497.17 283.461 1516.38 257.941 1516.38 230.543V154.629Z" fill="white"/>
<path d="M1749.92 185.35C1770.55 150.164 1791.79 115.748 1814.89 82.593C1819.39 75.6666 1815.8 70.7411 1804.6 70.2794H1804.14V64.0302C1823.14 64.6767 1832.65 65.0461 1851.64 66.0312V72.4343H1851.19C1840.47 71.8802 1829.76 76.1591 1825.2 83.0856C1788.13 137.401 1754.13 194.386 1723.4 253.691L1712.2 254.491C1681.92 195.448 1650.34 137.881 1615.75 82.1005C1611.28 74.8662 1600.96 70.2794 1589.76 70.6488H1589.31V63.9686C1625.78 62.9425 1662.23 62.4089 1698.67 62.3679V68.5247H1698.24C1687.52 68.5247 1683.45 73.2962 1687.92 80.4074C1709.81 114.424 1729.96 149.641 1749.79 185.258" fill="white"/>
<path d="M1998.65 258.896C1986.99 272.041 1963.04 274.534 1930.52 269.178C1896.87 263.637 1845.59 240.087 1844.79 196.25C1843.71 128.525 1959.4 146.195 1994.81 151.582L1998.4 152.29V149.982C2001.33 107.9 1974.75 80.0093 1940.13 76.9001C1913.72 74.499 1897.56 81.7332 1890.38 88.8752C1892.33 88.7571 1894.28 88.8086 1896.22 89.0291C1912.3 90.3836 1923.02 99.6804 1923.02 112.733C1923.02 125.785 1912.3 132.681 1896.22 130.957C1879.64 129.141 1867.69 118.151 1868.87 105.776C1872.43 68.4961 1934.67 68.8347 1960.31 70.0969C2008.1 72.221 2064.18 102.513 2063.85 167.59V277.582C2063.85 288.356 2071.46 298.299 2082.21 302.886L2082.66 303.102V312.337C2061.53 302.853 2039.99 294.633 2018.12 287.71C2006.47 283.892 1998.4 274.072 1998.4 263.76L1998.65 258.896ZM1998.65 160.387C1987.53 158.109 1981.98 157.031 1970.86 155.061C1943.14 147.796 1909.73 161.464 1910.34 199.113C1910.85 229.251 1928.61 256.064 1955.16 261.728C1980.08 267.084 1998.65 255.017 1998.65 230.39V160.387Z" fill="white"/>
<path d="M2207.06 370.272V381.108C2173.74 359.477 2139.48 339.822 2104.42 322.218V312.706L2104.85 312.921C2115.56 317.939 2123.25 313.937 2123.25 302.917V31.3393C2123.25 20.8419 2115.62 13.269 2104.88 12.8688H2104.42V4.18772C2132.5 4.39295 2160.58 4.64948 2188.68 4.95732V337.949C2188.68 349.986 2195.86 362.915 2206.6 369.995L2207.06 370.272Z" fill="white"/>
<path d="M641.103 882.888C609.275 882.888 577.457 882.765 545.647 882.519V875.777H546.076C556.792 875.931 564.454 870.698 564.454 863.032V645.789C564.454 636.277 556.846 628.026 546.076 625.748H545.647V617.221C577.207 624.007 609.077 628.724 641.103 631.351C713.224 637.508 811.386 671.37 811.868 770.495C812.323 865.249 704.999 882.642 641.103 882.98M629.904 638.77V876.854H635.718C691.47 877.993 747.061 844.162 746.445 772.958C745.802 700.985 698.221 644.404 635.718 639.293L629.904 638.739" fill="white"/>
<path d="M1058.83 822.613C1042.38 869.866 996.564 886.49 956.19 885.72C914.772 884.951 838.498 872.267 839.195 806.728C839.945 738.049 906.172 707.172 953.94 693.319C1009.13 677.25 1064.77 708.712 1063.78 781.054V789.612C1012.08 798.293 958.387 811.161 906.011 811.838C913.406 853.489 949.386 871.221 983.089 869.62C1009.56 868.358 1039.35 854.997 1049.42 823.721L1058.85 822.613M997.877 792.506C1002.49 757.997 993.457 691.965 953.083 702.863C920.559 711.636 904.859 754.918 904.672 792.136C904.585 796.37 904.728 800.606 905.1 804.819C936.526 802.326 966.719 797.616 997.877 792.506Z" fill="white"/>
<path d="M1188.79 871.192V881.043L1086.15 881.874V873.747H1086.69C1097.4 873.5 1105.07 866.482 1105.07 856.692V586.1C1105.07 574.433 1097.43 568.707 1086.69 572.34L1086.23 572.493V562.212C1114.36 552.484 1142.45 542.582 1170.49 532.505V853.029C1170.49 863.988 1177.67 871.499 1188.41 871.253H1188.87" fill="white"/>
<path d="M1578.27 737.186C1578.27 817.809 1524.45 885.473 1453.21 885.719C1402.31 885.904 1325.61 854.935 1325.48 783.516C1325.48 751.747 1343.53 721.64 1371.21 715.791C1396.85 710.527 1415.47 731.183 1415.57 767.293C1415.57 798.415 1399.5 832.986 1370.3 835.356C1367 835.454 1363.71 835.258 1360.44 834.771C1379.38 857.275 1414.45 872.389 1440.81 872.174C1481.88 871.835 1522.23 833.047 1522.36 783.731C1522.71 662.165 1336.08 690.394 1335.04 566.549C1334.42 495.746 1396.04 445.291 1450.24 427.19C1497.96 411.274 1569.35 421.433 1569 495.223C1568.87 527.454 1553.65 561.47 1524.18 568.674C1497.39 575.2 1479.01 555.991 1478.93 520.558C1478.93 488.235 1496.43 458.128 1524.18 450.186C1527.42 449.324 1530.72 448.789 1534.04 448.585C1516.07 429.375 1482.09 427.467 1460.55 434.763C1430.25 445.045 1391.54 475.675 1391.09 514.494C1390.5 561.747 1453.51 578.34 1484.85 594.871C1536.61 622.299 1578.62 667.491 1578.62 737.063" fill="white"/>
<path d="M1733.34 501.196C1819.07 499.841 1859.25 605.431 1859.25 689.902C1859.25 774.374 1820.92 887.136 1733.34 885.72C1645.76 884.304 1605.95 773.943 1606.94 687.162C1607.9 602.106 1648.65 502.458 1733.34 501.196ZM1731.54 870.42C1790.48 870.42 1793.89 727.305 1793.83 680.421C1793.83 635.476 1793.27 514.956 1734.68 514.894C1674.48 514.894 1672.9 638.893 1672.39 686.331C1671.88 732.507 1675.07 870.451 1731.54 870.42Z" fill="white"/>
<path d="M1985.2 864.325V878.825L1882.56 878.363V862.971H1883.02C1893.73 862.971 1901.4 850.811 1901.4 833.511V422.82C1901.4 407.582 1893.79 395.73 1883.02 394.406H1882.56V381.2C1910.88 384.507 1939.01 389.646 1966.82 396.592V835.481C1966.82 852.135 1974 864.141 1984.77 864.325H1985.2Z" fill="white"/>
<path d="M0 618.513C112.876 627.686 119.189 635.191 126.986 768.612C134.783 635.191 141.095 627.686 253.972 618.513C141.095 609.296 134.783 601.835 126.986 468.414C119.189 601.835 112.876 609.296 0 618.513Z" fill="white"/>
<path d="M2304.03 809.901C2416.91 819.073 2423.22 826.578 2431.02 960C2438.81 826.578 2445.13 819.073 2558 809.901C2445.13 800.684 2438.81 793.223 2431.02 659.801C2423.22 793.223 2416.91 800.684 2304.03 809.901Z" fill="white"/>
<path d="M189.969 773.203C247.018 777.88 250.206 781.675 254.173 849.579C258.102 781.675 261.29 777.88 318.34 773.203C261.29 768.526 258.102 764.688 254.173 696.828C250.206 764.688 247.018 768.526 189.969 773.203Z" fill="white"/>
<path d="M2239.38 695.868C2296.43 700.545 2299.62 704.339 2303.58 772.244C2307.51 704.339 2310.7 700.545 2367.75 695.868C2310.7 691.191 2307.51 687.352 2303.58 619.492C2299.62 687.352 2296.43 691.191 2239.38 695.868Z" fill="white"/>
</svg>
