<svg width="218" height="197" viewBox="0 0 218 197" fill="none" xmlns="http://www.w3.org/2000/svg">
<path d="M166.906 0H51.0938C22.8755 0 0 20.6719 0 46.1719V150.828C0 176.328 22.8755 197 51.0938 197H166.906C195.125 197 218 176.328 218 150.828V46.1719C218 20.6719 195.125 0 166.906 0Z" fill="url(#paint0_radial_591_1019)"/>
<path d="M166.906 0H51.0938C22.8755 0 0 20.6719 0 46.1719V150.828C0 176.328 22.8755 197 51.0938 197H166.906C195.125 197 218 176.328 218 150.828V46.1719C218 20.6719 195.125 0 166.906 0Z" fill="url(#paint1_radial_591_1019)"/>
<path d="M109.008 21.5469C85.8809 21.5469 82.978 21.6384 73.8952 22.0117C64.8295 22.3872 58.6411 23.6839 53.2269 25.5869C47.6253 27.5523 42.8745 30.1818 38.1415 34.4604C33.4042 38.7382 30.4945 43.0314 28.3128 48.0911C26.2009 52.9853 24.7643 58.5798 24.3564 66.7684C23.9502 74.977 23.8438 77.6011 23.8438 98.5008C23.8438 119.4 23.9459 122.015 24.3581 130.223C24.7754 138.416 26.2102 144.008 28.3145 148.9C30.491 153.962 33.4008 158.256 38.1355 162.533C42.8677 166.814 47.6185 169.449 53.2158 171.415C58.6343 173.318 64.8235 174.614 73.8875 174.99C82.9711 175.363 85.8716 175.455 108.997 175.455C132.127 175.455 135.02 175.363 144.103 174.99C153.169 174.614 159.364 173.318 164.782 171.415C170.381 169.449 175.126 166.814 179.857 162.533C184.594 158.256 187.503 153.962 189.686 148.903C191.779 144.008 193.216 138.414 193.642 130.225C194.05 122.017 194.156 119.4 194.156 98.5008C194.156 77.6011 194.05 74.9785 193.642 66.7699C193.216 58.5775 191.779 52.9861 189.686 48.0934C187.503 43.0314 184.594 38.7382 179.857 34.4604C175.12 30.1802 170.383 27.5508 164.777 25.5877C159.349 23.6839 153.157 22.3864 144.091 22.0117C135.008 21.6384 132.116 21.5469 108.981 21.5469H109.008ZM101.368 35.4146C103.636 35.4115 106.166 35.4146 109.008 35.4146C131.745 35.4146 134.44 35.4885 143.418 35.8571C151.721 36.2003 156.228 37.4539 159.229 38.5073C163.204 39.9017 166.037 41.5693 169.016 44.2634C171.996 46.9568 173.841 49.5216 175.388 53.113C176.554 55.8218 177.943 59.8942 178.321 67.3971C178.728 75.5095 178.817 77.9458 178.817 98.4831C178.817 119.02 178.728 121.457 178.321 129.569C177.941 137.072 176.554 141.144 175.388 143.854C173.845 147.445 171.996 150.002 169.016 152.694C166.035 155.388 163.205 157.054 159.229 158.45C156.231 159.508 151.721 160.758 143.418 161.101C134.441 161.47 131.745 161.55 109.008 161.55C86.2692 161.55 83.574 161.47 74.5977 161.101C66.295 160.755 61.7885 159.502 58.7842 158.448C54.8108 157.053 51.9717 155.386 48.9912 152.693C46.0108 149.999 44.1663 147.441 42.619 143.848C41.4532 141.138 40.0643 137.066 39.6862 129.563C39.2783 121.45 39.1966 119.014 39.1966 98.4638C39.1966 77.9143 39.2783 75.4902 39.6862 67.3778C40.066 59.8749 41.4532 55.8026 42.619 53.09C44.1629 49.4986 46.0108 46.9337 48.9921 44.2404C51.9726 41.547 54.8108 39.8794 58.7851 38.4819C61.7868 37.4238 66.295 36.1734 74.5977 35.8286C82.4534 35.5077 85.4977 35.4115 101.368 35.3954V35.4146ZM154.464 48.1919C148.822 48.1919 144.245 52.3243 144.245 57.4232C144.245 62.5213 148.822 66.6576 154.464 66.6576C160.106 66.6576 164.683 62.5213 164.683 57.4232C164.683 52.325 160.106 48.1888 154.464 48.1888V48.1919ZM109.008 58.9815C84.8574 58.9815 65.2765 76.6761 65.2765 98.5008C65.2765 120.325 84.8574 138.012 109.008 138.012C133.159 138.012 152.733 120.325 152.733 98.5008C152.733 76.6769 133.157 58.9815 109.006 58.9815H109.008ZM109.008 72.8492C124.684 72.8492 137.394 84.3329 137.394 98.5008C137.394 112.667 124.684 124.152 109.008 124.152C93.3304 124.152 80.6225 112.667 80.6225 98.5008C80.6225 84.3329 93.3304 72.8492 109.008 72.8492Z" fill="white"/>
<defs>
<radialGradient id="paint0_radial_591_1019" cx="0" cy="0" r="1" gradientUnits="userSpaceOnUse" gradientTransform="translate(57.9062 212.173) rotate(-90) scale(195.242 200.947)">
<stop stop-color="#FFDD55"/>
<stop offset="0.1" stop-color="#FFDD55"/>
<stop offset="0.5" stop-color="#FF543E"/>
<stop offset="1" stop-color="#C837AB"/>
</radialGradient>
<radialGradient id="paint1_radial_591_1019" cx="0" cy="0" r="1" gradientUnits="userSpaceOnUse" gradientTransform="translate(-36.5159 14.1909) rotate(77.5105) scale(87.6508 396.384)">
<stop stop-color="#3771C8"/>
<stop offset="0.128" stop-color="#3771C8"/>
<stop offset="1" stop-color="#6600FF" stop-opacity="0"/>
</radialGradient>
</defs>
</svg>
