<svg width="12351" height="2328" viewBox="0 0 12351 2328" fill="none" xmlns="http://www.w3.org/2000/svg">
<rect width="12351" height="2328" fill="#713B3B"/>
<path d="M299 396.486L672.191 950.521L299 1574.34C299 1574.34 2517.66 1487.4 2711.77 1404.15V328.446C2711.77 328.446 2847.36 169.706 2178.77 244.35C2178.77 244.285 569.687 465.368 299 396.486Z" fill="#5B1964"/>
<path d="M2714.38 224.219C2714.38 224.219 2828.35 359.135 2273.8 402.186C2273.8 402.186 1466.62 413.645 1614.48 646.187C1614.48 646.187 1794.04 953.308 2724.05 1046.66L2714.38 224.154V224.219Z" fill="#3E0941"/>
<path d="M12053 399.53L11679.8 953.63L12053 1577.39C12053 1577.39 9834.34 1490.44 9640.23 1407.19V331.49C9640.23 331.49 9504.64 172.75 10173.2 247.394C10173.2 247.394 11782.3 468.477 12053 399.53Z" fill="#5B1964"/>
<path d="M9637.55 227.26C9637.55 227.26 9523.58 362.176 10078.1 405.227C10078.1 405.227 10885.3 416.686 10737.4 649.228C10737.4 649.228 10557.9 956.349 9627.88 1049.7L9637.55 227.195V227.26Z" fill="#3E0941"/>
<path d="M10696.4 1886.97L10163.3 1903.22C7507.4 1984.14 4841.82 1984.14 2185.92 1903.22L1652.84 1886.97C1616.83 1886.97 1587.32 1874.15 1587.32 1858.48V637.316C1587.32 621.649 1616.83 608.831 1652.84 608.831L2243.31 624.951C4861.58 696.487 7487.65 696.487 10105.9 624.951L10696.4 608.831C10732.4 608.831 10761.9 621.649 10761.9 637.316V1858.42C10761.9 1874.09 10732.4 1886.91 10696.4 1886.91V1886.97Z" fill="#772385"/>
</svg>
