<svg width="12351" height="2328" viewBox="0 0 12351 2328" fill="none" xmlns="http://www.w3.org/2000/svg">
<rect width="12351" height="2328" fill="#713B3B"/>
<path d="M299 353.486L672.191 907.521L299 1531.34C299 1531.34 2517.66 1444.4 2711.77 1361.15V285.446C2711.77 285.446 2847.36 126.706 2178.77 201.35C2178.77 201.285 569.687 422.368 299 353.486Z" fill="#5B1964"/>
<path d="M2714.38 181.219C2714.38 181.219 2828.34 316.135 2273.8 359.187C2273.8 359.187 1466.61 370.645 1614.48 603.187C1614.48 603.187 1794.04 910.308 2724.05 1003.66L2714.38 181.155V181.219Z" fill="#3E0941"/>
<path d="M12053 356.531L11679.8 910.63L12053 1534.39C12053 1534.39 9834.34 1447.44 9640.23 1364.19V288.49C9640.23 288.49 9504.64 129.751 10173.2 204.394C10173.2 204.394 11782.3 425.478 12053 356.531Z" fill="#5B1964"/>
<path d="M9637.54 184.261C9637.54 184.261 9523.58 319.176 10078.1 362.228C10078.1 362.228 10885.3 373.687 10737.4 606.228C10737.4 606.228 10557.9 913.35 9627.87 1006.7L9637.54 184.196V184.261Z" fill="#3E0941"/>
<path d="M10696.4 1843.97L10163.3 1860.22C7507.4 1941.14 4841.83 1941.14 2185.92 1860.22L1652.84 1843.97C1616.83 1843.97 1587.32 1831.15 1587.32 1815.49V594.317C1587.32 578.65 1616.83 565.831 1652.84 565.831L2243.31 581.951C4861.58 653.488 7487.65 653.488 10105.9 581.951L10696.4 565.831C10732.4 565.831 10761.9 578.65 10761.9 594.317V1815.42C10761.9 1831.09 10732.4 1843.91 10696.4 1843.91V1843.97Z" fill="#772385"/>
<path d="M10154.2 1234.97L10043.4 1184.02V1285.92L10154.2 1234.97Z" fill="#901C1A"/>
</svg>
