<svg width="99" height="100" viewBox="0 0 99 100" fill="none" xmlns="http://www.w3.org/2000/svg">
<path d="M17.8532 60.2932C17.8532 60.2932 41.6236 79.8419 64.3481 49.43C64.3481 49.43 73.1364 34.9147 88.1881 35.5979C88.1881 35.5979 72.0605 20.8216 50.8047 29.8075C50.8047 29.8075 35.36 36.2827 27.1577 51.5688C27.1577 51.5688 45.8419 37.5523 48.2805 44.9681C48.2805 44.9681 53.6537 65.4517 17.8473 60.2908L17.8532 60.2932Z" fill="url(#paint0_linear_585_742)"/>
<path d="M36.3552 78.0871C36.3552 78.0871 41.0446 95.4588 59.5773 88.6841C59.5773 88.6841 67.536 84.7504 73.8487 90.1872C73.8487 90.1872 71.0965 77.6791 59.3302 74.7529C59.3302 74.7529 50.7967 72.5947 42.8753 77.09C42.8753 77.09 54.9659 76.7547 53.9017 81.1143C53.9017 81.1143 50.3606 92.6882 36.3552 78.0871Z" fill="url(#paint1_linear_585_742)"/>
<path d="M15.0615 40.2582C15.0615 40.2582 31.9374 41.0025 34.4117 20.157C34.4117 20.157 34.603 10.8843 42.0352 6.21973C42.0352 6.21973 30.1656 5.05231 22.433 16.005C22.433 16.005 16.8038 23.939 17.1063 33.3521C17.1063 33.3521 22.2008 21.0357 25.4351 23.4897C25.4351 23.4897 33.7173 30.7094 15.0497 40.2534L15.0615 40.2582Z" fill="url(#paint2_linear_585_742)"/>
<defs>
<linearGradient id="paint0_linear_585_742" x1="74.2564" y1="60.6957" x2="30.9593" y2="36.6713" gradientUnits="userSpaceOnUse">
<stop stop-color="white"/>
<stop offset="0.75" stop-color="#FDE210"/>
<stop offset="0.76" stop-color="#FDE210"/>
<stop offset="1" stop-color="#FDE210"/>
</linearGradient>
<linearGradient id="paint1_linear_585_742" x1="66.74" y1="97.3651" x2="41.8808" y2="72.5882" gradientUnits="userSpaceOnUse">
<stop stop-color="white"/>
<stop offset="0.75" stop-color="#FDE210"/>
<stop offset="0.76" stop-color="#FDE210"/>
<stop offset="1" stop-color="#FDE210"/>
</linearGradient>
<linearGradient id="paint2_linear_585_742" x1="44.9704" y1="15.7533" x2="10.7495" y2="26.327" gradientUnits="userSpaceOnUse">
<stop stop-color="white"/>
<stop offset="0.75" stop-color="#FDE210"/>
<stop offset="0.76" stop-color="#FDE210"/>
<stop offset="1" stop-color="#FDE210"/>
</linearGradient>
</defs>
</svg>
