<svg width="1110" height="1083" viewBox="0 0 1110 1083" fill="none" xmlns="http://www.w3.org/2000/svg">
<path d="M474.98 734.391C489.707 741.017 531.179 755.197 598.501 743.983C601.192 743.538 603.506 745.88 603.021 748.544C601.012 759.49 600.923 786.797 630.305 834.189C630.305 834.189 675.115 898.833 618.834 953.608C618.834 953.608 548.633 996.778 576.581 1078.08C577.657 1081.21 574.025 1083.86 571.343 1081.89C551.082 1067 504.775 1023.42 520.363 944.622C520.363 944.622 547.019 904.257 513.887 873.797C513.887 873.797 433.641 819.404 466.046 737.971C467.445 734.462 471.526 732.832 474.98 734.391Z" fill="url(#paint0_radial_395_650)"/>
<path d="M448.949 723.188L427.961 711.734C422.391 708.697 415.53 709.374 410.651 713.417C385.439 734.348 317.059 803.097 393.395 882.01C395.054 883.72 397.951 882.295 397.583 879.943C394.614 861.302 391.942 813.883 435.397 790.789C439.513 788.597 442.222 784.492 442.518 779.86C443.352 767.079 445.657 741.891 451.335 731.275C452.886 728.371 451.846 724.773 448.949 723.188Z" fill="url(#paint1_radial_395_650)"/>
<path d="M557.086 731.286C675.775 731.286 771.992 636.217 771.992 518.944C771.992 401.67 675.775 306.602 557.086 306.602C438.396 306.602 342.18 401.67 342.18 518.944C342.18 636.217 438.396 731.286 557.086 731.286Z" fill="url(#paint2_linear_395_650)"/>
<path d="M337.561 586.284C341.283 601.906 355.32 643.17 405.403 689.235C407.403 691.078 406.954 694.329 404.533 695.576C394.577 700.688 372.765 717.308 352.943 769.367C352.943 769.367 328.807 844.093 250.75 833.334C250.75 833.334 173.437 804.539 125.721 876.192C123.883 878.953 119.551 877.715 119.479 874.402C118.968 849.375 125.399 786.343 197.734 750.441C197.734 750.441 246.193 746.718 250.221 702.06C250.221 702.06 244.534 605.745 329.238 581.447C332.888 580.405 336.682 582.614 337.552 586.284H337.561Z" fill="url(#paint3_radial_395_650)"/>
<path d="M330.583 558.976L326.888 535.471C325.91 529.237 321.175 524.258 314.968 522.895C282.877 515.868 186.289 504.147 170.046 612.362C169.697 614.713 172.612 616.12 174.253 614.393C187.294 600.667 223.457 569.584 268.428 589.623C272.688 591.52 277.621 591.137 281.496 588.546C292.187 581.394 313.677 567.811 325.605 565.789C328.87 565.237 331.103 562.218 330.592 558.976H330.583Z" fill="url(#paint4_radial_395_650)"/>
<path d="M364.165 392.771C354.048 405.294 329.921 441.668 324.154 509.216C323.921 511.915 321.06 513.562 318.584 512.431C308.405 507.782 281.784 500.924 228.266 517.428C228.266 517.428 154.083 544.495 114.62 476.76C114.62 476.76 89.9278 398.516 3.68153 405.232C0.354018 405.49 -1.32319 401.34 1.25989 399.246C20.8214 383.455 74.8239 349.717 147.814 384.266C147.814 384.266 180.578 419.919 218.508 395.604C218.508 395.604 291.48 331.904 362.873 383.277C365.95 385.486 366.524 389.823 364.147 392.763L364.165 392.771Z" fill="url(#paint5_radial_395_650)"/>
<path d="M381.557 370.515L397.943 353.165C402.293 348.56 403.334 341.791 400.598 336.1C386.436 306.646 336.335 223.815 240.42 277.673C238.339 278.839 239.012 281.992 241.398 282.215C260.314 283.987 307.24 293.179 318.989 340.713C320.101 345.211 323.447 348.845 327.877 350.279C340.138 354.251 364.139 362.721 373.081 370.817C375.53 373.035 379.297 372.928 381.566 370.523L381.557 370.515Z" fill="url(#paint6_radial_395_650)"/>
<path d="M532.082 288.85C515.919 289.081 472.312 293.775 416.202 332.385C413.959 333.926 410.856 332.786 410.156 330.167C407.277 319.417 395.654 294.666 348.754 264.196C348.754 264.196 280.491 224.642 307.945 151.288C307.945 151.288 352.961 82.5557 292.824 20.7976C290.51 18.4195 292.662 14.4828 295.927 15.133C320.646 20.0494 381.231 39.9022 400.9 117.799C400.9 117.799 394.084 165.592 437.117 179.147C437.117 179.147 533.041 194.44 538.629 281.831C538.871 285.59 535.875 288.796 532.082 288.85Z" fill="url(#paint7_radial_395_650)"/>
<path d="M560.432 287.976L584.334 289.472C590.675 289.873 596.595 286.355 599.277 280.628C613.125 251.032 645.521 159.918 542.628 120.782C540.395 119.936 538.377 122.456 539.722 124.416C550.395 140.029 573.141 181.81 543.722 221.079C540.933 224.802 540.251 229.665 541.956 233.976C546.682 245.884 555.391 269.655 554.799 281.661C554.638 284.948 557.122 287.762 560.423 287.967L560.432 287.976Z" fill="url(#paint8_radial_395_650)"/>
<path d="M723.106 356.833C712.639 344.596 681.256 314.171 615.567 295.726C612.939 294.986 611.854 291.887 613.441 289.687C619.971 280.647 631.801 255.993 625.648 200.675C625.648 200.675 612.966 123.214 687.427 97.5901C687.427 97.5901 769.475 88.3629 779.207 3.00233C779.584 -0.284197 784.005 -1.13923 785.584 1.78213C797.486 23.8526 820.59 82.9031 772.579 147.52C772.579 147.52 731.106 172.699 747.95 214.293C747.95 214.293 797.082 297.525 732.729 357.386C729.958 359.96 725.563 359.701 723.106 356.833Z" fill="url(#paint9_radial_395_650)"/>
<path d="M741.814 378.013L755.86 397.278C759.582 402.39 766.084 404.688 772.237 403.103C804.041 394.882 895.454 361.758 860.412 258.024C859.649 255.77 856.411 255.833 855.739 258.113C850.402 276.22 832.401 320.227 783.179 322.668C778.515 322.899 774.3 325.464 772.031 329.526C765.779 340.721 752.846 362.515 743.141 369.703C740.487 371.671 739.877 375.359 741.814 378.031V378.013Z" fill="url(#paint10_radial_395_650)"/>
<path d="M786.257 546.365C789.827 530.708 795.486 487.52 770.884 424.283C769.898 421.753 771.745 419.028 774.472 418.975C785.674 418.725 812.626 413.319 853.471 375.217C853.471 375.217 908.227 318.633 973.575 362.365C973.575 362.365 1030.27 421.976 1104.86 378.441C1107.73 376.766 1111.07 379.768 1109.67 382.769C1099.05 405.472 1065.37 459.286 984.509 459.963C984.509 459.963 939.332 442.15 915.949 480.501C915.949 480.501 878.432 569.496 791.585 554.346C787.845 553.695 785.414 550.053 786.257 546.374V546.365Z" fill="url(#paint11_radial_395_650)"/>
<path d="M780.436 573.94L773.351 596.661C771.476 602.69 773.521 609.228 778.49 613.156C804.204 633.471 885.778 686.163 948.265 596.046C949.619 594.087 947.628 591.557 945.386 592.385C927.6 599.021 881.356 611.152 849.83 573.53C846.843 569.968 842.242 568.16 837.623 568.801C824.851 570.564 799.54 573.379 787.925 569.985C784.75 569.059 781.405 570.796 780.427 573.931L780.436 573.94Z" fill="url(#paint12_radial_395_650)"/>
<path d="M677.34 713.568C691.717 706.22 728.66 682.751 761.631 623.398C762.949 621.029 766.232 620.681 768.034 622.712C775.425 631.075 796.924 648.105 852.577 654.678C852.577 654.678 931.432 659.95 939.702 737.776C939.702 737.776 930.168 819.227 1011.7 847.968C1014.84 849.072 1014.67 853.552 1011.45 854.407C987.112 860.927 923.961 869.896 871.456 808.824C871.456 808.824 856.155 763.008 811.534 769.875C811.534 769.875 718.768 798.545 674.622 722.751C672.721 719.491 673.967 715.296 677.349 713.568H677.34Z" fill="url(#paint13_radial_395_650)"/>
<path d="M652.323 726.865L630.241 736.083C624.385 738.532 620.654 744.295 620.824 750.601C621.685 783.225 633.479 879.14 743.162 868.737C745.538 868.515 746.22 865.362 744.13 864.195C727.582 854.932 688.495 827.553 697.249 779.396C698.074 774.835 696.514 770.168 693.052 767.06C683.482 758.474 665.032 741.035 660.189 730.018C658.862 727.007 655.382 725.582 652.323 726.856V726.865Z" fill="url(#paint14_radial_395_650)"/>
<defs>
<radialGradient id="paint0_radial_395_650" cx="0" cy="0" r="1" gradientUnits="userSpaceOnUse" gradientTransform="translate(556.781 906.328) rotate(-3.10824) scale(141.528 140.549)">
<stop stop-color="white"/>
<stop offset="0.02" stop-color="#FEFCDB"/>
<stop offset="0.05" stop-color="#FDF8AA"/>
<stop offset="0.09" stop-color="#FDF580"/>
<stop offset="0.12" stop-color="#FCF25D"/>
<stop offset="0.16" stop-color="#FCF043"/>
<stop offset="0.19" stop-color="#FCEF30"/>
<stop offset="0.23" stop-color="#FCEE24"/>
<stop offset="0.27" stop-color="#FCEE21"/>
<stop offset="1" stop-color="#FF931E"/>
</radialGradient>
<radialGradient id="paint1_radial_395_650" cx="0" cy="0" r="1" gradientUnits="userSpaceOnUse" gradientTransform="translate(406.707 796.353) rotate(-3.10824) scale(70.1543 69.6686)">
<stop stop-color="white"/>
<stop offset="0.02" stop-color="#FEFCDB"/>
<stop offset="0.05" stop-color="#FDF8AA"/>
<stop offset="0.09" stop-color="#FDF580"/>
<stop offset="0.12" stop-color="#FCF25D"/>
<stop offset="0.16" stop-color="#FCF043"/>
<stop offset="0.19" stop-color="#FCEF30"/>
<stop offset="0.23" stop-color="#FCEE24"/>
<stop offset="0.27" stop-color="#FCEE21"/>
<stop offset="1" stop-color="#FF931E"/>
</radialGradient>
<linearGradient id="paint2_linear_395_650" x1="412.271" y1="519.73" x2="615.68" y2="519.73" gradientUnits="userSpaceOnUse">
<stop stop-color="#FF8900"/>
<stop offset="1" stop-color="#FCEF30"/>
</linearGradient>
<radialGradient id="paint3_radial_395_650" cx="0" cy="0" r="1" gradientUnits="userSpaceOnUse" gradientTransform="translate(260.012 727.66) rotate(-3.10824) scale(145.914 144.904)">
<stop stop-color="white"/>
<stop offset="0.02" stop-color="#FEFCDB"/>
<stop offset="0.05" stop-color="#FDF8AA"/>
<stop offset="0.09" stop-color="#FDF580"/>
<stop offset="0.12" stop-color="#FCF25D"/>
<stop offset="0.16" stop-color="#FCF043"/>
<stop offset="0.19" stop-color="#FCEF30"/>
<stop offset="0.23" stop-color="#FCEE24"/>
<stop offset="0.27" stop-color="#FCEE21"/>
<stop offset="1" stop-color="#FF931E"/>
</radialGradient>
<radialGradient id="paint4_radial_395_650" cx="0" cy="0" r="1" gradientUnits="userSpaceOnUse" gradientTransform="translate(249.184 565.442) rotate(-3.10824) scale(66.208 65.7496)">
<stop stop-color="white"/>
<stop offset="0.02" stop-color="#FEFCDB"/>
<stop offset="0.05" stop-color="#FDF8AA"/>
<stop offset="0.09" stop-color="#FDF580"/>
<stop offset="0.12" stop-color="#FCF25D"/>
<stop offset="0.16" stop-color="#FCF043"/>
<stop offset="0.19" stop-color="#FCEF30"/>
<stop offset="0.23" stop-color="#FCEE24"/>
<stop offset="0.27" stop-color="#FCEE21"/>
<stop offset="1" stop-color="#FF931E"/>
</radialGradient>
<radialGradient id="paint5_radial_395_650" cx="0" cy="0" r="1" gradientUnits="userSpaceOnUse" gradientTransform="translate(185.477 443.489) rotate(-3.10824) scale(141.259 140.281)">
<stop stop-color="white"/>
<stop offset="0.02" stop-color="#FEFCDB"/>
<stop offset="0.05" stop-color="#FDF8AA"/>
<stop offset="0.09" stop-color="#FDF580"/>
<stop offset="0.12" stop-color="#FCF25D"/>
<stop offset="0.16" stop-color="#FCF043"/>
<stop offset="0.19" stop-color="#FCEF30"/>
<stop offset="0.23" stop-color="#FCEE24"/>
<stop offset="0.27" stop-color="#FCEE21"/>
<stop offset="1" stop-color="#FF931E"/>
</radialGradient>
<radialGradient id="paint6_radial_395_650" cx="0" cy="0" r="1" gradientUnits="userSpaceOnUse" gradientTransform="translate(320.968 317.043) rotate(-3.10824) scale(69.966 69.4816)">
<stop stop-color="white"/>
<stop offset="0.02" stop-color="#FEFCDB"/>
<stop offset="0.05" stop-color="#FDF8AA"/>
<stop offset="0.09" stop-color="#FDF580"/>
<stop offset="0.12" stop-color="#FCF25D"/>
<stop offset="0.16" stop-color="#FCF043"/>
<stop offset="0.19" stop-color="#FCEF30"/>
<stop offset="0.23" stop-color="#FCEE24"/>
<stop offset="0.27" stop-color="#FCEE21"/>
<stop offset="1" stop-color="#FF931E"/>
</radialGradient>
<radialGradient id="paint7_radial_395_650" cx="0" cy="0" r="1" gradientUnits="userSpaceOnUse" gradientTransform="translate(416.367 170.714) rotate(-3.10824) scale(141.519 140.54)">
<stop stop-color="white"/>
<stop offset="0.02" stop-color="#FEFCDB"/>
<stop offset="0.05" stop-color="#FDF8AA"/>
<stop offset="0.09" stop-color="#FDF580"/>
<stop offset="0.12" stop-color="#FCF25D"/>
<stop offset="0.16" stop-color="#FCF043"/>
<stop offset="0.19" stop-color="#FCEF30"/>
<stop offset="0.23" stop-color="#FCEE24"/>
<stop offset="0.27" stop-color="#FCEE21"/>
<stop offset="1" stop-color="#FF931E"/>
</radialGradient>
<radialGradient id="paint8_radial_395_650" cx="0" cy="0" r="1" gradientUnits="userSpaceOnUse" gradientTransform="translate(577.233 204.33) rotate(-3.10824) scale(66.4233 65.9634)">
<stop stop-color="white"/>
<stop offset="0.02" stop-color="#FEFCDB"/>
<stop offset="0.05" stop-color="#FDF8AA"/>
<stop offset="0.09" stop-color="#FDF580"/>
<stop offset="0.12" stop-color="#FCF25D"/>
<stop offset="0.16" stop-color="#FCF043"/>
<stop offset="0.19" stop-color="#FCEF30"/>
<stop offset="0.23" stop-color="#FCEE24"/>
<stop offset="0.27" stop-color="#FCEE21"/>
<stop offset="1" stop-color="#FF931E"/>
</radialGradient>
<radialGradient id="paint9_radial_395_650" cx="0" cy="0" r="1" gradientUnits="userSpaceOnUse" gradientTransform="translate(707.501 182.191) rotate(-3.10824) scale(145.277 144.272)">
<stop stop-color="white"/>
<stop offset="0.02" stop-color="#FEFCDB"/>
<stop offset="0.05" stop-color="#FDF8AA"/>
<stop offset="0.09" stop-color="#FDF580"/>
<stop offset="0.12" stop-color="#FCF25D"/>
<stop offset="0.16" stop-color="#FCF043"/>
<stop offset="0.19" stop-color="#FCEF30"/>
<stop offset="0.23" stop-color="#FCEE24"/>
<stop offset="0.27" stop-color="#FCEE21"/>
<stop offset="1" stop-color="#FF931E"/>
</radialGradient>
<radialGradient id="paint10_radial_395_650" cx="0" cy="0" r="1" gradientUnits="userSpaceOnUse" gradientTransform="translate(804.126 330.49) rotate(-3.10824) scale(68.7462 68.2702)">
<stop stop-color="white"/>
<stop offset="0.02" stop-color="#FEFCDB"/>
<stop offset="0.05" stop-color="#FDF8AA"/>
<stop offset="0.09" stop-color="#FDF580"/>
<stop offset="0.12" stop-color="#FCF25D"/>
<stop offset="0.16" stop-color="#FCF043"/>
<stop offset="0.19" stop-color="#FCEF30"/>
<stop offset="0.23" stop-color="#FCEE24"/>
<stop offset="0.27" stop-color="#FCEE21"/>
<stop offset="1" stop-color="#FF931E"/>
</radialGradient>
<radialGradient id="paint11_radial_395_650" cx="0" cy="0" r="1" gradientUnits="userSpaceOnUse" gradientTransform="translate(942.763 446.815) rotate(-3.10824) scale(140.838 139.863)">
<stop stop-color="white"/>
<stop offset="0.02" stop-color="#FEFCDB"/>
<stop offset="0.05" stop-color="#FDF8AA"/>
<stop offset="0.09" stop-color="#FDF580"/>
<stop offset="0.12" stop-color="#FCF25D"/>
<stop offset="0.16" stop-color="#FCF043"/>
<stop offset="0.19" stop-color="#FCEF30"/>
<stop offset="0.23" stop-color="#FCEE24"/>
<stop offset="0.27" stop-color="#FCEE21"/>
<stop offset="1" stop-color="#FF931E"/>
</radialGradient>
<radialGradient id="paint12_radial_395_650" cx="0" cy="0" r="1" gradientUnits="userSpaceOnUse" gradientTransform="translate(861.147 606.47) rotate(-3.10824) scale(68.7104 68.2346)">
<stop stop-color="white"/>
<stop offset="0.02" stop-color="#FEFCDB"/>
<stop offset="0.05" stop-color="#FDF8AA"/>
<stop offset="0.09" stop-color="#FDF580"/>
<stop offset="0.12" stop-color="#FCF25D"/>
<stop offset="0.16" stop-color="#FCF043"/>
<stop offset="0.19" stop-color="#FCEF30"/>
<stop offset="0.23" stop-color="#FCEE24"/>
<stop offset="0.27" stop-color="#FCEE21"/>
<stop offset="1" stop-color="#FF931E"/>
</radialGradient>
<radialGradient id="paint13_radial_395_650" cx="0" cy="0" r="1" gradientUnits="userSpaceOnUse" gradientTransform="translate(841.443 741.882) rotate(-3.10824) scale(147.224 146.204)">
<stop stop-color="white"/>
<stop offset="0.02" stop-color="#FEFCDB"/>
<stop offset="0.05" stop-color="#FDF8AA"/>
<stop offset="0.09" stop-color="#FDF580"/>
<stop offset="0.12" stop-color="#FCF25D"/>
<stop offset="0.16" stop-color="#FCF043"/>
<stop offset="0.19" stop-color="#FCEF30"/>
<stop offset="0.23" stop-color="#FCEE24"/>
<stop offset="0.27" stop-color="#FCEE21"/>
<stop offset="1" stop-color="#FF931E"/>
</radialGradient>
<radialGradient id="paint14_radial_395_650" cx="0" cy="0" r="1" gradientUnits="userSpaceOnUse" gradientTransform="translate(682.518 798.536) rotate(-3.10824) scale(66.9704 66.5067)">
<stop stop-color="white"/>
<stop offset="0.02" stop-color="#FEFCDB"/>
<stop offset="0.05" stop-color="#FDF8AA"/>
<stop offset="0.09" stop-color="#FDF580"/>
<stop offset="0.12" stop-color="#FCF25D"/>
<stop offset="0.16" stop-color="#FCF043"/>
<stop offset="0.19" stop-color="#FCEF30"/>
<stop offset="0.23" stop-color="#FCEE24"/>
<stop offset="0.27" stop-color="#FCEE21"/>
<stop offset="1" stop-color="#FF931E"/>
</radialGradient>
</defs>
</svg>
