<svg width="1104" height="1083" viewBox="0 0 1104 1083" fill="none" xmlns="http://www.w3.org/2000/svg">
<path d="M453.45 729.132C467.7 736.553 508.129 752.991 575.593 745.418C576.218 745.348 576.85 745.43 577.436 745.656C578.022 745.882 578.546 746.247 578.961 746.718C579.377 747.19 579.672 747.754 579.823 748.364C579.974 748.974 579.975 749.612 579.828 750.223C577.232 761.053 575.654 788.362 602.221 837.352C602.221 837.352 643.19 904.439 584.296 956.157C584.296 956.157 512.221 995.517 535.53 1078.3C535.729 1078.99 535.7 1079.73 535.448 1080.41C535.196 1081.09 534.734 1081.66 534.13 1082.06C533.526 1082.45 532.811 1082.64 532.09 1082.6C531.37 1082.56 530.681 1082.29 530.125 1081.83C510.786 1065.83 467.211 1019.74 486.998 941.784C486.998 941.784 515.672 902.861 484.433 870.605C484.433 870.605 407.717 811.844 444.35 732.176C444.73 731.367 445.27 730.643 445.937 730.048C446.605 729.453 447.385 728.999 448.233 728.714C449.08 728.428 449.976 728.317 450.868 728.388C451.759 728.458 452.627 728.708 453.419 729.122" fill="#FFCF4C"/>
<path d="M428.216 716.552L407.991 703.91C405.367 702.276 402.311 701.474 399.223 701.608C396.135 701.743 393.16 702.807 390.688 704.663C364.529 724.226 292.861 789.268 364.325 872.285C364.663 872.677 365.117 872.952 365.621 873.069C366.126 873.186 366.654 873.138 367.13 872.934C367.606 872.73 368.004 872.379 368.266 871.932C368.529 871.486 368.642 870.968 368.59 870.453C366.666 851.653 366.554 804.078 411.025 783.334C413.094 782.375 414.884 780.904 416.227 779.061C417.57 777.217 418.421 775.062 418.699 772.799C420.216 760.065 423.89 734.995 430.109 724.684C430.933 723.337 431.193 721.72 430.833 720.183C430.473 718.645 429.522 717.311 428.186 716.47" fill="#F9AF38"/>
<path d="M325.085 573.552C327.925 589.379 339.61 631.407 386.829 680.193C387.264 680.645 387.585 681.196 387.763 681.798C387.942 682.4 387.973 683.036 387.854 683.652C387.736 684.269 387.47 684.848 387.081 685.341C386.692 685.833 386.19 686.225 385.618 686.484C375.439 691.064 352.873 706.495 330.348 757.48C330.348 757.48 302.285 830.908 225.355 815.905C225.355 815.905 150.145 782.906 98.8346 851.978C98.4075 852.564 97.8035 852.997 97.1117 853.213C96.4198 853.429 95.6768 853.417 94.9923 853.178C94.3078 852.94 93.7181 852.488 93.3103 851.889C92.9025 851.289 92.6981 850.575 92.7274 849.851C93.5926 824.791 103.425 762.101 177.21 730.13C177.21 730.13 225.538 729.04 231.981 684.6C231.981 684.6 231.605 587.964 317.054 568.269C317.928 568.069 318.833 568.048 319.715 568.208C320.597 568.367 321.437 568.704 322.185 569.198C322.933 569.692 323.573 570.332 324.066 571.081C324.559 571.829 324.896 572.67 325.055 573.552" fill="#FFCF4C"/>
<path d="M319.64 545.866L317.259 522.14C316.957 519.065 315.731 516.155 313.741 513.792C311.751 511.43 309.091 509.727 306.113 508.907C274.62 500.133 179.338 483.166 157.291 590.509C157.181 591.02 157.238 591.552 157.454 592.027C157.669 592.503 158.032 592.896 158.489 593.15C158.945 593.403 159.471 593.503 159.988 593.434C160.506 593.366 160.988 593.133 161.363 592.769C175.053 579.791 212.663 550.64 256.238 573.145C258.261 574.198 260.519 574.717 262.8 574.653C265.08 574.589 267.305 573.944 269.266 572.778C280.28 566.203 302.357 553.785 314.317 552.421C315.889 552.254 317.331 551.472 318.328 550.246C319.325 549.02 319.797 547.449 319.64 545.876" fill="#F9AF38"/>
<path d="M362.085 381.471C351.356 393.441 325.442 428.516 315.986 495.746C315.898 496.368 315.662 496.959 315.297 497.47C314.933 497.982 314.452 498.398 313.893 498.684C313.334 498.971 312.715 499.119 312.087 499.116C311.459 499.113 310.842 498.959 310.286 498.668C300.423 493.466 274.365 485.16 220.306 498.749C220.306 498.749 145.158 521.793 109.665 451.927C109.665 451.927 89.4194 372.34 3.39971 374.376C2.68657 374.378 1.99093 374.156 1.41177 373.739C0.832611 373.323 0.399452 372.735 0.173937 372.059C-0.0515775 371.382 -0.057958 370.652 0.155704 369.971C0.369366 369.291 0.792183 368.695 1.36398 368.269C21.6602 353.53 77.1338 322.73 147.743 361.246C147.743 361.246 178.279 398.683 217.334 376.422C217.334 376.422 293.277 316.684 361.382 371.944C362.077 372.51 362.649 373.212 363.064 374.006C363.479 374.8 363.729 375.67 363.799 376.563C363.868 377.457 363.756 378.355 363.468 379.204C363.181 380.053 362.724 380.834 362.125 381.501" fill="#FFCF4C"/>
<path d="M380.611 360.146L397.833 343.687C400.06 341.551 401.591 338.793 402.226 335.773C402.862 332.754 402.572 329.613 401.396 326.76C388.937 296.54 343.714 210.978 245.51 259.581C245.044 259.81 244.663 260.182 244.424 260.643C244.185 261.104 244.099 261.63 244.18 262.143C244.261 262.656 244.504 263.129 244.873 263.494C245.242 263.859 245.719 264.097 246.233 264.172C264.921 266.971 311.02 278.717 320.089 326.892C320.506 329.134 321.488 331.233 322.941 332.991C324.394 334.749 326.271 336.107 328.395 336.939C340.355 341.58 363.725 351.352 372.163 359.932C373.264 361.068 374.769 361.724 376.351 361.756C377.933 361.788 379.464 361.195 380.611 360.105" fill="#F9AF38"/>
<path d="M534.531 286.646C518.459 286.005 474.904 288.336 417.059 323.89C416.524 324.218 415.917 324.413 415.291 324.458C414.665 324.502 414.037 324.395 413.461 324.145C412.884 323.896 412.377 323.511 411.981 323.023C411.585 322.536 411.312 321.96 411.186 321.345C408.916 310.434 398.727 285.058 353.809 252.039C353.809 252.039 288.187 208.78 319.456 136.908C319.456 136.908 367.927 70.6048 311.578 5.60402C311.102 5.06052 310.814 4.37906 310.754 3.6595C310.694 2.93994 310.866 2.22013 311.245 1.60555C311.624 0.990966 312.19 0.513933 312.86 0.244358C313.53 -0.0252175 314.268 -0.0731594 314.967 0.107558C339.254 6.36742 398.33 29.5238 413.608 108.479C413.608 108.479 404.224 155.912 446.18 171.801C446.18 171.801 540.607 192.311 541.381 280.01C541.387 280.906 541.211 281.794 540.864 282.62C540.517 283.445 540.006 284.192 539.362 284.815C538.717 285.437 537.953 285.922 537.116 286.241C536.278 286.559 535.385 286.704 534.49 286.667" fill="#FFCF4C"/>
<path d="M562.737 287.328L586.403 290.117C589.468 290.477 592.57 289.903 595.304 288.47C598.037 287.037 600.274 284.812 601.721 282.086C617.091 253.24 654.253 163.871 554.208 119.147C553.736 118.949 553.214 118.906 552.715 119.021C552.217 119.136 551.767 119.405 551.43 119.79C551.093 120.175 550.885 120.655 550.835 121.164C550.786 121.673 550.897 122.185 551.154 122.628C560.895 138.822 581.201 181.837 549.841 219.518C548.374 221.266 547.379 223.36 546.95 225.602C546.521 227.843 546.671 230.156 547.388 232.323C551.459 244.486 558.778 268.732 557.567 280.712C557.394 282.283 557.848 283.858 558.829 285.096C559.81 286.335 561.24 287.137 562.809 287.328" fill="#F9AF38"/>
<path d="M720.576 365.021C710.845 352.207 681.347 320.083 617.12 298.066C616.526 297.862 615.989 297.517 615.556 297.062C615.123 296.606 614.806 296.054 614.631 295.45C614.456 294.846 614.429 294.209 614.553 293.593C614.676 292.976 614.946 292.398 615.339 291.908C622.311 283.216 635.421 259.214 632.327 203.558C632.327 203.558 623.97 125.396 699.323 103.807C699.323 103.807 781.302 99.0332 795.633 14.235C795.756 13.5256 796.101 12.8737 796.619 12.3737C797.137 11.8737 797.801 11.5516 798.514 11.4541C799.227 11.3566 799.953 11.4887 800.586 11.8313C801.219 12.1739 801.727 12.7092 802.036 13.3597C812.652 36.0784 832.368 96.3868 781.149 158.405C781.149 158.405 738.592 181.328 753.036 223.844C753.036 223.844 797.272 309.751 730.093 366.131C729.405 366.704 728.609 367.132 727.751 367.389C726.894 367.645 725.993 367.726 725.104 367.625C724.214 367.524 723.355 367.244 722.577 366.802C721.798 366.36 721.118 365.764 720.576 365.052" fill="#FFCF4C"/>
<path d="M737.941 387.212L750.837 407.254C752.504 409.852 754.92 411.884 757.766 413.082C760.611 414.279 763.753 414.586 766.777 413.961C798.819 407.467 891.404 379.303 862.283 273.659C862.144 273.16 861.85 272.718 861.443 272.397C861.037 272.075 860.538 271.892 860.02 271.873C859.503 271.854 858.992 271.999 858.563 272.289C858.133 272.579 857.807 272.998 857.631 273.486C851.341 291.309 831.065 334.344 782.045 334.11C779.763 334.09 777.515 334.654 775.512 335.748C773.51 336.841 771.82 338.429 770.604 340.36C763.774 351.22 749.748 372.31 739.712 378.967C738.39 379.831 737.463 381.182 737.132 382.725C736.8 384.269 737.091 385.881 737.941 387.212Z" fill="#F9AF38"/>
<path d="M772.874 557.999C777.271 542.527 785.251 499.645 764.283 435.061C764.094 434.465 764.05 433.832 764.156 433.215C764.263 432.598 764.515 432.016 764.893 431.517C765.271 431.018 765.764 430.618 766.329 430.349C766.894 430.08 767.515 429.951 768.141 429.972C779.276 430.328 806.341 426.389 848.99 390.499C848.99 390.499 906.468 336.878 968.975 384.168C968.975 384.168 1022.02 446.858 1098.47 407.375C1099.11 407.042 1099.84 406.923 1100.55 407.035C1101.26 407.147 1101.92 407.484 1102.43 407.997C1102.94 408.51 1103.27 409.172 1103.37 409.887C1103.48 410.601 1103.35 411.329 1103.01 411.966C1091.22 434.094 1054.83 486.077 974.492 482.361C974.492 482.361 930.602 462.096 905.277 499.187C905.277 499.187 863.148 586.143 777.729 566.284C776.857 566.079 776.035 565.699 775.314 565.167C774.593 564.635 773.987 563.963 773.533 563.19C773.079 562.418 772.787 561.561 772.674 560.672C772.56 559.783 772.628 558.881 772.874 558.019" fill="#FFCF4C"/>
<path d="M765.585 585.247L757.31 607.64C756.232 610.533 756.057 613.685 756.808 616.679C757.558 619.674 759.199 622.371 761.513 624.414C785.942 646.135 864.063 703.258 931.059 616.525C931.372 616.114 931.547 615.614 931.558 615.097C931.569 614.581 931.416 614.074 931.121 613.649C930.826 613.225 930.403 612.905 929.915 612.736C929.426 612.567 928.897 612.557 928.402 612.708C910.366 618.378 863.778 627.976 834.535 588.667C833.186 586.821 831.387 585.35 829.31 584.395C827.233 583.44 824.946 583.033 822.667 583.211C809.882 584.28 784.588 585.725 773.249 581.694C771.763 581.157 770.124 581.228 768.689 581.891C767.255 582.554 766.139 583.756 765.585 585.236" fill="#F9AF38"/>
<path d="M655.556 719.299C670.233 712.723 708.21 691.267 744.201 633.696C744.534 633.164 744.991 632.72 745.532 632.401C746.073 632.082 746.683 631.899 747.31 631.866C747.937 631.833 748.563 631.951 749.135 632.212C749.706 632.472 750.207 632.866 750.593 633.36C757.484 642.124 777.903 660.313 832.806 669.912C832.806 669.912 910.826 679.47 914.785 757.754C914.785 757.754 900.871 838.684 980.254 871.856C980.923 872.131 981.485 872.613 981.86 873.231C982.234 873.849 982.401 874.571 982.335 875.291C982.269 876.01 981.974 876.69 981.493 877.23C981.012 877.769 980.371 878.141 979.664 878.289C955.133 883.48 891.924 889.027 843.117 825.095C843.117 825.095 830.425 778.447 785.74 782.895C785.74 782.895 692.097 806.53 652.4 728.327C651.996 727.528 651.758 726.655 651.701 725.761C651.644 724.867 651.769 723.97 652.069 723.126C652.369 722.282 652.837 721.507 653.445 720.849C654.053 720.191 654.788 719.664 655.606 719.299" fill="#FFCF4C"/>
<path d="M629.987 731.238L607.594 739.259C604.684 740.299 602.155 742.193 600.339 744.694C598.523 747.195 597.504 750.186 597.415 753.275C596.489 785.949 602.953 882.544 712.434 878.065C712.95 878.04 713.445 877.852 713.847 877.528C714.25 877.204 714.539 876.761 714.673 876.262C714.808 875.763 714.781 875.234 714.596 874.752C714.412 874.269 714.079 873.858 713.645 873.577C697.716 863.398 660.391 833.88 671.73 786.223C672.261 784.005 672.219 781.687 671.606 779.49C670.994 777.292 669.831 775.287 668.228 773.663C659.2 764.563 641.835 746.12 637.621 734.832C637.077 733.347 635.969 732.137 634.537 731.464C633.106 730.791 631.467 730.71 629.977 731.238" fill="#F9AF38"/>
<path d="M759.815 508.245C766.289 626.704 675.516 727.982 557.057 734.466C438.598 740.949 337.32 650.166 330.837 531.707C324.353 413.248 415.136 311.971 533.595 305.487C652.054 299.003 753.331 389.817 759.815 508.245Z" fill="#EE981C"/>
</svg>
