<svg width="1108" height="1088" viewBox="0 0 1108 1088" fill="none" xmlns="http://www.w3.org/2000/svg">
<g clip-path="url(#clip0_451_1122)">
<path d="M473.729 737.59C488.419 744.24 529.779 758.49 596.929 747.23C599.609 746.78 601.919 749.13 601.439 751.81C599.439 762.8 599.349 790.23 628.649 837.83C628.649 837.83 673.339 902.76 617.209 957.77C617.209 957.77 547.189 1001.13 575.069 1082.78C576.139 1085.93 572.519 1088.59 569.849 1086.61C549.639 1071.65 503.449 1027.88 518.999 948.74C518.999 948.74 545.579 908.2 512.539 877.61C512.539 877.61 432.509 822.98 464.819 741.19C466.209 737.67 470.279 736.03 473.729 737.59Z" fill="url(#paint0_radial_451_1122)"/>
<path d="M447.76 726.34L426.82 714.83C421.27 711.78 414.42 712.46 409.56 716.52C384.41 737.54 316.22 806.59 392.35 885.84C394 887.56 396.9 886.12 396.53 883.77C393.57 865.05 390.9 817.42 434.24 794.22C438.34 792.02 441.05 787.89 441.35 783.25C442.18 770.42 444.48 745.12 450.15 734.46C451.7 731.54 450.66 727.93 447.77 726.34H447.76Z" fill="url(#paint1_radial_451_1122)"/>
<path d="M554.31 729.99C670.864 729.99 765.35 635.504 765.35 518.95C765.35 402.396 670.864 307.91 554.31 307.91C437.755 307.91 343.27 402.396 343.27 518.95C343.27 635.504 437.755 729.99 554.31 729.99Z" fill="#F79626"/>
<path d="M336.671 588.85C340.381 604.54 354.381 645.99 404.341 692.25C406.341 694.1 405.891 697.36 403.471 698.61C393.541 703.74 371.781 720.44 352.011 772.72C352.011 772.72 327.931 847.78 250.081 836.97C250.081 836.97 172.971 808.05 125.381 880.02C123.551 882.79 119.231 881.55 119.161 878.22C118.651 853.08 125.071 789.78 197.211 753.72C197.211 753.72 245.541 749.98 249.561 705.13C249.561 705.13 243.881 608.4 328.37 583.99C332.01 582.94 335.791 585.16 336.671 588.85Z" fill="url(#paint2_radial_451_1122)"/>
<path d="M329.71 561.42L326.02 537.82C325.04 531.56 320.32 526.55 314.13 525.19C282.12 518.13 185.79 506.36 169.59 615.05C169.24 617.41 172.14 618.82 173.78 617.09C186.79 603.31 222.86 572.09 267.71 592.21C271.96 594.12 276.88 593.73 280.74 591.13C291.4 583.94 312.83 570.3 324.74 568.27C328 567.71 330.22 564.69 329.71 561.42Z" fill="url(#paint3_radial_451_1122)"/>
<path d="M363.21 394.49C353.12 407.07 329.06 443.6 323.31 511.44C323.08 514.15 320.23 515.81 317.76 514.67C307.61 510 281.06 503.11 227.68 519.69C227.68 519.69 153.69 546.88 114.33 478.85C114.33 478.85 89.6997 400.27 3.67968 407.01C0.359676 407.27 -1.31032 403.1 1.26968 401C20.7797 385.14 74.6397 351.25 147.44 385.95C147.44 385.95 180.12 421.76 217.95 397.34C217.95 397.34 290.73 333.36 361.94 384.96C365.01 387.18 365.58 391.53 363.21 394.49Z" fill="url(#paint4_radial_451_1122)"/>
<path d="M380.55 372.13L396.89 354.71C401.22 350.09 402.27 343.28 399.53 337.57C385.4 307.99 335.43 224.8 239.77 278.88C237.69 280.05 238.37 283.21 240.74 283.44C259.61 285.22 306.41 294.45 318.13 342.19C319.24 346.71 322.57 350.35 327 351.8C339.23 355.79 363.16 364.29 372.08 372.43C374.52 374.66 378.28 374.55 380.54 372.14L380.55 372.13Z" fill="url(#paint5_radial_451_1122)"/>
<path d="M530.68 290.11C514.56 290.34 471.07 295.06 415.1 333.83C412.86 335.38 409.77 334.23 409.07 331.6C406.2 320.8 394.61 295.94 347.83 265.34C347.83 265.34 279.75 225.61 307.13 151.94C307.13 151.94 352.03 82.9004 292.05 20.8804C289.74 18.4904 291.89 14.5404 295.15 15.1904C319.8 20.1304 380.23 40.0704 399.85 118.3C399.85 118.3 393.05 166.3 435.98 179.92C435.98 179.92 531.65 195.28 537.23 283.05C537.47 286.83 534.48 290.05 530.7 290.1L530.68 290.11Z" fill="url(#paint6_radial_451_1122)"/>
<path d="M558.961 289.241L582.801 290.741C589.121 291.141 595.031 287.611 597.701 281.861C611.511 252.131 643.821 160.621 541.201 121.321C538.971 120.471 536.961 123.001 538.301 124.971C548.951 140.651 571.631 182.611 542.291 222.051C539.511 225.791 538.831 230.671 540.531 235.011C545.241 246.971 553.931 270.851 553.341 282.911C553.181 286.211 555.651 289.041 558.951 289.251L558.961 289.241Z" fill="url(#paint7_radial_451_1122)"/>
<path d="M721.2 358.39C710.76 346.1 679.46 315.54 613.95 297.01C611.33 296.27 610.25 293.16 611.83 290.94C618.34 281.86 630.14 257.1 624 201.54C624 201.54 611.35 123.74 685.62 97.9996C685.62 97.9996 767.45 88.7396 777.15 2.9996C777.52 -0.300395 781.94 -1.1604 783.51 1.7696C795.38 23.9296 818.43 83.2496 770.54 148.14C770.54 148.14 729.18 173.43 745.97 215.21C745.97 215.21 794.97 298.81 730.79 358.93C728.03 361.52 723.65 361.26 721.19 358.37L721.2 358.39Z" fill="url(#paint8_radial_451_1122)"/>
<path d="M739.859 379.659L753.869 399.009C757.589 404.139 764.069 406.459 770.199 404.859C801.919 396.599 893.089 363.329 858.139 259.139C857.379 256.879 854.149 256.939 853.479 259.229C848.149 277.419 830.199 321.609 781.109 324.059C776.459 324.289 772.249 326.869 769.989 330.939C763.759 342.189 750.859 364.069 741.179 371.289C738.529 373.259 737.919 376.969 739.859 379.649V379.659Z" fill="url(#paint9_radial_451_1122)"/>
<path d="M784.181 548.75C787.741 533.02 793.381 489.64 768.851 426.13C767.871 423.59 769.711 420.86 772.431 420.8C783.601 420.55 810.491 415.12 851.221 376.85C851.221 376.85 905.841 320.02 971.011 363.94C971.011 363.94 1027.56 423.81 1101.94 380.08C1104.81 378.39 1108.14 381.41 1106.74 384.43C1096.15 407.23 1062.56 461.28 981.911 461.96C981.911 461.96 936.851 444.07 913.531 482.59C913.531 482.59 876.111 571.97 789.491 556.76C785.761 556.1 783.341 552.45 784.171 548.75H784.181Z" fill="url(#paint10_radial_451_1122)"/>
<path d="M778.382 576.45L771.322 599.27C769.452 605.32 771.492 611.9 776.452 615.84C802.102 636.25 883.452 689.17 945.782 598.66C947.132 596.7 945.142 594.15 942.912 594.99C925.172 601.65 879.052 613.84 847.612 576.05C844.632 572.47 840.042 570.66 835.432 571.3C822.692 573.07 797.452 575.9 785.862 572.49C782.692 571.56 779.362 573.3 778.382 576.45Z" fill="url(#paint11_radial_451_1122)"/>
<path d="M675.551 716.68C689.891 709.3 726.741 685.73 759.621 626.11C760.931 623.73 764.211 623.38 766.011 625.42C773.381 633.82 794.821 650.92 850.331 657.52C850.331 657.52 928.981 662.82 937.231 740.98C937.231 740.98 927.721 822.78 1009.03 851.65C1012.16 852.76 1012 857.26 1008.79 858.12C984.511 864.67 921.521 873.68 869.161 812.34C869.161 812.34 853.901 766.33 809.401 773.22C809.401 773.22 716.881 802.02 672.851 725.89C670.951 722.61 672.201 718.4 675.571 716.67L675.551 716.68Z" fill="url(#paint12_radial_451_1122)"/>
<path d="M650.61 730.041L628.591 739.301C622.751 741.761 619.031 747.551 619.191 753.881C620.051 786.651 631.811 882.981 741.211 872.541C743.581 872.311 744.261 869.151 742.181 867.981C725.671 858.671 686.69 831.181 695.42 782.811C696.25 778.231 694.69 773.551 691.23 770.421C681.69 761.801 663.291 744.281 658.451 733.221C657.131 730.191 653.65 728.761 650.61 730.041Z" fill="url(#paint13_radial_451_1122)"/>
</g>
<defs>
<radialGradient id="paint0_radial_451_1122" cx="0" cy="0" r="1" gradientUnits="userSpaceOnUse" gradientTransform="translate(555.318 910.297) rotate(-3.13) scale(141.16 141.16)">
<stop stop-color="white"/>
<stop offset="0.01" stop-color="#FEFDEC"/>
<stop offset="0.05" stop-color="#FDF8BB"/>
<stop offset="0.08" stop-color="#FBF391"/>
<stop offset="0.12" stop-color="#FAF06E"/>
<stop offset="0.15" stop-color="#F9ED54"/>
<stop offset="0.19" stop-color="#F9EB41"/>
<stop offset="0.23" stop-color="#F9EA35"/>
<stop offset="0.27" stop-color="#F9EA32"/>
<stop offset="1" stop-color="#F3922B"/>
</radialGradient>
<radialGradient id="paint1_radial_451_1122" cx="0" cy="0" r="1" gradientUnits="userSpaceOnUse" gradientTransform="translate(405.634 799.825) rotate(-3.13) scale(69.97 69.97)">
<stop stop-color="white"/>
<stop offset="0.01" stop-color="#FEFDEC"/>
<stop offset="0.05" stop-color="#FDF8BB"/>
<stop offset="0.08" stop-color="#FBF391"/>
<stop offset="0.12" stop-color="#FAF06E"/>
<stop offset="0.15" stop-color="#F9ED54"/>
<stop offset="0.19" stop-color="#F9EB41"/>
<stop offset="0.23" stop-color="#F9EA35"/>
<stop offset="0.27" stop-color="#F9EA32"/>
<stop offset="1" stop-color="#F3922B"/>
</radialGradient>
<radialGradient id="paint2_radial_451_1122" cx="0" cy="0" r="1" gradientUnits="userSpaceOnUse" gradientTransform="translate(259.32 730.842) rotate(-3.13) scale(145.54 145.54)">
<stop stop-color="white"/>
<stop offset="0.01" stop-color="#FEFDEC"/>
<stop offset="0.05" stop-color="#FDF8BB"/>
<stop offset="0.08" stop-color="#FBF391"/>
<stop offset="0.12" stop-color="#FAF06E"/>
<stop offset="0.15" stop-color="#F9ED54"/>
<stop offset="0.19" stop-color="#F9EB41"/>
<stop offset="0.23" stop-color="#F9EA35"/>
<stop offset="0.27" stop-color="#F9EA32"/>
<stop offset="1" stop-color="#F3922B"/>
</radialGradient>
<radialGradient id="paint3_radial_451_1122" cx="0" cy="0" r="1" gradientUnits="userSpaceOnUse" gradientTransform="translate(248.527 567.918) rotate(-3.13) scale(66.04 66.04)">
<stop stop-color="white"/>
<stop offset="0.01" stop-color="#FEFDEC"/>
<stop offset="0.05" stop-color="#FDF8BB"/>
<stop offset="0.08" stop-color="#FBF391"/>
<stop offset="0.12" stop-color="#FAF06E"/>
<stop offset="0.15" stop-color="#F9ED54"/>
<stop offset="0.19" stop-color="#F9EB41"/>
<stop offset="0.23" stop-color="#F9EA35"/>
<stop offset="0.27" stop-color="#F9EA32"/>
<stop offset="1" stop-color="#F3922B"/>
</radialGradient>
<radialGradient id="paint4_radial_451_1122" cx="0" cy="0" r="1" gradientUnits="userSpaceOnUse" gradientTransform="translate(184.984 445.435) rotate(-3.13) scale(140.89 140.89)">
<stop stop-color="white"/>
<stop offset="0.01" stop-color="#FEFDEC"/>
<stop offset="0.05" stop-color="#FDF8BB"/>
<stop offset="0.08" stop-color="#FBF391"/>
<stop offset="0.12" stop-color="#FAF06E"/>
<stop offset="0.15" stop-color="#F9ED54"/>
<stop offset="0.19" stop-color="#F9EB41"/>
<stop offset="0.23" stop-color="#F9EA35"/>
<stop offset="0.27" stop-color="#F9EA32"/>
<stop offset="1" stop-color="#F3922B"/>
</radialGradient>
<radialGradient id="paint5_radial_451_1122" cx="0" cy="0" r="1" gradientUnits="userSpaceOnUse" gradientTransform="translate(320.121 318.436) rotate(-3.13) scale(69.78 69.78)">
<stop stop-color="white"/>
<stop offset="0.01" stop-color="#FEFDEC"/>
<stop offset="0.05" stop-color="#FDF8BB"/>
<stop offset="0.08" stop-color="#FBF391"/>
<stop offset="0.12" stop-color="#FAF06E"/>
<stop offset="0.15" stop-color="#F9ED54"/>
<stop offset="0.19" stop-color="#F9EB41"/>
<stop offset="0.23" stop-color="#F9EA35"/>
<stop offset="0.27" stop-color="#F9EA32"/>
<stop offset="1" stop-color="#F3922B"/>
</radialGradient>
<radialGradient id="paint6_radial_451_1122" cx="0" cy="0" r="1" gradientUnits="userSpaceOnUse" gradientTransform="translate(415.269 171.462) rotate(-3.13) scale(141.15 141.15)">
<stop stop-color="white"/>
<stop offset="0.01" stop-color="#FEFDEC"/>
<stop offset="0.05" stop-color="#FDF8BB"/>
<stop offset="0.08" stop-color="#FBF391"/>
<stop offset="0.12" stop-color="#FAF06E"/>
<stop offset="0.15" stop-color="#F9ED54"/>
<stop offset="0.19" stop-color="#F9EB41"/>
<stop offset="0.23" stop-color="#F9EA35"/>
<stop offset="0.27" stop-color="#F9EA32"/>
<stop offset="1" stop-color="#F3922B"/>
</radialGradient>
<radialGradient id="paint7_radial_451_1122" cx="0" cy="0" r="1" gradientUnits="userSpaceOnUse" gradientTransform="translate(575.722 205.222) rotate(-3.13) scale(66.25 66.25)">
<stop stop-color="white"/>
<stop offset="0.01" stop-color="#FEFDEC"/>
<stop offset="0.05" stop-color="#FDF8BB"/>
<stop offset="0.08" stop-color="#FBF391"/>
<stop offset="0.12" stop-color="#FAF06E"/>
<stop offset="0.15" stop-color="#F9ED54"/>
<stop offset="0.19" stop-color="#F9EB41"/>
<stop offset="0.23" stop-color="#F9EA35"/>
<stop offset="0.27" stop-color="#F9EA32"/>
<stop offset="1" stop-color="#F3922B"/>
</radialGradient>
<radialGradient id="paint8_radial_451_1122" cx="0" cy="0" r="1" gradientUnits="userSpaceOnUse" gradientTransform="translate(705.641 182.984) rotate(-3.13) scale(144.9 144.9)">
<stop stop-color="white"/>
<stop offset="0.01" stop-color="#FEFDEC"/>
<stop offset="0.05" stop-color="#FDF8BB"/>
<stop offset="0.08" stop-color="#FBF391"/>
<stop offset="0.12" stop-color="#FAF06E"/>
<stop offset="0.15" stop-color="#F9ED54"/>
<stop offset="0.19" stop-color="#F9EB41"/>
<stop offset="0.23" stop-color="#F9EA35"/>
<stop offset="0.27" stop-color="#F9EA32"/>
<stop offset="1" stop-color="#F3922B"/>
</radialGradient>
<radialGradient id="paint9_radial_451_1122" cx="0" cy="0" r="1" gradientUnits="userSpaceOnUse" gradientTransform="translate(802.017 331.933) rotate(-3.13) scale(68.57 68.57)">
<stop stop-color="white"/>
<stop offset="0.01" stop-color="#FEFDEC"/>
<stop offset="0.05" stop-color="#FDF8BB"/>
<stop offset="0.08" stop-color="#FBF391"/>
<stop offset="0.12" stop-color="#FAF06E"/>
<stop offset="0.15" stop-color="#F9ED54"/>
<stop offset="0.19" stop-color="#F9EB41"/>
<stop offset="0.23" stop-color="#F9EA35"/>
<stop offset="0.27" stop-color="#F9EA32"/>
<stop offset="1" stop-color="#F3922B"/>
</radialGradient>
<radialGradient id="paint10_radial_451_1122" cx="0" cy="0" r="1" gradientUnits="userSpaceOnUse" gradientTransform="translate(940.284 448.769) rotate(-3.13) scale(140.47 140.47)">
<stop stop-color="white"/>
<stop offset="0.01" stop-color="#FEFDEC"/>
<stop offset="0.05" stop-color="#FDF8BB"/>
<stop offset="0.08" stop-color="#FBF391"/>
<stop offset="0.12" stop-color="#FAF06E"/>
<stop offset="0.15" stop-color="#F9ED54"/>
<stop offset="0.19" stop-color="#F9EB41"/>
<stop offset="0.23" stop-color="#F9EA35"/>
<stop offset="0.27" stop-color="#F9EA32"/>
<stop offset="1" stop-color="#F3922B"/>
</radialGradient>
<radialGradient id="paint11_radial_451_1122" cx="0" cy="0" r="1" gradientUnits="userSpaceOnUse" gradientTransform="translate(858.879 609.123) rotate(-3.13) scale(68.53 68.53)">
<stop stop-color="white"/>
<stop offset="0.01" stop-color="#FEFDEC"/>
<stop offset="0.05" stop-color="#FDF8BB"/>
<stop offset="0.08" stop-color="#FBF391"/>
<stop offset="0.12" stop-color="#FAF06E"/>
<stop offset="0.15" stop-color="#F9ED54"/>
<stop offset="0.19" stop-color="#F9EB41"/>
<stop offset="0.23" stop-color="#F9EA35"/>
<stop offset="0.27" stop-color="#F9EA32"/>
<stop offset="1" stop-color="#F3922B"/>
</radialGradient>
<radialGradient id="paint12_radial_451_1122" cx="0" cy="0" r="1" gradientUnits="userSpaceOnUse" gradientTransform="translate(839.225 745.129) rotate(-3.13) scale(146.84 146.84)">
<stop stop-color="white"/>
<stop offset="0.01" stop-color="#FEFDEC"/>
<stop offset="0.05" stop-color="#FDF8BB"/>
<stop offset="0.08" stop-color="#FBF391"/>
<stop offset="0.12" stop-color="#FAF06E"/>
<stop offset="0.15" stop-color="#F9ED54"/>
<stop offset="0.19" stop-color="#F9EB41"/>
<stop offset="0.23" stop-color="#F9EA35"/>
<stop offset="0.27" stop-color="#F9EA32"/>
<stop offset="1" stop-color="#F3922B"/>
</radialGradient>
<radialGradient id="paint13_radial_451_1122" cx="0" cy="0" r="1" gradientUnits="userSpaceOnUse" gradientTransform="translate(680.715 802.029) rotate(-3.13) scale(66.8 66.8)">
<stop stop-color="white"/>
<stop offset="0.01" stop-color="#FEFDEC"/>
<stop offset="0.05" stop-color="#FDF8BB"/>
<stop offset="0.08" stop-color="#FBF391"/>
<stop offset="0.12" stop-color="#FAF06E"/>
<stop offset="0.15" stop-color="#F9ED54"/>
<stop offset="0.19" stop-color="#F9EB41"/>
<stop offset="0.23" stop-color="#F9EA35"/>
<stop offset="0.27" stop-color="#F9EA32"/>
<stop offset="1" stop-color="#F3922B"/>
</radialGradient>
<clipPath id="clip0_451_1122">
<rect width="1107.08" height="1087.29" fill="white"/>
</clipPath>
</defs>
</svg>
